<svg width="144" height="44" viewBox="0 0 144 44" fill="none" xmlns="http://www.w3.org/2000/svg">
<g clip-path="url(#clip0_399_1511)">
<path fill-rule="evenodd" clip-rule="evenodd" d="M6.54075 30.9681L0.85144 24.6787L18.2663 18.4126L20.9761 25.7761L6.54075 30.9681Z" fill="#F89920"/>
<path fill-rule="evenodd" clip-rule="evenodd" d="M6.49935 30.8519L6.2323 39.2896L23.6471 33.0234L20.9373 25.6599L6.49935 30.8519Z" fill="#FFBE22"/>
<path fill-rule="evenodd" clip-rule="evenodd" d="M54.8947 13.5818C57.3793 20.6994 49.3729 30.0507 36.9182 34.5336C24.4635 39.0164 12.2484 36.9406 9.52417 29.9071L54.8947 13.5818Z" fill="#F0670A"/>
<path fill-rule="evenodd" clip-rule="evenodd" d="M54.8956 13.582C52.1884 6.53285 39.9615 4.44803 27.4937 8.93344C15.0259 13.4189 7.01423 22.787 9.52375 29.8943L54.8956 13.582Z" fill="#FFD00E"/>
<path fill-rule="evenodd" clip-rule="evenodd" d="M54.8945 13.5818C56.4432 18.3441 47.7508 25.7465 35.3341 30.2267C22.9174 34.707 11.4354 34.5361 9.52673 29.9058L54.8945 13.5818Z" fill="#F89920"/>
<path fill-rule="evenodd" clip-rule="evenodd" d="M54.8943 13.582C53.0131 8.92828 41.5154 8.76263 29.079 13.2377C16.6426 17.7128 7.94113 25.1436 9.52644 29.906L54.8943 13.582Z" fill="#FFBE22"/>
<path d="M33.9642 7.12299C32.7795 3.07241 31.4311 0.825812 29.8982 0.868518C26.9344 0.951341 25.9382 10.2418 26.8977 22.1464C27.8664 34.1778 30.3799 43.2146 33.5165 43.1331C35.3859 43.0852 36.4384 40.1281 36.8088 34.9931C36.8167 34.8896 36.6976 34.9607 36.7041 34.8533C36.7041 34.8533 36.6884 34.6657 36.619 34.6618L36.2211 34.6359C35.8938 39.6183 34.9094 42.4912 33.4982 42.53C30.9219 42.5947 28.432 33.6563 27.5025 22.0985C26.5862 10.7297 27.5732 1.53499 29.9139 1.47029C31.0214 1.43923 32.2637 3.50852 33.362 7.23946L33.9642 7.11005V7.12299Z" fill="#F0670A"/>
<path d="M19.2768 4.23188C16.7502 5.76929 20.5885 14.3066 27.4403 24.1432C34.3654 34.082 41.1137 40.6665 43.7869 39.0462C45.2793 38.1403 44.8604 35.3916 42.936 31.2427C42.8928 31.1392 42.7972 31.0706 42.6742 31.0576C42.5511 31.0447 42.4542 31.0965 42.3914 31.187C42.3286 31.2776 42.3194 31.3941 42.3705 31.4938C44.1587 35.3502 44.5436 37.8738 43.4544 38.5338C41.2551 39.8667 34.5814 33.3521 27.9286 23.8015C21.3857 14.4088 17.5894 5.96082 19.5831 4.74564C20.6435 4.10117 23.1596 5.6567 26.4886 9.01623C26.5252 9.05505 26.7373 9.27117 26.7857 9.28541C26.8905 9.31646 26.8381 9.10035 26.9193 9.02011C26.9769 8.96446 27.0109 8.88811 27.0109 8.80788C27.0109 8.72764 26.9808 8.65258 26.9232 8.59435C23.3677 5.00446 20.6998 3.35576 19.2624 4.23058L19.2768 4.23188Z" fill="#F0670A"/>
<path fill-rule="evenodd" clip-rule="evenodd" d="M82.3555 25.568H89.0187V28.8589H78.4701V15.1413H89.0187V18.4335H82.3555V20.0809H86.5184V23.3744H82.3555V25.568ZM112.612 25.568H118.719V28.8589H108.727V15.1413H112.615L112.612 25.568ZM122.606 15.14H126.494V28.8589H122.606V15.14ZM130.931 15.14V28.8589H134.541V21.1744L139.537 28.8589H143.147V15.1387H139.537V22.937L134.541 15.1594L130.931 15.14Z" fill="#574751"/>
<path d="M96.79 21.4514H99.5705C99.789 21.4514 100.005 21.4088 100.207 21.326C100.409 21.2433 100.592 21.122 100.747 20.9691C100.901 20.8162 101.024 20.6347 101.107 20.435C101.191 20.2353 101.233 20.0212 101.233 19.8053C101.234 19.5891 101.191 19.375 101.108 19.1752C101.024 18.9752 100.902 18.7936 100.747 18.6406C100.593 18.4876 100.409 18.3662 100.208 18.2834C100.006 18.2004 99.7891 18.1578 99.5705 18.1578H96.7887V21.4514H96.79ZM100.126 15.14C101.377 15.14 102.576 15.6317 103.461 16.5066C104.346 17.3814 104.842 18.5681 104.842 19.8066C104.842 21.045 104.345 22.2304 103.461 23.1066C102.577 23.9827 101.377 24.4731 100.126 24.4731H97.1801V28.8589H93.1821V15.1387H100.124L100.126 15.14Z" fill="#574751"/>
<path fill-rule="evenodd" clip-rule="evenodd" d="M74.0297 18.4321V15.1411H62.6484V18.4332H69.0329L62.6484 25.569V28.8626H74.0297V25.569H67.9228L74.0297 18.4321Z" fill="#574751"/>
</g>
<defs>
<clipPath id="clip0_399_1511">
<rect width="144" height="44" fill="white"/>
</clipPath>
</defs>
</svg>
