<svg width="98" height="44" viewBox="0 0 98 44" fill="none" xmlns="http://www.w3.org/2000/svg">
<g clip-path="url(#clip0_399_1509)">
<path d="M46.3689 15.7591C47.4957 15.7591 48.5418 15.9434 49.507 16.3118C50.4708 16.6799 51.2969 17.2503 51.9861 18.0229C52.6748 18.7968 53.2134 19.7788 53.6022 20.9684C53.9903 22.1602 54.1842 23.5643 54.1842 25.1845C54.1842 28.4246 53.2886 30.9595 51.498 32.7877C49.7063 34.6165 47.1703 35.5311 43.8885 35.5311C43.3374 35.5311 42.7741 35.4941 42.1978 35.4204C41.6209 35.3467 41.1206 35.2479 40.6947 35.1259V43.7781C40.3771 43.8286 40.0575 43.8653 39.7367 43.8883C39.4303 43.9114 39.1231 43.9237 38.8158 43.9252C38.54 43.9252 38.2338 43.9124 37.8956 43.8883C37.5871 43.8669 37.2799 43.8301 36.9753 43.7781V16.2005C37.2299 16.1514 37.4868 16.1147 37.7451 16.0905C38.0136 16.0658 38.2832 16.0535 38.5529 16.0536C38.803 16.0536 39.0664 16.0662 39.3422 16.0905C39.6173 16.1153 39.8808 16.1521 40.1314 16.2005C40.1561 16.2507 40.1878 16.4032 40.2248 16.6613C40.2625 16.9189 40.3002 17.195 40.3377 17.4894C40.3754 17.7839 40.4129 18.0667 40.4506 18.3365C40.4884 18.6067 40.5065 18.7784 40.5065 18.8521C40.7573 18.4591 41.0576 18.0789 41.4086 17.7108C41.7591 17.3426 42.1796 17.0105 42.6677 16.7168C43.1558 16.4216 43.7069 16.189 44.3215 16.0173C44.934 15.8455 45.6167 15.7591 46.3689 15.7591ZM25.2511 15.7591C27.7558 15.7591 29.6599 16.3182 30.9625 17.4342C32.265 18.5515 32.9167 20.3372 32.9167 22.7912V34.6103C32.0401 34.8068 30.9755 35.009 29.7229 35.2177C28.4563 35.4269 27.1742 35.5315 25.8898 35.5304C24.6619 35.5304 23.5541 35.4204 22.5643 35.1991C21.5747 34.9777 20.7354 34.6229 20.0469 34.1308C19.3577 33.6412 18.8254 33.0141 18.4496 32.2535C18.0739 31.4931 17.8863 30.5729 17.8863 29.4917C17.8863 28.4373 18.1049 27.5103 18.5436 26.7121C18.9746 25.9232 19.5855 25.2428 20.3285 24.7242C21.0801 24.1972 21.9445 23.8034 22.9213 23.5466C23.8988 23.2884 24.9255 23.1592 26.0029 23.1592C26.8043 23.1592 27.4618 23.1784 27.975 23.2145C28.4885 23.2521 28.9205 23.2948 29.2718 23.3437V22.6442C29.2718 21.1956 28.896 20.1896 28.1446 19.6249C27.3929 19.0608 26.3032 18.7784 24.8753 18.7784C23.9979 18.7784 23.1783 18.8465 22.4144 18.9807C21.6588 19.1137 20.9122 19.2919 20.1786 19.5142C19.702 18.7041 19.4647 17.7354 19.4647 16.6055C20.3155 16.3358 21.2547 16.1273 22.2827 15.9797C23.3095 15.8323 24.2986 15.7591 25.2513 15.7591H25.2511ZM15.6695 16.2003L15.8571 16.6798L5.63653 32.1802H15.2187C15.2934 32.6717 15.3316 33.1741 15.3316 33.6891C15.3316 34.1814 15.2934 34.6468 15.2187 35.0894H0.188152L0 34.5737L10.1459 19.1095H1.20261C1.12738 18.6677 1.08968 18.1773 1.08968 17.6367C1.08968 17.1215 1.12738 16.6422 1.20261 16.2001H15.6695V16.2003ZM26.3787 25.9942C24.8248 25.9942 23.641 26.2772 22.8279 26.8413C22.0127 27.4065 21.6065 28.2657 21.6065 29.4185C21.6065 30.155 21.7434 30.7325 22.0199 31.149C22.295 31.5668 22.6397 31.8853 23.0532 32.1066C23.4666 32.3272 23.9233 32.462 24.4244 32.5117C24.8988 32.5597 25.3754 32.5843 25.8523 32.5854C26.4284 32.5854 27.0237 32.5551 27.637 32.4927C28.251 32.4316 28.7953 32.34 29.2718 32.2172V26.2157C28.896 26.1668 28.4204 26.1183 27.8439 26.0689C27.2677 26.02 26.7791 25.9944 26.3787 25.9944V25.9942ZM45.5422 18.9253C44.9251 18.9236 44.3132 19.0362 43.7386 19.2573C43.1617 19.4773 42.6489 19.8085 42.1978 20.2505C41.7469 20.6924 41.3841 21.2514 41.1087 21.9261C40.8323 22.6023 40.6947 23.4046 40.6947 24.3382V31.9959C41.1689 32.168 41.66 32.2914 42.1601 32.3643C42.6612 32.4374 43.3124 32.4748 44.1144 32.4748C45.0165 32.4748 45.8428 32.3336 46.5942 32.0512C47.3459 31.7703 47.9909 31.3333 48.5289 30.7438C49.0676 30.155 49.4933 29.4129 49.8068 28.5161C50.1195 27.6207 50.2767 26.5595 50.2767 25.3322C50.2767 23.3685 49.9067 21.8099 49.1681 20.6557C48.429 19.5027 47.2197 18.9253 45.5422 18.9253ZM75.6032 15.7588C76.9304 15.7588 78.0953 15.9801 79.0975 16.422C80.0995 16.8638 80.9388 17.4712 81.6156 18.2444C82.2913 19.0178 82.8046 19.9378 83.1557 21.0057C83.5061 22.0733 83.6821 23.2326 83.6821 24.4847C83.6821 24.8288 83.669 25.1906 83.6438 25.571C83.6231 25.8964 83.5982 26.2215 83.5691 26.5463H70.4547C70.5053 28.6086 71.0498 30.1184 72.0893 31.0755C73.1292 32.0326 74.6634 32.5121 76.6927 32.5121C78.4718 32.5121 80.1619 32.2048 81.7655 31.5911C81.9661 31.9594 82.1284 32.4071 82.2542 32.9348C82.3772 33.4487 82.4526 33.9725 82.4794 34.4998C81.6526 34.8439 80.744 35.1007 79.7555 35.2731C78.7652 35.4443 77.6696 35.5308 76.4678 35.5308C74.7133 35.5308 73.2104 35.2916 71.9584 34.8126C70.7059 34.3337 69.6719 33.6591 68.858 32.7879C68.0443 31.9167 67.4491 30.8854 67.0732 29.6947C66.6976 28.5045 66.5095 27.1976 66.5095 25.7731C66.5095 24.3747 66.6909 23.0678 67.0546 21.852C67.4173 20.6373 67.9753 19.5824 68.7263 18.6859C69.478 17.7905 70.4235 17.079 71.5632 16.5504C72.7028 16.0226 74.0495 15.7588 75.6032 15.7588ZM62.452 16.2003V35.0894C62.1471 35.1411 61.8397 35.1776 61.531 35.1989C61.2246 35.222 60.9174 35.2342 60.6101 35.2357C60.3594 35.2357 60.0648 35.2229 59.7274 35.1989C59.4187 35.1777 59.1114 35.1412 58.8065 35.0894V19.0727H56.3634C56.3136 18.8762 56.2757 18.6492 56.2512 18.3916C56.2263 18.1407 56.2137 17.8888 56.2135 17.6367C56.2135 17.3918 56.2258 17.1395 56.2512 16.8819C56.2757 16.6243 56.3134 16.3973 56.3634 16.2003H62.4518H62.452ZM79.9996 23.8226C79.9996 23.1354 79.9054 22.4791 79.7178 21.852C79.5297 21.2262 79.2539 20.6806 78.891 20.2141C78.5269 19.7477 78.0643 19.3734 77.5002 19.0915C76.9369 18.8092 76.2664 18.6675 75.4902 18.6675C73.9619 18.6675 72.791 19.122 71.9766 20.0302C71.1627 20.9384 70.6681 22.2025 70.4922 23.8228H79.9996V23.8226ZM89.3578 16.0536C89.6331 16.0536 89.9083 16.0664 90.1847 16.0905C90.4373 16.112 90.6883 16.1488 90.9363 16.2005C91.011 16.5686 91.0862 17.0545 91.1614 17.6549C91.2361 18.257 91.2744 18.7658 91.2744 19.1836C91.8002 18.3493 92.4957 17.6243 93.3597 17.0105C94.2241 16.3975 95.332 16.0905 96.6852 16.0905C96.8851 16.0905 97.092 16.0961 97.305 16.1089C97.4875 16.1186 97.6694 16.1368 97.8501 16.1634C97.9014 16.3945 97.9388 16.6283 97.9623 16.8637C97.9878 17.1092 98 17.3666 98 17.637C98 17.9313 97.9812 18.2388 97.9443 18.5571C97.9082 18.8649 97.8642 19.1717 97.8124 19.4773C97.6094 19.4285 97.4011 19.404 97.1921 19.4042H96.6852C96.009 19.4042 95.3638 19.4963 94.7497 19.6802C94.1353 19.8645 93.5848 20.1896 93.096 20.6557C92.6079 21.1224 92.2193 21.7608 91.9318 22.5711C91.6436 23.3805 91.4995 24.4241 91.4995 25.6999V35.0891C91.2238 35.1374 90.9168 35.1742 90.5788 35.1991C90.2412 35.2235 89.9336 35.2359 89.6589 35.2359C89.3825 35.2359 89.0761 35.2233 88.738 35.1991C88.417 35.1762 88.0972 35.1395 87.7795 35.0891V16.2005C88.041 16.154 88.3043 16.1173 88.5686 16.0905C88.8309 16.0656 89.0943 16.0533 89.3578 16.0536ZM59.8508 0C60.2032 0.000564103 60.5498 0.0298974 60.8867 0.0851795V3.65275L63.4611 1.1299C64.0297 1.52642 64.5268 2.01349 64.9319 2.57099L62.3575 5.09366H65.9982C66.0547 5.42366 66.0847 5.76193 66.0847 6.10791V6.11619C66.0847 6.46217 66.0547 6.80101 65.9982 7.1312H62.3567L64.9319 9.65311C64.7296 9.93119 64.5044 10.1924 64.2583 10.434C64.0119 10.6752 63.7456 10.896 63.4621 11.094L60.8867 8.57154V12.1389C60.5446 12.1951 60.1984 12.2237 59.8516 12.2243H59.8424C59.4958 12.2236 59.1497 12.1951 58.8078 12.1389V8.57154L56.2334 11.094C55.6649 10.6975 55.1678 10.2104 54.7627 9.65292L57.3373 7.13101H53.6963C53.6384 6.79504 53.6093 6.45488 53.6094 6.11412V6.10961C53.6094 6.01221 53.6163 5.88923 53.6261 5.76268L53.6332 5.67807C53.6588 5.38191 53.6963 5.09347 53.6963 5.09347H57.3373L54.7627 2.5708C54.9642 2.29274 55.1893 2.03194 55.4356 1.79121C55.6823 1.54916 55.9491 1.32788 56.2334 1.12971L58.8078 3.65256V0.0851795C59.1447 0.0298974 59.4908 0.000564103 59.8437 0H59.8508ZM59.8503 4.58427H59.8445C59.3809 4.58427 58.9372 4.66757 58.5269 4.81894C58.3688 5.23142 58.2877 5.6685 58.2874 6.10923V6.11487C58.2876 6.55567 58.3689 6.99279 58.5274 7.40516C58.9484 7.56068 59.3946 7.64017 59.8443 7.63983H59.8503C60.3136 7.63983 60.7575 7.55653 61.1671 7.40516C61.3257 6.99282 61.4068 6.55565 61.4066 6.11487V6.10923C61.4066 5.65513 61.3216 5.22021 61.1671 4.81894C60.7461 4.66344 60.3 4.58394 59.8503 4.58427Z" fill="#FF4A00"/>
</g>
<defs>
<clipPath id="clip0_399_1509">
<rect width="98" height="44" fill="white"/>
</clipPath>
</defs>
</svg>
