<svg width="30" height="23" viewBox="0 0 30 23" fill="none" xmlns="http://www.w3.org/2000/svg">
<path d="M30 -3.9293e-06L30 6.56652C30 8.45493 29.6459 10.4185 28.9378 12.4571C28.2082 14.5172 27.221 16.4592 25.9764 18.2833C24.7103 20.1288 23.294 21.6845 21.7275 22.9506L16.3197 19.4421C17.5858 17.5322 18.6481 15.5365 19.5064 13.4549C20.3433 11.3948 20.7511 9.12017 20.7296 6.6309L20.7296 -4.73974e-06L30 -3.9293e-06ZM13.6803 -5.35602e-06L13.6803 6.56652C13.6803 8.45493 13.3262 10.4185 12.618 12.4571C11.8884 14.5172 10.9013 16.4592 9.65665 18.2833C8.39056 20.1288 6.97425 21.6845 5.40773 22.9506L3.0673e-07 19.4421C1.26609 17.5322 2.32833 15.5365 3.1867 13.4549C4.02361 11.3948 4.43133 9.12017 4.40987 6.6309L4.40987 -6.16646e-06L13.6803 -5.35602e-06Z" fill="black"/>
</svg>
