<svg width="96" height="104" viewBox="0 0 96 104" fill="none" xmlns="http://www.w3.org/2000/svg">
<path d="M42 96H46V102C46 103.105 45.1046 104 44 104C42.8954 104 42 103.105 42 102V96Z" fill="#E5E5E5"/>
<path d="M51 96H55V102C55 103.105 54.1046 104 53 104C51.8954 104 51 103.105 51 102V96Z" fill="#E5E5E5"/>
<g filter="url(#filter0_dddd_399_661)">
<rect width="96" height="96" rx="24" fill="white"/>
<rect x="0.5" y="0.5" width="95" height="95" rx="23.5" stroke="white"/>
</g>
<path fill-rule="evenodd" clip-rule="evenodd" d="M58.0625 36.1463H37.9375C31.4136 36.1463 26.125 41.4534 26.125 48C26.125 54.5466 31.4136 59.8537 37.9375 59.8537H58.0625C64.5864 59.8537 69.875 54.5466 69.875 48C69.875 41.4534 64.5864 36.1463 58.0625 36.1463ZM37.9375 30C28.0309 30 20 38.0589 20 48C20 57.9411 28.0309 66 37.9375 66H58.0625C67.9691 66 76 57.9411 76 48C76 38.0589 67.9691 30 58.0625 30H37.9375Z" fill="#C74634"/>
<defs>
<filter id="filter0_dddd_399_661" x="-29" y="-3" width="131" height="149" filterUnits="userSpaceOnUse" color-interpolation-filters="sRGB">
<feFlood flood-opacity="0" result="BackgroundImageFix"/>
<feColorMatrix in="SourceAlpha" type="matrix" values="0 0 0 0 0 0 0 0 0 0 0 0 0 0 0 0 0 0 127 0" result="hardAlpha"/>
<feOffset dx="-1" dy="2"/>
<feGaussianBlur stdDeviation="2.5"/>
<feColorMatrix type="matrix" values="0 0 0 0 0.811765 0 0 0 0 0.811765 0 0 0 0 0.811765 0 0 0 0.1 0"/>
<feBlend mode="normal" in2="BackgroundImageFix" result="effect1_dropShadow_399_661"/>
<feColorMatrix in="SourceAlpha" type="matrix" values="0 0 0 0 0 0 0 0 0 0 0 0 0 0 0 0 0 0 127 0" result="hardAlpha"/>
<feOffset dx="-3" dy="9"/>
<feGaussianBlur stdDeviation="4.5"/>
<feColorMatrix type="matrix" values="0 0 0 0 0.811765 0 0 0 0 0.811765 0 0 0 0 0.811765 0 0 0 0.09 0"/>
<feBlend mode="normal" in2="effect1_dropShadow_399_661" result="effect2_dropShadow_399_661"/>
<feColorMatrix in="SourceAlpha" type="matrix" values="0 0 0 0 0 0 0 0 0 0 0 0 0 0 0 0 0 0 127 0" result="hardAlpha"/>
<feOffset dx="-8" dy="20"/>
<feGaussianBlur stdDeviation="6.5"/>
<feColorMatrix type="matrix" values="0 0 0 0 0.811765 0 0 0 0 0.811765 0 0 0 0 0.811765 0 0 0 0.05 0"/>
<feBlend mode="normal" in2="effect2_dropShadow_399_661" result="effect3_dropShadow_399_661"/>
<feColorMatrix in="SourceAlpha" type="matrix" values="0 0 0 0 0 0 0 0 0 0 0 0 0 0 0 0 0 0 127 0" result="hardAlpha"/>
<feOffset dx="-14" dy="35"/>
<feGaussianBlur stdDeviation="7.5"/>
<feColorMatrix type="matrix" values="0 0 0 0 0.811765 0 0 0 0 0.811765 0 0 0 0 0.811765 0 0 0 0.01 0"/>
<feBlend mode="normal" in2="effect3_dropShadow_399_661" result="effect4_dropShadow_399_661"/>
<feBlend mode="normal" in="SourceGraphic" in2="effect4_dropShadow_399_661" result="shape"/>
</filter>
</defs>
</svg>
