<svg width="723" height="281" viewBox="0 0 723 281" fill="none" xmlns="http://www.w3.org/2000/svg">
<path d="M16 12.5H161C196.346 12.5 225 41.1538 225 76.5V76.5C225 111.846 253.654 140.5 289 140.5H433.5C468.846 140.5 497.5 111.846 497.5 76.5V76.5C497.5 41.1538 526.154 12.5 561.5 12.5H722.5" stroke="#F8F9FB" stroke-width="25"/>
<path d="M706.5 268.5L561.5 268.5C526.154 268.5 497.5 239.846 497.5 204.5V204.5C497.5 169.154 468.846 140.5 433.5 140.5L289 140.5C253.654 140.5 225 169.154 225 204.5V204.5C225 239.846 196.346 268.5 161 268.5L0 268.5" stroke="#F8F9FB" stroke-width="25"/>
<path d="M709.5 140.5L437 140.5" stroke="#F8F9FB" stroke-width="25"/>
</svg>
