<svg width="161" height="36" viewBox="0 0 161 36" fill="none" xmlns="http://www.w3.org/2000/svg">
<g clip-path="url(#clip0_399_1510)">
<path d="M24.1492 29.9796C17.5185 36.5898 -4.59831e-05 35.9641 -4.59831e-05 35.9641C-4.59831e-05 35.9641 -0.598907 18.5359 6.03908 11.9257C12.6771 5.31551 19.0264 7.04898 24.0771 12.0336C29.1277 17.0182 30.78 23.3623 24.1492 29.9796Z" fill="#4F88F7"/>
<path d="M24.8059 22.1826C20.7942 26.1818 10.2167 25.815 10.2167 25.815C10.2167 25.815 9.84875 15.2704 13.8604 11.2712C17.8721 7.27196 21.7178 8.32211 24.7409 11.3359C27.7641 14.3497 28.8175 18.1834 24.8059 22.1826Z" fill="#F58127"/>
<path d="M30.4864 14.0755C35.8513 8.7272 38.2451 2.44236 35.8332 0.0378853C33.4212 -2.36659 27.1168 0.0198287 21.7519 5.3681C16.387 10.7164 13.9931 17.0012 16.4051 19.4057C18.817 21.8102 25.1215 19.4237 30.4864 14.0755Z" fill="#B7CDE5"/>
<path d="M31.4229 19.6227C31.9189 15.1652 30.69 11.3712 28.678 11.1487C26.666 10.9262 24.6329 14.3594 24.1369 18.817C23.6409 23.2746 24.8698 27.0686 26.8817 27.291C28.8937 27.5135 30.9268 24.0803 31.4229 19.6227Z" fill="#B7CDE5"/>
<path d="M17.0446 11.7442C21.516 11.2497 24.9599 9.22292 24.7367 7.2172C24.5135 5.21149 20.7078 3.98639 16.2363 4.48088C11.7649 4.97536 8.32094 7.00217 8.54413 9.00789C8.76732 11.0136 12.5731 12.2387 17.0446 11.7442Z" fill="#B7CDE5"/>
<path d="M29.9503 8.73203C31.3888 8.73203 32.555 7.56949 32.555 6.13542C32.555 4.70136 31.3888 3.53882 29.9503 3.53882C28.5117 3.53882 27.3456 4.70136 27.3456 6.13542C27.3456 7.56949 28.5117 8.73203 29.9503 8.73203Z" fill="#F0F5FC"/>
<path d="M92.9029 13.1053C90.4642 14.81 89.6489 17.2627 90.0169 20.1183C90.0988 21.3933 90.5519 22.6167 91.3209 23.6388C92.0898 24.6609 93.1411 25.4372 94.346 25.8725C95.5982 26.397 96.9736 26.5585 98.3138 26.3384C99.654 26.1182 100.905 25.5255 101.922 24.6282C102.56 24.0997 103.073 23.4363 103.423 22.6861L101.2 21.8158C100.581 22.7366 99.6718 23.4253 98.616 23.7731C97.5602 24.121 96.4181 24.108 95.3705 23.7363C94.6184 23.4964 93.9557 23.0371 93.4682 22.4177C92.9807 21.7984 92.6908 21.0475 92.636 20.2621H103.899C104.124 18.5794 103.838 16.868 103.076 15.3495C101.013 11.4222 95.89 11.0122 92.9029 13.1053ZM92.6576 17.9964C92.8163 15.781 94.6274 14.2849 97.095 14.2993C98.137 14.2546 99.1561 14.6127 99.9398 15.2988C100.724 15.9849 101.211 16.9461 101.301 17.982L92.6576 17.9964Z" fill="#424242"/>
<path d="M56.2785 11.9689C55.3175 11.9488 54.3624 12.1242 53.4717 12.4845C52.581 12.8448 51.7733 13.3823 51.098 14.0642C50.4227 14.7462 49.894 15.5582 49.5442 16.4507C49.1943 17.3433 49.0307 18.2975 49.0633 19.2552C49.0666 20.2074 49.258 21.1495 49.6265 22.0279C49.9951 22.9063 50.5336 23.7037 51.2113 24.3746C51.889 25.0455 52.6926 25.5768 53.5763 25.9381C54.46 26.2994 55.4063 26.4837 56.3614 26.4804C57.3165 26.4771 58.2616 26.2863 59.1428 25.9189C60.0239 25.5514 60.8238 25.0146 61.4968 24.339C62.1698 23.6634 62.7027 22.8623 63.0652 21.9814C63.4276 21.1005 63.6124 20.157 63.6091 19.2049C63.6333 18.2419 63.4597 17.2842 63.0989 16.3907C62.7382 15.4971 62.1979 14.6865 61.5113 14.0088C60.8246 13.331 60.0062 12.8004 59.1064 12.4497C58.2065 12.0989 57.2441 11.9353 56.2785 11.9689ZM56.2785 24.0816C55.6495 24.0764 55.028 23.945 54.451 23.6954C53.874 23.4459 53.3532 23.0831 52.9197 22.6288C52.4862 22.1745 52.1487 21.6379 51.9275 21.0509C51.7063 20.4639 51.6057 19.8386 51.6319 19.2121C51.6347 18.5981 51.7588 17.9907 51.9972 17.4245C52.2355 16.8584 52.5833 16.3446 53.0208 15.9124C53.9044 15.0397 55.0996 14.5526 56.3434 14.5583C56.9593 14.5612 57.5686 14.6849 58.1365 14.9225C58.7044 15.16 59.2198 15.5068 59.6533 15.943C60.0868 16.3791 60.4299 16.8961 60.6629 17.4644C60.896 18.0327 61.0145 18.6413 61.0116 19.2552C61.0291 19.8847 60.9193 20.5112 60.689 21.0975C60.4587 21.6838 60.1125 22.218 59.6709 22.6682C59.2293 23.1185 58.7015 23.4756 58.1187 23.7184C57.5359 23.9612 56.9101 24.0847 56.2785 24.0816Z" fill="#424242"/>
<path d="M69.1938 7.02734H66.6035V12.2277V14.4431V26.0379H69.1938V14.4431H72.3324V12.2277H69.1938V7.02734Z" fill="#424242"/>
<path d="M158.446 12.2278C158.338 12.2278 158.179 12.4148 158.128 12.5443C157.832 13.3211 157.558 14.1051 157.277 14.8891L154.715 22.0172C154.622 21.787 154.557 21.636 154.499 21.4849C153.431 18.5455 152.368 15.6012 151.31 12.6522C151.194 12.3357 151.057 12.1774 150.689 12.2062C150.146 12.235 149.602 12.235 149.059 12.2062C148.705 12.2062 148.554 12.3213 148.438 12.6522C147.493 15.3351 146.519 18.018 145.552 20.7009C145.408 21.1181 145.249 21.5353 145.069 22.0172C144.975 21.7655 144.903 21.5928 144.838 21.4202C143.784 18.4927 142.738 15.5581 141.67 12.6306C141.613 12.4723 141.454 12.2422 141.331 12.235C140.502 12.199 139.665 12.235 138.77 12.235C138.77 12.3716 138.813 12.4292 138.835 12.4867C140.533 16.9223 142.216 21.3579 143.885 25.7934C143.908 25.8884 143.966 25.9712 144.048 26.0248C144.13 26.0783 144.229 26.0985 144.326 26.0811C144.775 26.056 145.225 26.056 145.675 26.0811C145.744 26.0957 145.816 26.0962 145.885 26.0826C145.955 26.069 146.021 26.0416 146.079 26.0019C146.138 25.9623 146.188 25.9113 146.226 25.852C146.265 25.7927 146.291 25.7263 146.303 25.6568C147.392 22.5567 148.51 19.471 149.622 16.378C149.672 16.227 149.737 16.0759 149.824 15.8386C149.917 16.0616 149.975 16.191 150.026 16.3277L153.099 24.4556C153.294 24.9734 153.352 25.6999 153.727 25.9517C154.102 26.2034 154.831 26.0164 155.401 26.0596C155.47 26.0741 155.542 26.0746 155.611 26.061C155.681 26.0474 155.747 26.02 155.805 25.9804C155.864 25.9407 155.914 25.8898 155.952 25.8305C155.991 25.7711 156.017 25.7047 156.029 25.6352C157.635 21.3195 159.251 16.987 160.877 12.6378C160.926 12.4987 160.967 12.357 161 12.2134C160.112 12.2278 159.275 12.2278 158.446 12.2278Z" fill="#424242"/>
<path d="M129.874 11.8754C128.912 11.8563 127.957 12.0326 127.066 12.3937C126.176 12.7548 125.368 13.293 124.693 13.9755C124.018 14.658 123.489 15.4705 123.139 16.3634C122.789 17.2563 122.626 18.2109 122.658 19.1689C122.665 21.0918 123.438 22.9333 124.806 24.2883C126.175 25.6433 128.028 26.4008 129.957 26.3941C131.885 26.3874 133.733 25.6171 135.092 24.2527C136.451 22.8883 137.211 21.0415 137.204 19.1186C137.228 18.1553 137.055 17.1973 136.694 16.3033C136.333 15.4094 135.793 14.5984 135.107 13.9201C134.42 13.2418 133.602 12.7105 132.702 12.3589C131.802 12.0073 130.84 11.8427 129.874 11.8754ZM129.874 23.9953C129.245 23.99 128.623 23.8587 128.046 23.6091C127.469 23.3595 126.948 22.9968 126.515 22.5425C126.081 22.0882 125.744 21.5515 125.523 20.9646C125.301 20.3776 125.201 19.7522 125.227 19.1257C125.229 18.5118 125.353 17.9043 125.591 17.3379C125.829 16.7716 126.176 16.2575 126.613 15.8251C127.051 15.3926 127.569 15.0502 128.139 14.8174C128.709 14.5846 129.319 14.466 129.935 14.4684C130.551 14.4708 131.16 14.594 131.728 14.8312C132.296 15.0683 132.812 15.4147 133.246 15.8505C133.68 16.2863 134.023 16.803 134.257 17.3712C134.49 17.9393 134.609 18.5477 134.607 19.1617C134.623 19.7912 134.513 20.4176 134.282 21.0039C134.052 21.5902 133.705 22.1244 133.264 22.575C132.823 23.0256 132.295 23.3835 131.713 23.6274C131.131 23.8714 130.505 23.9965 129.874 23.9953Z" fill="#424242"/>
<path d="M83.8118 12.2278V26.038H86.3443V12.2278H84.2375H83.8118Z" fill="#424242"/>
<path d="M85.0744 5.40896C84.8489 5.40896 84.6256 5.45324 84.4172 5.53927C84.2089 5.6253 84.0196 5.7514 83.8601 5.91036C83.7007 6.06932 83.5742 6.25804 83.4879 6.46574C83.4016 6.67343 83.3572 6.89604 83.3572 7.12085C83.3572 7.34566 83.4016 7.56826 83.4879 7.77596C83.5742 7.98365 83.7007 8.17237 83.8601 8.33134C84.0196 8.4903 84.2089 8.6164 84.4172 8.70243C84.6256 8.78846 84.8489 8.83274 85.0744 8.83274C85.3101 8.84334 85.5456 8.80679 85.7669 8.72524C85.9883 8.64369 86.191 8.51879 86.3631 8.35791C86.5353 8.19702 86.6733 8.00341 86.7692 7.78848C86.8651 7.57355 86.9169 7.34165 86.9215 7.10646C86.9009 6.63771 86.695 6.19612 86.349 5.87809C86.0029 5.56006 85.5447 5.39141 85.0744 5.40896Z" fill="#424242"/>
<path d="M77.8953 7.02026H75.2979V12.2279V14.4432V26.038H77.8953V14.4432H81.0267V12.2279H77.8953V7.02026Z" fill="#424242"/>
<path d="M46.0546 5.67529H43.3994V26.0309H46.0546V5.67529Z" fill="#424242"/>
<path d="M116.533 4.70421V26.0309H119.051V4.74737C119 4.74737 118.993 4.69702 118.979 4.69702L116.533 4.70421Z" fill="#424242"/>
<path d="M108.163 7.55966C107.743 8.69068 107.552 9.89344 107.6 11.0985V12.2278V14.4432V26.0452H110.183C110.183 23.7291 110.183 18.4783 110.183 14.4432H113.308V12.2278H110.205C110.205 10.6382 110.255 9.49453 110.292 9.2212C110.335 8.71045 110.559 8.23164 110.924 7.87053C111.288 7.50942 111.77 7.28958 112.283 7.25037C112.875 7.18564 113.466 7.15687 114.065 7.14248V4.71851C113.344 4.71851 112.622 4.71851 111.901 4.78324C111.07 4.81864 110.269 5.10238 109.603 5.59755C108.936 6.09272 108.435 6.7764 108.163 7.55966Z" fill="#424242"/>
</g>
<defs>
<clipPath id="clip0_399_1510">
<rect width="161" height="36" fill="white"/>
</clipPath>
</defs>
</svg>
