<svg width="33" height="33" viewBox="0 0 33 33" fill="none" xmlns="http://www.w3.org/2000/svg">
<path fill-rule="evenodd" clip-rule="evenodd" d="M2.74996 16.5C2.74996 8.90607 8.90604 2.74999 16.5 2.74999C24.0939 2.74999 30.25 8.90607 30.25 16.5C30.25 24.0939 24.0939 30.25 16.5 30.25C8.90604 30.25 2.74996 24.0939 2.74996 16.5ZM17.875 7.56249V9.79503C18.9805 10.0748 19.956 10.69 20.5918 11.5693L21.3975 12.6835L19.169 14.2949L18.3634 13.1807C18.0646 12.7675 17.3984 12.375 16.5 12.375H16.118C14.8877 12.375 14.4375 13.1243 14.4375 13.4444V13.5494C14.4375 13.8206 14.6425 14.2761 15.3347 14.553L18.6865 15.8937C20.1536 16.4805 21.3125 17.7906 21.3125 19.4506C21.3125 21.476 19.6941 22.8448 17.875 23.2499V25.4375H15.125V23.205C14.0194 22.9252 13.0439 22.31 12.4081 21.4307L11.6024 20.3164L13.8309 18.7051L14.6366 19.8193C14.9353 20.2324 15.6015 20.625 16.5 20.625H16.7507C18.0535 20.625 18.5625 19.8287 18.5625 19.4506C18.5625 19.1794 18.3574 18.7239 17.6652 18.447L14.3134 17.1063C12.8463 16.5195 11.6875 15.2094 11.6875 13.5494V13.4444C11.6875 11.4314 13.3228 10.0912 15.125 9.72579V7.56249H17.875Z" fill="#2959FF"/>
</svg>
