<svg width="104" height="100" viewBox="0 0 104 100" fill="none" xmlns="http://www.w3.org/2000/svg">
<g filter="url(#filter0_dddd_399_616)">
<rect x="8" y="4" width="96" height="96" rx="24" fill="white"/>
<rect x="8.5" y="4.5" width="95" height="95" rx="23.5" stroke="white"/>
</g>
<path d="M62.3261 43.9133H63.6876L67.568 40.0249L67.7586 38.374C65.5357 36.4079 62.8493 35.0421 59.9532 34.4057C57.0571 33.7693 54.0469 33.8832 51.2069 34.7366C48.367 35.5901 45.791 37.155 43.7224 39.2835C41.6538 41.412 40.1608 44.0338 39.3845 46.9012C39.8168 46.7236 40.2957 46.6948 40.746 46.8193L48.5067 45.5368C48.5067 45.5368 48.9015 44.8819 49.1058 44.9229C50.7686 43.0928 53.0667 41.9689 55.5294 41.7812C57.9922 41.5935 60.4334 42.3563 62.3533 43.9133H62.3261Z" fill="#EA4335"/>
<path d="M73.0957 46.9012C72.2038 43.6099 70.3726 40.6511 67.8266 38.3877L62.3806 43.8451C63.5156 44.7744 64.4252 45.9499 65.0408 47.2829C65.6563 48.6159 65.9618 50.0715 65.9341 51.54V52.5087C66.5706 52.5087 67.2009 52.6344 67.789 52.8784C68.3771 53.1225 68.9114 53.4803 69.3615 53.9313C69.8116 54.3823 70.1686 54.9178 70.4122 55.5071C70.6558 56.0964 70.7811 56.728 70.7811 57.3658C70.7811 58.0036 70.6558 58.6352 70.4122 59.2245C70.1686 59.8138 69.8116 60.3493 69.3615 60.8003C68.9114 61.2513 68.3771 61.6091 67.789 61.8532C67.2009 62.0973 66.5706 62.2229 65.9341 62.2229H56.2401L55.2734 63.2052V69.031L56.2401 69.9997H65.9341C68.6412 70.0208 71.2831 69.1682 73.4691 67.5681C75.6551 65.968 77.269 63.7052 78.0722 61.1147C78.8754 58.5241 78.8252 55.7432 77.929 53.1835C77.0327 50.6237 75.3381 48.421 73.0957 46.9012Z" fill="#4285F4"/>
<path d="M46.5323 69.9461H56.2263V62.1693H46.5323C45.8416 62.1691 45.1591 62.0202 44.5308 61.7327L43.1693 62.1556L39.2618 66.044L38.9214 67.4084C41.1127 69.0665 43.7865 69.958 46.5323 69.9461Z" fill="#34A853"/>
<path d="M46.5324 44.7179C43.9057 44.7336 41.3496 45.571 39.221 47.1131C37.0924 48.6552 35.4975 50.8251 34.6593 53.3196C33.821 55.814 33.7812 58.5086 34.5453 61.0269C35.3094 63.5452 36.8394 65.7614 38.9215 67.3661L44.5445 61.7313C43.83 61.4078 43.2044 60.9154 42.7215 60.2963C42.2385 59.6773 41.9127 58.9501 41.7719 58.1771C41.6311 57.4041 41.6796 56.6084 41.9132 55.8583C42.1467 55.1082 42.5584 54.4261 43.1128 53.8705C43.6673 53.3149 44.348 52.9024 45.0965 52.6684C45.845 52.4343 46.6391 52.3858 47.4104 52.5268C48.1818 52.6679 48.9075 52.9944 49.5253 53.4783C50.1431 53.9623 50.6344 54.5892 50.9573 55.3052L56.5804 49.6704C55.4001 48.1243 53.879 46.8727 52.1359 46.0135C50.3927 45.1544 48.4749 44.7109 46.5324 44.7179Z" fill="#FBBC05"/>
<path d="M49 2C49 0.895431 49.8954 -1.06779e-08 51 -2.38498e-08C52.1046 -3.70216e-08 53 0.89543 53 2L53 8L49 8L49 2Z" fill="#E5E5E5"/>
<path d="M58 2C58 0.895431 58.8954 -1.06779e-08 60 -2.38498e-08C61.1046 -3.70216e-08 62 0.89543 62 2L62 8L58 8L58 2Z" fill="#E5E5E5"/>
<path d="M2 62C0.895431 62 0 61.1046 0 60C0 58.8954 0.895431 58 2 58H8V62H2Z" fill="#E5E5E5"/>
<path d="M2 53C0.895431 53 0 52.1046 0 51C0 49.8954 0.895431 49 2 49H8V53H2Z" fill="#E5E5E5"/>
<defs>
<filter id="filter0_dddd_399_616" x="-21" y="1" width="131" height="149" filterUnits="userSpaceOnUse" color-interpolation-filters="sRGB">
<feFlood flood-opacity="0" result="BackgroundImageFix"/>
<feColorMatrix in="SourceAlpha" type="matrix" values="0 0 0 0 0 0 0 0 0 0 0 0 0 0 0 0 0 0 127 0" result="hardAlpha"/>
<feOffset dx="-1" dy="2"/>
<feGaussianBlur stdDeviation="2.5"/>
<feColorMatrix type="matrix" values="0 0 0 0 0.811765 0 0 0 0 0.811765 0 0 0 0 0.811765 0 0 0 0.1 0"/>
<feBlend mode="normal" in2="BackgroundImageFix" result="effect1_dropShadow_399_616"/>
<feColorMatrix in="SourceAlpha" type="matrix" values="0 0 0 0 0 0 0 0 0 0 0 0 0 0 0 0 0 0 127 0" result="hardAlpha"/>
<feOffset dx="-3" dy="9"/>
<feGaussianBlur stdDeviation="4.5"/>
<feColorMatrix type="matrix" values="0 0 0 0 0.811765 0 0 0 0 0.811765 0 0 0 0 0.811765 0 0 0 0.09 0"/>
<feBlend mode="normal" in2="effect1_dropShadow_399_616" result="effect2_dropShadow_399_616"/>
<feColorMatrix in="SourceAlpha" type="matrix" values="0 0 0 0 0 0 0 0 0 0 0 0 0 0 0 0 0 0 127 0" result="hardAlpha"/>
<feOffset dx="-8" dy="20"/>
<feGaussianBlur stdDeviation="6.5"/>
<feColorMatrix type="matrix" values="0 0 0 0 0.811765 0 0 0 0 0.811765 0 0 0 0 0.811765 0 0 0 0.05 0"/>
<feBlend mode="normal" in2="effect2_dropShadow_399_616" result="effect3_dropShadow_399_616"/>
<feColorMatrix in="SourceAlpha" type="matrix" values="0 0 0 0 0 0 0 0 0 0 0 0 0 0 0 0 0 0 127 0" result="hardAlpha"/>
<feOffset dx="-14" dy="35"/>
<feGaussianBlur stdDeviation="7.5"/>
<feColorMatrix type="matrix" values="0 0 0 0 0.811765 0 0 0 0 0.811765 0 0 0 0 0.811765 0 0 0 0.01 0"/>
<feBlend mode="normal" in2="effect3_dropShadow_399_616" result="effect4_dropShadow_399_616"/>
<feBlend mode="normal" in="SourceGraphic" in2="effect4_dropShadow_399_616" result="shape"/>
</filter>
</defs>
</svg>
