<svg width="39" height="42" viewBox="0 0 39 42" fill="none" xmlns="http://www.w3.org/2000/svg">
<g clip-path="url(#clip0_399_1560)">
<path d="M28.916 33.1597L30.5109 32.2388L29.6658 30.2557L27.8732 30.7045C27.4438 30.0944 26.9003 29.5542 26.2545 29.122L26.7145 27.3732L24.6783 26.5537L23.7377 28.1046C22.9676 27.9667 22.1889 27.9717 21.4442 28.1046L20.5002 26.5537L18.4691 27.3732L18.9292 29.122C18.3038 29.5459 17.7501 30.0745 17.307 30.7012L15.5179 30.2573L14.6744 32.2405L16.2642 33.1614C16.1228 33.9128 16.1313 34.6675 16.2642 35.3956L14.6744 36.3165L15.5179 38.3029L17.3104 37.8541C17.7398 38.4592 18.2834 39.0011 18.9258 39.4366L18.4708 41.1821L20.5019 42.0016L21.4459 40.4506C22.2161 40.5886 22.9897 40.5836 23.7343 40.4506L24.6783 42.0016L26.7145 41.1821L26.2545 39.4333C26.8798 39.0127 27.4302 38.4808 27.8766 37.8541L29.6658 38.3029L30.5109 36.3165L28.9212 35.3989C29.0626 34.6442 29.0524 33.8878 28.916 33.1614V33.1597ZM24.9953 35.2476C24.4449 36.5475 22.9216 37.1626 21.5925 36.6257C20.2634 36.0887 19.6295 34.6026 20.1799 33.306C20.7354 32.0094 22.2587 31.391 23.5878 31.928C24.9169 32.4649 25.5456 33.951 24.9953 35.2476Z" fill="white"/>
<path d="M36.8514 21.7346L37.734 20.5876L36.4987 19.3841L35.3246 20.2435C34.8203 19.9244 34.2529 19.6883 33.6463 19.562L33.4401 18.144H31.6918L31.4856 19.562C30.879 19.69 30.3099 19.9227 29.8056 20.2402L28.6315 19.3841L27.3979 20.586L28.2788 21.7313C27.9534 22.2267 27.7114 22.7786 27.5802 23.3687L26.1318 23.5732V25.277L27.5819 25.4815C27.7131 26.0733 27.9534 26.6252 28.2771 27.1189L27.3996 28.2642L28.6366 29.471L29.8107 28.6116C30.315 28.9275 30.8807 29.1635 31.4873 29.2932L31.6969 30.7061H33.4418L33.6514 29.2899C34.258 29.1619 34.8254 28.9308 35.3281 28.6116L36.5021 29.4677L37.7391 28.2642L36.8582 27.1189C37.1854 26.6268 37.4239 26.0716 37.5568 25.4815L39.0069 25.2804V23.5748L37.5568 23.3737C37.4256 22.7786 37.1837 22.2283 36.8565 21.7363L36.8514 21.7346ZM34.9856 24.4259C34.9856 25.7342 33.9018 26.7914 32.5625 26.7914C31.2249 26.7914 30.1378 25.7342 30.1378 24.4292C30.1412 23.1227 31.2249 22.0621 32.5642 22.0621C33.9018 22.0621 34.9856 23.121 34.9856 24.4259Z" fill="white"/>
<path d="M4.84607 37.8907V22.5791L7.13788 23.2457V35.6515H13.3062V37.8907H4.84607Z" fill="white"/>
<path d="M29.4476 16.9838V7.61003H25.9852L24.2727 5.37256H31.7411V16.9838H29.4476Z" fill="white"/>
<path d="M13.7679 26.8547C6.34551 26.8547 0.172099 20.9634 0.00851975 13.7241C0.00851975 13.7241 0 13.5063 0 13.4315C0 6.02589 6.17682 0 13.7679 0C21.359 0 27.5358 6.02589 27.5358 13.4315C27.5358 13.4947 27.529 13.7241 27.529 13.7241C27.3637 20.9651 21.1903 26.8563 13.7679 26.8563V26.8547ZM14.5602 24.3728C15.9524 23.4635 17.1434 22.3249 18.1045 20.9817C16.9662 20.5445 15.7752 20.2835 14.5602 20.2038V24.3728ZM9.43136 20.9801C10.3924 22.3215 11.5817 23.4602 12.9756 24.3695V20.2038C11.759 20.2835 10.5679 20.5445 9.43136 20.9817V20.9801ZM6.72378 22.4462C7.79727 23.2458 8.97981 23.8475 10.251 24.2398C9.39387 23.4669 8.6305 22.6008 7.97789 21.6533C7.54679 21.8893 7.12762 22.1553 6.72549 22.4462H6.72378ZM19.5596 21.6533C18.907 22.5991 18.1454 23.4669 17.29 24.2382C18.5611 23.8442 19.742 23.2441 20.812 22.4462C20.4082 22.1553 19.989 21.8893 19.5596 21.6533ZM2.16061 14.1962C2.34975 16.9124 3.53229 19.459 5.50887 21.4056C6.03709 21.0033 6.59088 20.6409 7.1617 20.3268C6.13933 18.4434 5.54295 16.3322 5.42878 14.1978H2.16061V14.1962ZM20.3758 20.3251C20.9467 20.6409 21.5004 21.0033 22.0287 21.4039C24.0052 19.459 25.1878 16.9107 25.3752 14.1945H22.1087C21.9946 16.3289 21.3982 18.44 20.3758 20.3234V20.3251ZM14.5602 18.6512C16.0734 18.7376 17.5456 19.0701 18.9445 19.6419C19.8595 17.9696 20.4014 16.0945 20.5138 14.1962H14.5602V18.6528V18.6512ZM7.02198 14.1945C7.13614 16.0929 7.67629 17.9679 8.59302 19.6402C9.99196 19.0701 11.4642 18.7376 12.9773 18.6512V14.1945H7.02198ZM25.3752 12.6569C25.1861 9.94063 24.0035 7.39397 22.0287 5.4474C21.5021 5.84968 20.9467 6.21206 20.3758 6.52624C21.3982 8.40964 21.9946 10.5224 22.1087 12.6552H25.3752V12.6569ZM20.5156 12.6569C20.4014 10.7585 19.8612 8.8834 18.9462 7.21111C17.549 7.78129 16.0751 8.11375 14.562 8.20185V12.6585H20.5156V12.6569ZM12.9756 12.6569V8.20019C11.4625 8.11375 9.99026 7.78129 8.59131 7.21111C7.67459 8.8834 7.13444 10.7585 7.02027 12.6569H12.9739H12.9756ZM5.42708 12.6569C5.54124 10.5224 6.13933 8.4113 7.16 6.5279C6.59088 6.21373 6.03539 5.85134 5.50716 5.44906C3.53058 7.39397 2.34804 9.94229 2.1589 12.6585H5.42708V12.6569ZM9.43136 5.87295C10.5696 6.31014 11.759 6.57112 12.9756 6.65091V2.48516C11.5834 3.39444 10.3924 4.53313 9.43136 5.87461V5.87295ZM14.5602 6.65091C15.7769 6.57112 16.9679 6.31014 18.1045 5.87295C17.1417 4.5298 15.9524 3.39112 14.5602 2.48183V6.65091ZM6.72378 4.40845C7.12762 4.69936 7.54679 4.96699 7.97619 5.20138C8.6305 4.25386 9.39217 3.38613 10.2493 2.61482C8.97811 3.00712 7.79557 3.60888 6.72208 4.40845H6.72378ZM17.2883 2.61648C18.1437 3.38779 18.9053 4.25552 19.5579 5.20138C19.9873 4.96699 20.4065 4.70102 20.8103 4.40845C19.7403 3.61054 18.5594 3.00879 17.2883 2.61648Z" fill="white"/>
</g>
<defs>
<clipPath id="clip0_399_1560">
<rect width="39" height="42" fill="white"/>
</clipPath>
</defs>
</svg>
