<svg width="132" height="44" viewBox="0 0 132 44" fill="none" xmlns="http://www.w3.org/2000/svg">
<g clip-path="url(#clip0_399_1507)">
<path d="M111.901 27.78L112.224 26.6777C112.608 25.3663 112.465 24.1541 111.82 23.2634C111.227 22.443 110.238 21.9599 109.037 21.9038L86.2885 21.6192C86.2179 21.6179 86.1486 21.6001 86.0863 21.5674C86.0238 21.5346 85.9703 21.4879 85.9296 21.4309C85.8899 21.3719 85.8644 21.3046 85.8554 21.2343C85.8467 21.164 85.8546 21.0926 85.8785 21.0258C85.9175 20.9156 85.9883 20.8192 86.0822 20.7484C86.1762 20.6776 86.2889 20.6355 86.4069 20.6273L109.366 20.3397C112.089 20.2161 115.038 18.0332 116.071 15.3713L117.38 11.992C117.433 11.849 117.446 11.6942 117.415 11.5448C115.929 4.93947 109.961 0 102.825 0C96.2503 0 90.668 4.1916 88.6656 10.0177C87.3125 9.01447 85.6254 8.5533 83.9428 8.72648C80.7886 9.03587 78.2525 11.5443 77.9403 14.6604C77.8602 15.4385 77.9188 16.2245 78.1137 16.9825C72.9611 17.1309 68.829 21.3007 68.829 26.4264C68.8296 26.884 68.8638 27.3409 68.9314 27.7937C68.9463 27.8982 68.9987 27.994 69.0792 28.0635C69.1596 28.1331 69.2629 28.1717 69.3697 28.1724L111.367 28.1776C111.371 28.1778 111.375 28.1778 111.379 28.1776C111.498 28.1754 111.613 28.1357 111.707 28.0642C111.801 27.9925 111.869 27.893 111.901 27.78Z" fill="#F6821F"/>
<path d="M119.48 12.2371C119.269 12.2371 119.059 12.2423 118.85 12.2528C118.816 12.2551 118.783 12.2623 118.751 12.274C118.696 12.2925 118.647 12.3239 118.607 12.3654C118.567 12.407 118.538 12.4575 118.522 12.5125L117.628 15.5643C117.243 16.8758 117.386 18.087 118.032 18.9776C118.625 19.7989 119.614 20.281 120.814 20.3372L125.664 20.6248C125.732 20.627 125.799 20.6449 125.859 20.6771C125.919 20.7093 125.97 20.7548 126.009 20.8101C126.05 20.8694 126.075 20.9371 126.084 21.0079C126.093 21.0787 126.085 21.1506 126.061 21.2177C126.022 21.3277 125.951 21.4239 125.857 21.4947C125.764 21.5655 125.651 21.6077 125.533 21.6162L120.495 21.9038C117.759 22.0285 114.811 24.2103 113.779 26.8722L113.415 27.812C113.4 27.8512 113.394 27.8935 113.399 27.9353C113.404 27.9771 113.418 28.0175 113.442 28.0526C113.465 28.0877 113.496 28.1169 113.533 28.1378C113.57 28.1583 113.612 28.1703 113.655 28.172C113.659 28.172 113.663 28.172 113.668 28.172H131.006C131.107 28.1729 131.205 28.1412 131.286 28.0816C131.367 28.022 131.426 27.9381 131.454 27.8423C131.761 26.7597 131.916 25.6406 131.915 24.5161C131.913 17.735 126.346 12.2371 119.48 12.2371Z" fill="#FBAD41"/>
<path d="M14.6821 33.2471H17.64V41.2286H22.8088V43.7884H14.6821V33.2471Z" fill="#222222"/>
<path d="M25.8722 38.548V38.5181C25.8722 35.4912 28.342 33.0359 31.6352 33.0359C34.9284 33.0359 37.3674 35.4609 37.3674 38.4878V38.5181C37.3674 41.545 34.8971 43.9988 31.605 43.9988C28.3129 43.9988 25.8722 41.5749 25.8722 38.548ZM34.3485 38.548V38.5181C34.3485 36.9991 33.2361 35.6713 31.605 35.6713C29.9888 35.6713 28.906 36.9666 28.906 38.4878V38.5181C28.906 40.0373 30.019 41.3645 31.6352 41.3645C33.2664 41.3645 34.3485 40.0692 34.3485 38.548Z" fill="#222222"/>
<path d="M40.9875 39.1653V33.2466H43.9911V39.1055C43.9911 40.6245 44.7688 41.3491 45.9575 41.3491C47.1464 41.3491 47.9239 40.6566 47.9239 39.1805V33.2466H50.9279V39.0884C50.9279 42.492 48.9615 43.9821 45.9272 43.9821C42.893 43.9821 40.9875 42.4632 40.9875 39.1638" fill="#222222"/>
<path d="M55.4545 33.2476H59.5708C63.3828 33.2476 65.5932 35.4159 65.5932 38.4575V38.4883C65.5932 41.5295 63.3521 43.7889 59.5103 43.7889H55.4545V33.2476ZM59.6171 41.1975C61.3861 41.1975 62.559 40.2353 62.559 38.5315V38.5015C62.559 36.8155 61.3861 35.8362 59.6171 35.8362H58.4124V41.1983L59.6171 41.1975Z" fill="#222222"/>
<path d="M69.8921 33.2471H78.4296V35.8077H72.85V37.5992H77.8963V40.0235H72.85V43.7884H69.8921V33.2471Z" fill="#222222"/>
<path d="M82.5454 33.2471H85.5031V41.2286H90.672V43.7884H82.5454V33.2471Z" fill="#222222"/>
<path d="M98.401 33.1716H101.251L105.795 43.7884H102.624L101.846 41.9057H97.7289L96.9672 43.7884H93.8571L98.401 33.1716ZM100.992 39.6323L99.803 36.6351L98.5983 39.6323H100.992Z" fill="#222222"/>
<path d="M109.605 33.2466H114.651C116.283 33.2466 117.411 33.6688 118.127 34.3914C118.753 34.994 119.073 35.8092 119.073 36.8468V36.8765C119.073 38.4873 118.202 39.5568 116.877 40.1136L119.424 43.7888H116.008L113.858 40.5957H112.563V43.7888H109.605V33.2466ZM114.514 38.307C115.521 38.307 116.1 37.825 116.1 37.0568V37.0269C116.1 36.1985 115.49 35.7773 114.498 35.7773H112.563V38.309L114.514 38.307Z" fill="#222222"/>
<path d="M123.341 33.2471H131.924V35.7323H126.268V37.3278H131.391V39.6323H126.268V41.3041H132V43.7884H123.341V33.2471Z" fill="#222222"/>
<path d="M8.20615 39.7835C7.79195 40.7086 6.92046 41.3639 5.76244 41.3639C4.14561 41.3639 3.03322 40.0387 3.03322 38.5177V38.4874C3.03322 36.9682 4.11537 35.671 5.73169 35.671C6.95019 35.671 7.87805 36.4114 8.26971 37.4184H11.3875C10.8882 34.9095 8.65622 33.0364 5.76244 33.0364C2.46882 33.0364 0 35.4932 0 38.5177V38.5476C0 41.5745 2.43858 44 5.73169 44C8.54858 44 10.7503 42.1983 11.3311 39.784L8.20615 39.7835Z" fill="#222222"/>
</g>
<defs>
<clipPath id="clip0_399_1507">
<rect width="132" height="44" fill="white"/>
</clipPath>
</defs>
</svg>
