<svg width="320" height="32" viewBox="0 0 320 32" fill="none" xmlns="http://www.w3.org/2000/svg">
<rect x="0.5" y="0.5" width="70" height="31" rx="3.5" fill="#C6DDF5"/>
<rect x="0.5" y="0.5" width="70" height="31" rx="3.5" stroke="#2959FF"/>
<circle cx="18" cy="16" r="5" fill="#2959FF" stroke="white" stroke-width="2"/>
<path d="M39.125 13.924C39.125 14.2369 39.1671 14.4873 39.2091 14.675C39.2721 14.8628 39.3562 15.0505 39.4822 15.28C39.5243 15.3426 39.5453 15.4052 39.5453 15.4678C39.5453 15.5512 39.5032 15.6347 39.3772 15.7181L38.8519 16.0728C38.7679 16.1145 38.7048 16.1562 38.6418 16.1562C38.5577 16.1562 38.4737 16.1145 38.3897 16.031C38.2636 15.9059 38.1795 15.7807 38.0955 15.6347C38.0115 15.4886 37.9274 15.3426 37.8434 15.134C37.192 15.9059 36.3726 16.2814 35.3641 16.2814C34.6497 16.2814 34.1034 16.0728 33.6832 15.6764C33.2629 15.28 33.0528 14.7376 33.0528 14.07C33.0528 13.3607 33.305 12.7766 33.8092 12.3594C34.3135 11.9422 35.0069 11.7127 35.8683 11.7127C36.1625 11.7127 36.4566 11.7335 36.7508 11.7753C37.066 11.817 37.3811 11.8796 37.7173 11.963V11.358C37.7173 10.7322 37.5912 10.2732 37.3181 10.0229C37.0449 9.77256 36.6037 9.64739 35.9524 9.64739C35.6582 9.64739 35.3641 9.68911 35.0489 9.75169C34.7337 9.83514 34.4396 9.91859 34.1454 10.0438C34.0193 10.0855 33.9143 10.1272 33.8512 10.1481C33.7882 10.1481 33.7462 10.1689 33.7252 10.1689C33.5991 10.1689 33.5571 10.0855 33.5571 9.91859V9.50136C33.5571 9.37619 33.5781 9.27188 33.6201 9.20929C33.6621 9.14671 33.7462 9.08412 33.8512 9.0424C34.1454 8.89637 34.5026 8.7712 34.9018 8.66689C35.322 8.56258 35.7423 8.5 36.2045 8.5C37.213 8.5 37.9274 8.72948 38.4107 9.16757C38.8729 9.62653 39.104 10.2941 39.104 11.2329L39.125 13.924ZM35.7212 15.1966C35.9944 15.1966 36.2885 15.1548 36.5827 15.0505C36.8769 14.9462 37.15 14.7585 37.3811 14.5081C37.5072 14.3412 37.6122 14.1743 37.6753 13.9657C37.7173 13.7571 37.7593 13.5276 37.7593 13.2356V12.8809C37.5072 12.8183 37.2551 12.7766 36.9819 12.7349C36.7088 12.6932 36.4566 12.6932 36.1835 12.6932C35.6162 12.6932 35.217 12.7975 34.9228 13.027C34.6497 13.2564 34.5026 13.5694 34.5026 13.9866C34.5026 14.383 34.6076 14.675 34.8178 14.8628C35.0279 15.1131 35.322 15.1966 35.7212 15.1966ZM42.4658 16.1145C42.3187 16.1145 42.2137 16.0936 42.1506 16.031C42.0876 15.9893 42.0246 15.8641 41.9826 15.6972L40.0075 9.23016C39.9655 9.06326 39.9235 8.95895 39.9235 8.89637C39.9235 8.7712 39.9865 8.68775 40.1336 8.68775H40.953C41.1211 8.68775 41.2262 8.70862 41.2892 8.7712C41.3522 8.81292 41.4153 8.93809 41.4573 9.10499L42.865 14.6333L44.1677 9.10499C44.2097 8.93809 44.2518 8.83379 44.3358 8.7712C44.3988 8.72948 44.5249 8.68775 44.672 8.68775H45.3443C45.5124 8.68775 45.6175 8.70862 45.6805 8.7712C45.7436 8.81292 45.8066 8.93809 45.8486 9.10499L47.1723 14.6959L48.6221 9.10499C48.6641 8.93809 48.7271 8.83379 48.7902 8.7712C48.8532 8.72948 48.9583 8.68775 49.1263 8.68775H49.9038C50.0298 8.68775 50.1139 8.75034 50.1139 8.89637C50.1139 8.93809 50.1139 8.97982 50.0929 9.02154C50.0929 9.06326 50.0718 9.14671 50.0298 9.23016L47.9917 15.6972C47.9497 15.8641 47.8867 15.9684 47.8237 16.031C47.7606 16.0728 47.6556 16.1145 47.5085 16.1145H46.7941C46.626 16.1145 46.521 16.0936 46.4579 16.031C46.3949 15.9684 46.3319 15.8641 46.2898 15.6972L44.9872 10.315L43.6845 15.6972C43.6424 15.8641 43.6004 15.9684 43.5164 16.031C43.4533 16.0936 43.3273 16.1145 43.1802 16.1145H42.4658ZM53.2866 16.3231C52.8453 16.3231 52.4041 16.2814 51.9839 16.1771C51.5636 16.0728 51.2275 15.9684 51.0173 15.8433C50.8913 15.7598 50.7862 15.6764 50.7652 15.6138C50.7442 15.5512 50.7022 15.4469 50.7022 15.3843V14.9671C50.7022 14.8002 50.7652 14.7168 50.8913 14.7168C50.9333 14.7168 50.9963 14.7168 51.0384 14.7376C51.0804 14.7585 51.1644 14.7793 51.2485 14.8211C51.5426 14.9462 51.8368 15.0505 52.173 15.1131C52.5091 15.1757 52.8453 15.2174 53.1815 15.2174C53.7068 15.2174 54.127 15.134 54.4001 14.9462C54.6943 14.7585 54.8414 14.4873 54.8414 14.1535C54.8414 13.924 54.7573 13.7363 54.6103 13.5694C54.4632 13.4025 54.169 13.2773 53.7698 13.1313L52.5512 12.7558C51.9418 12.568 51.4796 12.2759 51.2064 11.9004C50.9333 11.5249 50.7862 11.1286 50.7862 10.6905C50.7862 10.3358 50.8703 10.0229 51.0173 9.77256C51.1644 9.52222 51.3745 9.27188 51.6267 9.08412C51.8788 8.89637 52.173 8.75034 52.5091 8.64603C52.8453 8.54172 53.2025 8.5 53.5597 8.5C53.7488 8.5 53.9379 8.5 54.127 8.54172C54.3161 8.56258 54.5052 8.60431 54.6733 8.62517C54.8414 8.66689 55.0095 8.70862 55.1565 8.75034C55.3036 8.79206 55.4297 8.85465 55.5137 8.89637C55.6398 8.95895 55.7238 9.02154 55.7659 9.10499C55.8079 9.16757 55.8499 9.27188 55.8499 9.37619V9.77256C55.8499 9.93945 55.7869 10.0438 55.6608 10.0438C55.5978 10.0438 55.4927 10.002 55.3456 9.93945C54.8624 9.73083 54.3371 9.60566 53.7278 9.60566C53.2445 9.60566 52.8663 9.68911 52.6142 9.83514C52.3621 9.98117 52.215 10.2315 52.215 10.5862C52.215 10.8156 52.299 11.0243 52.4671 11.1703C52.6352 11.3372 52.9504 11.4832 53.3916 11.6292L54.5892 12.0047C55.1986 12.1925 55.6398 12.4637 55.8919 12.7975C56.1441 13.1313 56.2701 13.5276 56.2701 13.9657C56.2701 14.3204 56.1861 14.6542 56.06 14.9254C55.9129 15.2174 55.7028 15.4678 55.4507 15.6555C55.1986 15.8641 54.8834 16.0102 54.5262 16.1145C54.106 16.2814 53.7068 16.3231 53.2866 16.3231Z" fill="#252F3E"/>
<path fill-rule="evenodd" clip-rule="evenodd" d="M54.8835 20.3917C52.1101 22.4153 48.0759 23.5001 44.6301 23.5001C39.7765 23.5001 35.4062 21.7268 32.1075 18.7645C31.8553 18.535 32.0865 18.2221 32.4016 18.389C35.9735 20.4543 40.3648 21.6851 44.9243 21.6851C47.9919 21.6851 51.3747 21.0593 54.4843 19.745C54.9256 19.5572 55.3248 20.0579 54.8835 20.3917Z" fill="#FF9900"/>
<path fill-rule="evenodd" clip-rule="evenodd" d="M56.018 19.0981C55.6608 18.6391 53.6857 18.8895 52.7822 18.9938C52.5091 19.0355 52.4671 18.7852 52.7192 18.6183C54.295 17.5126 56.9004 17.8255 57.1946 18.201C57.4887 18.5765 57.1105 21.1634 55.6398 22.3942C55.4086 22.582 55.1985 22.4777 55.3036 22.2273C55.6398 21.3929 56.3752 19.5362 56.018 19.0981Z" fill="#FF9900"/>
<g opacity="0.5">
<rect x="83.5" y="0.5" width="70" height="31" rx="3.5" stroke="#E5E5E5"/>
<circle cx="101" cy="16" r="5.5" stroke="#E5E5E5"/>
<path d="M130.803 12.6305H131.37L132.987 11.0104L133.066 10.3225C132.14 9.5033 131.021 8.93423 129.814 8.66904C128.607 8.40386 127.353 8.45132 126.17 8.80694C124.986 9.16256 123.913 9.8146 123.051 10.7015C122.189 11.5883 121.567 12.6807 121.244 13.8755C121.424 13.8015 121.623 13.7895 121.811 13.8414L125.044 13.307C125.044 13.307 125.209 13.0342 125.294 13.0512C125.987 12.2887 126.944 11.8204 127.971 11.7422C128.997 11.664 130.014 11.9818 130.814 12.6305H130.803Z" fill="#EA4335"/>
<path d="M135.29 13.8754C134.918 12.5041 134.155 11.2712 133.094 10.3281L130.825 12.6021C131.298 12.9893 131.677 13.4791 131.934 14.0345C132.19 14.5899 132.317 15.1964 132.306 15.8083V16.2119C132.571 16.2119 132.834 16.2643 133.079 16.366C133.324 16.4677 133.546 16.6167 133.734 16.8047C133.921 16.9926 134.07 17.2157 134.172 17.4612C134.273 17.7068 134.325 17.9699 134.325 18.2357C134.325 18.5015 134.273 18.7646 134.172 19.0102C134.07 19.2557 133.921 19.4788 133.734 19.6667C133.546 19.8547 133.324 20.0037 133.079 20.1054C132.834 20.2071 132.571 20.2595 132.306 20.2595H128.267L127.864 20.6688V23.0962L128.267 23.4998H132.306C133.434 23.5086 134.535 23.1534 135.445 22.4867C136.356 21.8199 137.029 20.8771 137.363 19.7977C137.698 18.7183 137.677 17.5596 137.304 16.4931C136.93 15.4265 136.224 14.5087 135.29 13.8754Z" fill="#4285F4"/>
<path d="M124.222 23.4776H128.261V20.2372H124.222C123.934 20.2371 123.65 20.1751 123.388 20.0553L122.821 20.2315L121.192 21.8517L121.051 22.4202C121.964 23.1111 123.078 23.4825 124.222 23.4776Z" fill="#34A853"/>
<path d="M124.222 12.9659C123.127 12.9724 122.062 13.3213 121.175 13.9639C120.288 14.6064 119.624 15.5105 119.275 16.5499C118.925 17.5893 118.909 18.712 119.227 19.7613C119.546 20.8106 120.183 21.734 121.051 22.4026L123.394 20.0548C123.096 19.92 122.835 19.7148 122.634 19.4569C122.433 19.199 122.297 18.896 122.238 18.5739C122.18 18.2518 122.2 17.9203 122.297 17.6077C122.394 17.2952 122.566 17.011 122.797 16.7795C123.028 16.548 123.312 16.3761 123.624 16.2786C123.935 16.1811 124.266 16.1608 124.588 16.2196C124.909 16.2784 125.211 16.4144 125.469 16.6161C125.726 16.8177 125.931 17.0789 126.066 17.3773L128.409 15.0294C127.917 14.3852 127.283 13.8637 126.557 13.5057C125.83 13.1477 125.031 12.963 124.222 12.9659Z" fill="#FBBC05"/>
</g>
<g opacity="0.5">
<rect x="166.5" y="0.5" width="70" height="31" rx="3.5" stroke="#E5E5E5"/>
<circle cx="184" cy="16" r="5.5" stroke="#E5E5E5"/>
<path d="M207.425 8.5H212.246L207.249 22.9906C207.146 23.2999 206.848 23.5 206.523 23.5H202.763C202.335 23.5 202 23.1634 202 22.7541C202 22.6722 202.009 22.5904 202.037 22.5176L206.7 9.0094C206.802 8.70922 207.1 8.5 207.425 8.5Z" fill="url(#paint0_linear_399_2217)"/>
<path d="M214.433 18.2147H206.793C206.597 18.2147 206.439 18.3694 206.439 18.5604C206.439 18.6604 206.476 18.7514 206.551 18.8151L211.464 23.2905C211.604 23.4179 211.799 23.4906 211.995 23.4906H216.322L214.433 18.2147Z" fill="#2959FF"/>
<path d="M207.426 8.5C207.091 8.5 206.793 8.70922 206.7 9.0185L202.047 22.4903C201.907 22.8814 202.112 23.309 202.512 23.4454C202.596 23.4727 202.68 23.4909 202.773 23.4909H206.616C206.905 23.4363 207.147 23.2362 207.249 22.9633L208.179 20.289L211.492 23.3272C211.632 23.4363 211.809 23.5 211.986 23.5H216.294L214.405 18.215H208.896L212.265 8.5H207.426Z" fill="url(#paint1_linear_399_2217)"/>
<path d="M213.586 9.0094C213.484 8.70012 213.186 8.5 212.86 8.5H207.491C207.816 8.5 208.114 8.70922 208.217 9.0094L212.87 22.5085C213.009 22.8996 212.786 23.3272 212.386 23.4545C212.311 23.4818 212.227 23.4909 212.144 23.4909H217.513C217.941 23.4909 218.276 23.1543 218.276 22.745C218.276 22.6631 218.267 22.5813 218.239 22.5085L213.586 9.0094Z" fill="url(#paint2_linear_399_2217)"/>
</g>
<g opacity="0.5">
<rect x="249.5" y="0.5" width="70" height="31" rx="3.5" stroke="#E5E5E5"/>
<circle cx="267" cy="16" r="5.5" stroke="#E5E5E5"/>
<path fill-rule="evenodd" clip-rule="evenodd" d="M300.915 11.061H292.5C289.772 11.061 287.561 13.2723 287.561 16C287.561 18.7277 289.772 20.939 292.5 20.939H300.915C303.642 20.939 305.854 18.7277 305.854 16C305.854 13.2723 303.642 11.061 300.915 11.061ZM292.5 8.5C288.358 8.5 285 11.8579 285 16C285 20.1421 288.358 23.5 292.5 23.5H300.915C305.057 23.5 308.415 20.1421 308.415 16C308.415 11.8579 305.057 8.5 300.915 8.5H292.5Z" fill="#C74634"/>
</g>
<defs>
<linearGradient id="paint0_linear_399_2217" x1="209.185" y1="9.61159" x2="204.382" y2="24.1292" gradientUnits="userSpaceOnUse">
<stop stop-color="#114A8B"/>
<stop offset="1" stop-color="#0765B6"/>
</linearGradient>
<linearGradient id="paint1_linear_399_2217" x1="210.749" y1="16.346" x2="209.596" y2="16.7445" gradientUnits="userSpaceOnUse">
<stop stop-opacity="0.3"/>
<stop offset="0.071" stop-opacity="0.2"/>
<stop offset="0.321" stop-opacity="0.1"/>
<stop offset="0.623" stop-opacity="0.05"/>
<stop offset="1" stop-opacity="0"/>
</linearGradient>
<linearGradient id="paint2_linear_399_2217" x1="210.148" y1="9.17692" x2="215.425" y2="23.5616" gradientUnits="userSpaceOnUse">
<stop stop-color="#3BC9F3"/>
<stop offset="1" stop-color="#2892DF"/>
</linearGradient>
</defs>
</svg>
