<svg width="24" height="24" viewBox="0 0 24 24" fill="none" xmlns="http://www.w3.org/2000/svg">
<path fill-rule="evenodd" clip-rule="evenodd" d="M0 12C0 5.37258 5.37258 0 12 0C18.6274 0 24 5.37258 24 12C24 18.6274 18.6274 24 12 24C5.37258 24 0 18.6274 0 12ZM13.2 4.2V6.1484C14.1649 6.39253 15.0162 6.92949 15.5711 7.69686L16.2742 8.66928L14.3294 10.0756L13.6262 9.10314C13.3655 8.74258 12.7841 8.4 12 8.4H11.6667C10.5929 8.4 10.2 9.05391 10.2 9.33333V9.42492C10.2 9.66164 10.379 10.0591 10.9831 10.3008L13.9083 11.4709C15.1886 11.983 16.2 13.1263 16.2 14.5751C16.2 16.3427 14.7876 17.5373 13.2 17.8909V19.8H10.8V17.8516C9.83514 17.6075 8.98381 17.0705 8.42893 16.3031L7.72579 15.3307L9.67062 13.9244L10.3738 14.8969C10.6345 15.2574 11.2159 15.6 12 15.6H12.2188C13.3558 15.6 13.8 14.9051 13.8 14.5751C13.8 14.3384 13.621 13.9409 13.0169 13.6992L10.0917 12.5291C8.81139 12.017 7.8 10.8737 7.8 9.42492V9.33333C7.8 7.57653 9.22724 6.40685 10.8 6.08797V4.2H13.2Z" fill="#2959FF"/>
</svg>
