<svg width="13" height="13" viewBox="0 0 13 13" fill="none" xmlns="http://www.w3.org/2000/svg">
<path d="M1.97991 6.0748L6.19349 10.9308C6.23158 10.9747 6.27867 11.0099 6.33156 11.0341C6.38446 11.0582 6.44193 11.0707 6.50008 11.0707C6.55823 11.0707 6.6157 11.0582 6.6686 11.0341C6.7215 11.0099 6.76859 10.9747 6.80668 10.9308L11.019 6.0748C11.0317 6.06017 11.04 6.04218 11.0428 6.02298C11.0456 6.00379 11.0428 5.98419 11.0347 5.96654C11.0267 5.94888 11.0138 5.9339 10.9975 5.92338C10.9812 5.91287 10.9622 5.90726 10.9428 5.90722H9.91449C9.85609 5.90722 9.80023 5.93261 9.76088 5.97705L6.98187 9.18008L6.98187 2.03134C6.98187 1.97548 6.93617 1.92978 6.88031 1.92978H6.11859C6.06273 1.92978 6.01703 1.97548 6.01703 2.03134L6.01703 9.18008L3.23802 5.97705C3.19993 5.93261 3.14407 5.90722 3.0844 5.90722H2.05608C1.96975 5.90722 1.92278 6.00879 1.97991 6.0748Z" fill="#121413"/>
</svg>
