<svg width="32" height="32" viewBox="0 0 32 32" fill="none" xmlns="http://www.w3.org/2000/svg">
<path fill-rule="evenodd" clip-rule="evenodd" d="M2.66675 16C2.66675 8.63621 8.63628 2.66667 16.0001 2.66667C23.3639 2.66667 29.3334 8.63621 29.3334 16C29.3334 23.3638 23.3639 29.3333 16.0001 29.3333C8.63628 29.3333 2.66675 23.3638 2.66675 16ZM17.3334 7.33334V9.49823C18.4055 9.76948 19.3514 10.3661 19.9679 11.2187L20.7492 12.2992L18.5883 13.8617L17.807 12.7813C17.5173 12.3807 16.8713 12 16.0001 12H15.6297C14.4367 12 14.0001 12.7266 14.0001 13.037V13.1388C14.0001 13.4018 14.1989 13.8435 14.8701 14.112L18.1204 15.4121C19.543 15.9811 20.6667 17.2515 20.6667 18.8612C20.6667 20.8253 19.0974 22.1525 17.3334 22.5454V24.6667H14.6667V22.5018C13.5947 22.2305 12.6488 21.6339 12.0322 20.7813L11.251 19.7008L13.4119 18.1383L14.1932 19.2187C14.4828 19.6194 15.1289 20 16.0001 20H16.2432C17.5065 20 18.0001 19.2279 18.0001 18.8612C18.0001 18.5982 17.8012 18.1565 17.13 17.888L13.8798 16.5879C12.4572 16.0189 11.3334 14.7485 11.3334 13.1388V13.037C11.3334 11.085 12.9192 9.7854 14.6667 9.43109V7.33334H17.3334Z" fill="#34A853"/>
</svg>
