<svg width="96" height="104" viewBox="0 0 96 104" fill="none" xmlns="http://www.w3.org/2000/svg">
<path d="M42 96H46V102C46 103.105 45.1046 104 44 104C42.8954 104 42 103.105 42 102V96Z" fill="#E5E5E5"/>
<path d="M51 96H55V102C55 103.105 54.1046 104 53 104C51.8954 104 51 103.105 51 102V96Z" fill="#E5E5E5"/>
<g filter="url(#filter0_dddd_399_711)">
<rect width="96" height="96" rx="24" fill="white"/>
<rect x="0.5" y="0.5" width="95" height="95" rx="23.5" stroke="white"/>
</g>
<g clip-path="url(#clip0_399_711)">
<path d="M35.4855 43.6C35.4855 44.2667 35.5769 44.8 35.6682 45.2C35.8053 45.6 35.988 46 36.2621 46.4889C36.3535 46.6222 36.3991 46.7555 36.3991 46.8889C36.3991 47.0667 36.3078 47.2444 36.0337 47.4222L34.8917 48.1778C34.7089 48.2667 34.5719 48.3555 34.4349 48.3555C34.2521 48.3555 34.0694 48.2667 33.8867 48.0889C33.6126 47.8222 33.4299 47.5555 33.2471 47.2444C33.0644 46.9333 32.8817 46.6222 32.699 46.1778C31.2829 47.8222 29.5013 48.6222 27.3086 48.6222C25.7555 48.6222 24.5677 48.1778 23.6541 47.3333C22.7405 46.4889 22.2837 45.3333 22.2837 43.9111C22.2837 42.4 22.8319 41.1555 23.9282 40.2667C25.0246 39.3778 26.532 38.8889 28.405 38.8889C29.0445 38.8889 29.684 38.9333 30.3236 39.0222C31.0088 39.1111 31.694 39.2444 32.4249 39.4222V38.1333C32.4249 36.8 32.1508 35.8222 31.5569 35.2889C30.9631 34.7555 30.0038 34.4889 28.5877 34.4889C27.9481 34.4889 27.3086 34.5778 26.6234 34.7111C25.9382 34.8889 25.2986 35.0667 24.6591 35.3333C24.385 35.4222 24.1566 35.5111 24.0196 35.5555C23.8825 35.5555 23.7912 35.6 23.7455 35.6C23.4714 35.6 23.38 35.4222 23.38 35.0667V34.1778C23.38 33.9111 23.4257 33.6889 23.5171 33.5555C23.6084 33.4222 23.7912 33.2889 24.0196 33.2C24.6591 32.8889 25.4357 32.6222 26.3036 32.4C27.2172 32.1778 28.1309 32.0444 29.1359 32.0444C31.3285 32.0444 32.8817 32.5333 33.9324 33.4667C34.9373 34.4444 35.4398 35.8667 35.4398 37.8667L35.4855 43.6ZM28.0852 46.3111C28.679 46.3111 29.3186 46.2222 29.9581 46C30.5976 45.7778 31.1915 45.3778 31.694 44.8444C31.9681 44.4889 32.1965 44.1333 32.3335 43.6889C32.4249 43.2444 32.5162 42.7555 32.5162 42.1333V41.3778C31.9681 41.2444 31.4199 41.1555 30.826 41.0667C30.2322 40.9778 29.684 40.9778 29.0902 40.9778C27.8568 40.9778 26.9888 41.2 26.3493 41.6889C25.7555 42.1778 25.4357 42.8444 25.4357 43.7333C25.4357 44.5778 25.6641 45.2 26.1209 45.6C26.5777 46.1333 27.2172 46.3111 28.0852 46.3111ZM42.7488 48.2667C42.429 48.2667 42.2006 48.2222 42.0636 48.0889C41.9265 48 41.7895 47.7333 41.6981 47.3778L37.4041 33.6C37.3128 33.2444 37.2214 33.0222 37.2214 32.8889C37.2214 32.6222 37.3584 32.4444 37.6782 32.4444H39.4598C39.8252 32.4444 40.0536 32.4889 40.1907 32.6222C40.3277 32.7111 40.4648 32.9778 40.5561 33.3333L43.6167 45.1111L46.449 33.3333C46.5403 32.9778 46.6317 32.7555 46.8144 32.6222C46.9515 32.5333 47.2255 32.4444 47.5453 32.4444H49.0071C49.3726 32.4444 49.601 32.4889 49.738 32.6222C49.8751 32.7111 50.0121 32.9778 50.1035 33.3333L52.9814 45.2444L56.1334 33.3333C56.2247 32.9778 56.3618 32.7555 56.4988 32.6222C56.6358 32.5333 56.8643 32.4444 57.2297 32.4444H58.9199C59.194 32.4444 59.3767 32.5778 59.3767 32.8889C59.3767 32.9778 59.3767 33.0667 59.331 33.1555C59.331 33.2444 59.2854 33.4222 59.194 33.6L54.7629 47.3778C54.6716 47.7333 54.5345 47.9555 54.3975 48.0889C54.2604 48.1778 54.032 48.2667 53.7123 48.2667H52.1591C51.7937 48.2667 51.5653 48.2222 51.4282 48.0889C51.2912 47.9555 51.1541 47.7333 51.0628 47.3778L48.2305 35.9111L45.3983 47.3778C45.3069 47.7333 45.2156 47.9555 45.0329 48.0889C44.8958 48.2222 44.6217 48.2667 44.302 48.2667H42.7488ZM66.2746 48.7111C65.3153 48.7111 64.3559 48.6222 63.4423 48.4C62.5287 48.1778 61.7978 47.9555 61.341 47.6889C61.0669 47.5111 60.8385 47.3333 60.7928 47.2C60.7471 47.0667 60.6558 46.8444 60.6558 46.7111V45.8222C60.6558 45.4667 60.7928 45.2889 61.0669 45.2889C61.1583 45.2889 61.2953 45.2889 61.3867 45.3333C61.478 45.3778 61.6608 45.4222 61.8435 45.5111C62.483 45.7778 63.1226 46 63.8535 46.1333C64.5844 46.2667 65.3153 46.3555 66.0461 46.3555C67.1882 46.3555 68.1018 46.1778 68.6956 45.7778C69.3352 45.3778 69.6549 44.8 69.6549 44.0889C69.6549 43.6 69.4722 43.2 69.1525 42.8444C68.8327 42.4889 68.1932 42.2222 67.3252 41.9111L64.6757 41.1111C63.351 40.7111 62.346 40.0889 61.7521 39.2889C61.1583 38.4889 60.8385 37.6444 60.8385 36.7111C60.8385 35.9555 61.0212 35.2889 61.341 34.7555C61.6608 34.2222 62.1176 33.6889 62.6657 33.2889C63.2139 32.8889 63.8535 32.5778 64.5844 32.3555C65.3153 32.1333 66.0918 32.0444 66.8684 32.0444C67.2795 32.0444 67.6907 32.0444 68.1018 32.1333C68.5129 32.1778 68.9241 32.2667 69.2895 32.3111C69.6549 32.4 70.0204 32.4889 70.3402 32.5778C70.6599 32.6667 70.934 32.8 71.1167 32.8889C71.3908 33.0222 71.5736 33.1555 71.6649 33.3333C71.7563 33.4667 71.8476 33.6889 71.8476 33.9111V34.7555C71.8476 35.1111 71.7106 35.3333 71.4365 35.3333C71.2995 35.3333 71.0711 35.2444 70.7513 35.1111C69.7006 34.6667 68.5586 34.4 67.2339 34.4C66.1832 34.4 65.3609 34.5778 64.8128 34.8889C64.2646 35.2 63.9448 35.7333 63.9448 36.4889C63.9448 36.9778 64.1275 37.4222 64.493 37.7333C64.8584 38.0889 65.5437 38.4 66.503 38.7111L69.1068 39.5111C70.4315 39.9111 71.3908 40.4889 71.939 41.2C72.4872 41.9111 72.7613 42.7555 72.7613 43.6889C72.7613 44.4444 72.5785 45.1555 72.3045 45.7333C71.9847 46.3555 71.5279 46.8889 70.9797 47.2889C70.4315 47.7333 69.7463 48.0444 68.9697 48.2667C68.0561 48.6222 67.1882 48.7111 66.2746 48.7111Z" fill="#252F3E"/>
<path fill-rule="evenodd" clip-rule="evenodd" d="M69.7465 57.3787C63.7166 61.6898 54.9459 64.0009 47.4542 64.0009C36.9018 64.0009 27.4002 60.2231 20.2282 53.912C19.6801 53.4231 20.1826 52.7565 20.8678 53.112C28.6336 57.512 38.1809 60.1342 48.0937 60.1342C54.7631 60.1342 62.1178 58.8009 68.8786 56.0009C69.8379 55.6009 70.7058 56.6676 69.7465 57.3787Z" fill="#FF9900"/>
<path fill-rule="evenodd" clip-rule="evenodd" d="M72.2127 54.6229C71.4361 53.6451 67.1421 54.1785 65.1778 54.4007C64.584 54.4896 64.4926 53.9563 65.0408 53.6007C68.4668 51.2451 74.1313 51.9118 74.7708 52.7118C75.4104 53.5118 74.5881 59.0229 71.3904 61.6451C70.8879 62.0451 70.4311 61.8229 70.6595 61.2896C71.3904 59.5118 72.9893 55.5563 72.2127 54.6229Z" fill="#FF9900"/>
</g>
<defs>
<filter id="filter0_dddd_399_711" x="-29" y="-3" width="131" height="149" filterUnits="userSpaceOnUse" color-interpolation-filters="sRGB">
<feFlood flood-opacity="0" result="BackgroundImageFix"/>
<feColorMatrix in="SourceAlpha" type="matrix" values="0 0 0 0 0 0 0 0 0 0 0 0 0 0 0 0 0 0 127 0" result="hardAlpha"/>
<feOffset dx="-1" dy="2"/>
<feGaussianBlur stdDeviation="2.5"/>
<feColorMatrix type="matrix" values="0 0 0 0 0.811765 0 0 0 0 0.811765 0 0 0 0 0.811765 0 0 0 0.1 0"/>
<feBlend mode="normal" in2="BackgroundImageFix" result="effect1_dropShadow_399_711"/>
<feColorMatrix in="SourceAlpha" type="matrix" values="0 0 0 0 0 0 0 0 0 0 0 0 0 0 0 0 0 0 127 0" result="hardAlpha"/>
<feOffset dx="-3" dy="9"/>
<feGaussianBlur stdDeviation="4.5"/>
<feColorMatrix type="matrix" values="0 0 0 0 0.811765 0 0 0 0 0.811765 0 0 0 0 0.811765 0 0 0 0.09 0"/>
<feBlend mode="normal" in2="effect1_dropShadow_399_711" result="effect2_dropShadow_399_711"/>
<feColorMatrix in="SourceAlpha" type="matrix" values="0 0 0 0 0 0 0 0 0 0 0 0 0 0 0 0 0 0 127 0" result="hardAlpha"/>
<feOffset dx="-8" dy="20"/>
<feGaussianBlur stdDeviation="6.5"/>
<feColorMatrix type="matrix" values="0 0 0 0 0.811765 0 0 0 0 0.811765 0 0 0 0 0.811765 0 0 0 0.05 0"/>
<feBlend mode="normal" in2="effect2_dropShadow_399_711" result="effect3_dropShadow_399_711"/>
<feColorMatrix in="SourceAlpha" type="matrix" values="0 0 0 0 0 0 0 0 0 0 0 0 0 0 0 0 0 0 127 0" result="hardAlpha"/>
<feOffset dx="-14" dy="35"/>
<feGaussianBlur stdDeviation="7.5"/>
<feColorMatrix type="matrix" values="0 0 0 0 0.811765 0 0 0 0 0.811765 0 0 0 0 0.811765 0 0 0 0.01 0"/>
<feBlend mode="normal" in2="effect3_dropShadow_399_711" result="effect4_dropShadow_399_711"/>
<feBlend mode="normal" in="SourceGraphic" in2="effect4_dropShadow_399_711" result="shape"/>
</filter>
<clipPath id="clip0_399_711">
<rect width="55" height="32" fill="white" transform="translate(20 32)"/>
</clipPath>
</defs>
</svg>
