<svg width="54" height="32" viewBox="0 0 54 32" fill="none" xmlns="http://www.w3.org/2000/svg">
<g clip-path="url(#clip0_399_5660)">
<path d="M15.204 11.5147C15.204 12.1765 15.2937 12.7059 15.3834 13.1029C15.5179 13.5 15.6973 13.897 15.9664 14.3823C16.0561 14.5147 16.101 14.647 16.101 14.7794C16.101 14.9559 16.0113 15.1323 15.7422 15.3088L14.6209 16.0588C14.4415 16.147 14.3069 16.2353 14.1724 16.2353C13.993 16.2353 13.8136 16.147 13.6342 15.9706C13.3651 15.7059 13.1857 15.4412 13.0063 15.1323C12.8269 14.8235 12.6475 14.5147 12.4681 14.0735C11.0777 15.7059 9.32854 16.5 7.17572 16.5C5.6508 16.5 4.48469 16.0588 3.58768 15.2206C2.69067 14.3823 2.24216 13.2353 2.24216 11.8235C2.24216 10.3235 2.78037 9.08822 3.85678 8.20587C4.93319 7.32352 6.41326 6.83822 8.25213 6.83822C8.88004 6.83822 9.50794 6.88234 10.1359 6.97057C10.8086 7.05881 11.4814 7.19116 12.199 7.36763V6.08822C12.199 4.76469 11.9299 3.7941 11.3468 3.26469C10.7638 2.73528 9.8219 2.47057 8.43153 2.47057C7.80362 2.47057 7.17572 2.55881 6.50296 2.69116C5.8302 2.86763 5.2023 3.0441 4.57439 3.30881C4.30529 3.39704 4.08103 3.48528 3.94648 3.5294C3.81193 3.5294 3.72223 3.57352 3.67738 3.57352C3.40827 3.57352 3.31857 3.39704 3.31857 3.0441V2.16175C3.31857 1.89704 3.36342 1.67646 3.45313 1.5441C3.54283 1.41175 3.72223 1.2794 3.94648 1.19116C4.57439 0.882338 5.33685 0.617632 6.18901 0.397044C7.08602 0.176456 7.98303 0.0441029 8.96974 0.0441029C11.1226 0.0441029 12.6475 0.529397 13.679 1.45587C14.6658 2.42646 15.1591 3.83822 15.1591 5.82352L15.204 11.5147ZM7.93818 14.2059C8.52123 14.2059 9.14914 14.1176 9.77705 13.897C10.405 13.6765 10.988 13.2794 11.4814 12.75C11.7505 12.397 11.9747 12.0441 12.1093 11.6029C12.199 11.1618 12.2887 10.6765 12.2887 10.0588V9.30881C11.7505 9.17646 11.2123 9.08822 10.6292 8.99999C10.0462 8.91175 9.50794 8.91175 8.92489 8.91175C7.71392 8.91175 6.86176 9.13234 6.23386 9.61763C5.6508 10.1029 5.33685 10.7647 5.33685 11.647C5.33685 12.4853 5.5611 13.1029 6.0096 13.5C6.45811 14.0294 7.08602 14.2059 7.93818 14.2059ZM22.3352 16.147C22.0212 16.147 21.797 16.1029 21.6624 15.9706C21.5279 15.8823 21.3933 15.6176 21.3036 15.2647L17.0877 1.58822C16.998 1.23528 16.9083 1.01469 16.9083 0.882338C16.9083 0.617632 17.0428 0.441162 17.3568 0.441162H19.106C19.4648 0.441162 19.689 0.485279 19.8236 0.617632C19.9581 0.705868 20.0927 0.970574 20.1824 1.32351L23.1873 13.0147L25.9681 1.32351C26.0578 0.970574 26.1475 0.749985 26.3269 0.617632C26.4614 0.529397 26.7305 0.441162 27.0445 0.441162H28.4797C28.8385 0.441162 29.0628 0.485279 29.1973 0.617632C29.3319 0.705868 29.4664 0.970574 29.5561 1.32351L32.3817 13.147L35.4764 1.32351C35.5661 0.970574 35.7006 0.749985 35.8352 0.617632C35.9697 0.529397 36.194 0.441162 36.5528 0.441162H38.2123C38.4814 0.441162 38.6608 0.573515 38.6608 0.882338C38.6608 0.970574 38.6608 1.05881 38.6159 1.14704C38.6159 1.23528 38.5711 1.41175 38.4814 1.58822L34.1309 15.2647C34.0412 15.6176 33.9066 15.8382 33.7721 15.9706C33.6375 16.0588 33.4133 16.147 33.0993 16.147H31.5744C31.2156 16.147 30.9913 16.1029 30.8568 15.9706C30.7222 15.8382 30.5877 15.6176 30.498 15.2647L27.7172 3.88234L24.9365 15.2647C24.8468 15.6176 24.7571 15.8382 24.5777 15.9706C24.4432 16.1029 24.1741 16.147 23.8601 16.147H22.3352ZM45.4332 16.5882C44.4913 16.5882 43.5495 16.5 42.6525 16.2794C41.7555 16.0588 41.0378 15.8382 40.5893 15.5735C40.3202 15.397 40.096 15.2206 40.0511 15.0882C40.0063 14.9559 39.9166 14.7353 39.9166 14.6029V13.7206C39.9166 13.3676 40.0511 13.1912 40.3202 13.1912C40.4099 13.1912 40.5445 13.1912 40.6342 13.2353C40.7239 13.2794 40.9033 13.3235 41.0827 13.4118C41.7106 13.6765 42.3385 13.897 43.0561 14.0294C43.7737 14.1618 44.4913 14.25 45.2089 14.25C46.3302 14.25 47.2272 14.0735 47.8103 13.6765C48.4382 13.2794 48.7521 12.7059 48.7521 12C48.7521 11.5147 48.5727 11.1176 48.2588 10.7647C47.9448 10.4118 47.3169 10.147 46.4648 9.83822L43.8634 9.0441C42.5628 8.64705 41.5761 8.0294 40.993 7.23528C40.4099 6.44116 40.096 5.60293 40.096 4.67646C40.096 3.92646 40.2754 3.26469 40.5893 2.73528C40.9033 2.20587 41.3518 1.67646 41.89 1.2794C42.4282 0.882338 43.0561 0.573515 43.7737 0.352926C44.4913 0.132338 45.2538 0.0441029 46.0163 0.0441029C46.4199 0.0441029 46.8236 0.0441029 47.2272 0.132338C47.6309 0.176456 48.0345 0.264691 48.3933 0.308809C48.7521 0.397044 49.1109 0.485279 49.4249 0.573515C49.7388 0.66175 50.0079 0.794103 50.1874 0.882338C50.4565 1.01469 50.6359 1.14704 50.7256 1.32351C50.8153 1.45587 50.905 1.67646 50.905 1.89704V2.73528C50.905 3.08822 50.7704 3.30881 50.5013 3.30881C50.3668 3.30881 50.1425 3.22057 49.8285 3.08822C48.797 2.64704 47.6757 2.38234 46.3751 2.38234C45.3435 2.38234 44.5362 2.55881 43.998 2.86763C43.4598 3.17646 43.1458 3.70587 43.1458 4.45587C43.1458 4.94116 43.3252 5.38234 43.684 5.69116C44.0428 6.0441 44.7156 6.35293 45.6575 6.66175L48.2139 7.45587C49.5146 7.85293 50.4565 8.42646 50.9947 9.13234C51.5329 9.83822 51.802 10.6765 51.802 11.6029C51.802 12.3529 51.6226 13.0588 51.3535 13.6323C51.0395 14.25 50.591 14.7794 50.0528 15.1765C49.5146 15.6176 48.8418 15.9265 48.0794 16.147C47.1824 16.5 46.3302 16.5882 45.4332 16.5882Z" fill="#252F3E"/>
<path fill-rule="evenodd" clip-rule="evenodd" d="M48.842 25.1923C42.9217 29.4717 34.3104 31.7658 26.9549 31.7658C16.5945 31.7658 7.26555 28.0158 0.224022 21.7511C-0.314184 21.2658 0.179171 20.6041 0.851929 20.957C8.47652 25.3247 17.8503 27.9276 27.5828 27.9276C34.131 27.9276 41.3519 26.6041 47.9898 23.8247C48.9317 23.4276 49.7838 24.4864 48.842 25.1923Z" fill="#FF9900"/>
<path fill-rule="evenodd" clip-rule="evenodd" d="M51.2635 22.4566C50.501 21.486 46.285 22.0154 44.3565 22.236C43.7734 22.3242 43.6837 21.7948 44.2219 21.4419C47.5857 19.1036 53.1472 19.7654 53.7751 20.5595C54.403 21.3536 53.5957 26.8242 50.4561 29.4272C49.9628 29.8242 49.5143 29.6037 49.7385 29.0742C50.4561 27.3095 52.0259 23.3831 51.2635 22.4566Z" fill="#FF9900"/>
</g>
<defs>
<clipPath id="clip0_399_5660">
<rect width="53.5082" height="31.4754" fill="white" transform="scale(1.00919)"/>
</clipPath>
</defs>
</svg>
