<svg width="263" height="44" viewBox="0 0 263 44" fill="none" xmlns="http://www.w3.org/2000/svg">
<circle cx="16" cy="36" r="3" fill="#2959FF"/>
<circle cx="43" cy="17" r="3" fill="#2959FF"/>
<circle cx="48" cy="24" r="3" fill="#2959FF"/>
<circle cx="56" cy="41" r="3" fill="#2959FF"/>
<circle cx="50" cy="34" r="3" fill="#2959FF"/>
<circle cx="62" cy="35" r="3" fill="#2959FF"/>
<circle cx="79" cy="18" r="3" fill="#2959FF"/>
<circle cx="82" cy="9" r="3" fill="#2959FF"/>
<circle cx="89" cy="3" r="3" fill="#2959FF"/>
<circle cx="98" cy="7" r="3" fill="#2959FF"/>
<circle cx="122" cy="23" r="3" fill="#2959FF"/>
<circle cx="135" cy="13" r="3" fill="#2959FF"/>
<circle cx="151" cy="39" r="3" fill="#2959FF"/>
<circle cx="140" cy="36" r="3" fill="#2959FF"/>
<circle cx="191" cy="36" r="3" fill="#2959FF"/>
<circle cx="196" cy="19" r="3" fill="#2959FF"/>
<circle cx="203" cy="29" r="3" fill="#2959FF"/>
<circle cx="206" cy="16" r="3" fill="#2959FF"/>
<circle cx="233" cy="14" r="3" fill="#2959FF"/>
<circle cx="238" cy="6" r="3" fill="#2959FF"/>
<circle cx="247" cy="17" r="3" fill="#2959FF"/>
<circle cx="249" cy="26" r="3" fill="#2959FF"/>
<circle cx="260" cy="26" r="3" fill="#2959FF"/>
<circle cx="11" cy="26" r="3" fill="#2959FF"/>
<rect x="22" y="24" width="18" height="6" rx="3" fill="#2959FF"/>
<rect y="37" width="10" height="6" rx="3" fill="#2959FF"/>
<rect x="62" y="24" width="16" height="6" rx="3" fill="#2959FF"/>
<rect x="99" y="10" width="23" height="6" rx="3" fill="#2959FF"/>
<rect x="152" y="28" width="28" height="6" rx="3" fill="#2959FF"/>
<rect x="180" y="23" width="9" height="6" rx="3" fill="#2959FF"/>
<rect x="211" y="14" width="18" height="6" rx="3" fill="#2959FF"/>
</svg>
