<svg width="45" height="35" viewBox="0 0 45 35" fill="none" xmlns="http://www.w3.org/2000/svg">
<g clip-path="url(#clip0_399_1552)">
<path d="M45 18.8775C45 24.5866 40.4009 29.2095 34.7243 29.2095H34.1502V26.8532H34.7243C39.0987 26.8532 42.6543 23.2761 42.6543 18.8775C42.6543 15.0282 39.9253 11.7327 36.1619 11.0396L34.4857 10.7332L34.2595 9.03444C33.8285 5.79776 31.0533 3.35943 27.8025 3.35943C26.3849 3.35943 25.0381 3.80656 23.9084 4.6575L22.5015 5.71267L21.0978 4.6575C19.968 3.80656 18.6197 3.35943 17.2021 3.35943C13.9498 3.35943 11.1746 5.79776 10.7451 9.03444L10.5189 10.7332L8.84269 11.0396C5.08089 11.7327 2.35036 15.0282 2.35036 18.8775C2.35036 23.2746 5.9059 26.8532 10.2803 26.8532H10.8544V29.2095H10.2803C4.6022 29.211 0 24.5881 0 18.8775C0 13.8121 3.63251 9.6007 8.42095 8.72191C8.99815 4.36354 12.7076 1 17.2021 1C19.1892 1 21.0239 1.65755 22.5 2.76996C23.9807 1.65909 25.8139 1 27.8025 1C32.297 1 36.0065 4.36354 36.5837 8.72191C41.3706 9.6007 45.0015 13.8121 45.0015 18.8775H45ZM30.393 18.9951V21.0513C30.667 20.8935 30.9856 20.8037 31.3242 20.8037C31.6628 20.8037 31.983 20.8935 32.257 21.0513V18.9951C32.257 18.4783 31.8399 18.0591 31.3242 18.0591C30.8101 18.0591 30.3915 18.4783 30.3915 18.9951H30.393ZM24.5117 18.9951V26.8702C24.7857 26.7124 25.1043 26.6226 25.4429 26.6226C25.7816 26.6226 26.1017 26.7124 26.3757 26.8702V18.9951C26.3757 18.4783 25.9586 18.0591 25.4429 18.0591C24.9289 18.0591 24.5117 18.4783 24.5117 18.9951ZM29.471 23.5871C29.6157 22.8584 30.1975 22.2674 30.921 22.1173C32.1431 21.8651 33.2174 22.7949 33.2174 23.977C33.2174 24.6871 32.8296 25.3044 32.257 25.6309V35.0624C32.257 35.5792 31.8399 35.9985 31.3258 35.9985C30.8117 35.9985 30.3945 35.5792 30.3945 35.0624V25.6309C29.7188 25.2456 29.3002 24.455 29.4726 23.5855L29.471 23.5871ZM30.4946 23.977C30.4946 24.4365 30.8671 24.8109 31.3242 24.8109C31.7814 24.8109 32.1539 24.4365 32.1539 23.977C32.1539 23.5175 31.7829 23.143 31.3242 23.143C30.8655 23.143 30.4946 23.5175 30.4946 23.977ZM12.7476 18.9935V28.2719C13.0216 28.1141 13.3402 28.0244 13.6789 28.0244C14.0175 28.0244 14.3376 28.1141 14.6116 28.2719V18.9935C14.6116 18.4768 14.1945 18.0575 13.6789 18.0575C13.1648 18.0575 12.7461 18.4768 12.7461 18.9935H12.7476ZM23.5513 29.7959C23.5513 28.6107 24.6303 27.6778 25.8555 27.9377C26.5789 28.0909 27.1592 28.685 27.3008 29.4153C27.4685 30.2801 27.0514 31.0661 26.3757 31.4498V35.0624C26.3757 35.5792 25.9586 35.9985 25.4445 35.9985C24.9304 35.9985 24.5133 35.5792 24.5133 35.0624V31.4498C23.9391 31.1233 23.5528 30.5045 23.5528 29.7959H23.5513ZM24.6133 29.7959C24.6133 30.2554 24.9858 30.6298 25.4429 30.6298C25.9001 30.6298 26.2726 30.2554 26.2726 29.7959C26.2726 29.3364 25.9016 28.9619 25.4429 28.9619C24.9843 28.9619 24.6133 29.3364 24.6133 29.7959ZM11.8257 30.8093C11.9703 30.0805 12.5522 29.4895 13.2756 29.3394C14.4977 29.0873 15.5721 30.0171 15.5721 31.1991C15.5721 31.9093 15.1842 32.5266 14.6116 32.8531V35.0609C14.6116 35.5776 14.1945 35.9969 13.6804 35.9969C13.1663 35.9969 12.7492 35.5776 12.7492 35.0609V32.8531C12.0735 32.4678 11.6548 31.6772 11.8272 30.8077L11.8257 30.8093ZM12.8492 31.1991C12.8492 31.6587 13.2217 32.0331 13.6789 32.0331C14.136 32.0331 14.5085 31.6587 14.5085 31.1991C14.5085 30.7396 14.1375 30.3652 13.6789 30.3652C13.2202 30.3652 12.8492 30.7396 12.8492 31.1991ZM18.6305 18.9935V23.3318C18.9044 23.174 19.223 23.0843 19.5617 23.0843C19.9003 23.0843 20.2204 23.174 20.4944 23.3318V18.9935C20.4944 18.4768 20.0773 18.0575 19.5617 18.0575C19.0476 18.0575 18.6289 18.4768 18.6289 18.9935H18.6305ZM17.67 26.259C17.67 25.0739 18.749 24.1425 19.9726 24.4009C20.6961 24.5541 21.2779 25.1482 21.4179 25.8769C21.5857 26.7418 21.1686 27.5277 20.4944 27.913V35.0624C20.4944 35.5792 20.0773 35.9985 19.5632 35.9985C19.0491 35.9985 18.632 35.5792 18.632 35.0624V27.913C18.0579 27.5865 17.6715 26.9676 17.6715 26.259H17.67ZM18.732 26.259C18.732 26.7185 19.1045 27.093 19.5617 27.093C20.0188 27.093 20.3913 26.7185 20.3913 26.259C20.3913 25.7995 20.0204 25.4251 19.5617 25.4251C19.103 25.4251 18.732 25.7995 18.732 26.259Z" fill="white"/>
</g>
<defs>
<clipPath id="clip0_399_1552">
<rect width="45" height="35" fill="white"/>
</clipPath>
</defs>
</svg>
