<svg width="76" height="76" viewBox="0 0 76 76" fill="none" xmlns="http://www.w3.org/2000/svg">
<g clip-path="url(#clip0_399_941)">
<path d="M64.8723 64.8717C79.7126 50.0314 79.7126 25.9706 64.8723 11.1303C50.0321 -3.70999 25.9712 -3.70999 11.1309 11.1303C-3.70933 25.9706 -3.70933 50.0314 11.1309 64.8717C25.9712 79.7119 50.0321 79.7119 64.8723 64.8717Z" fill="#2959FF"/>
<path d="M61.109 43.3815H57.4664V30.5299C57.4664 30.0252 57.0536 29.6141 56.5488 29.6141H50.9183V25.177C50.9183 24.2646 50.1794 23.5239 49.2652 23.5239H15.5881C14.6757 23.5239 13.9351 24.2646 13.9351 25.177V46.2748C13.9351 47.1872 14.674 47.9262 15.5881 47.9262H39.3399V52.6512C39.3399 53.156 39.7527 53.5671 40.2558 53.5671H45.0953C45.0953 53.5671 45.0918 53.5584 45.0901 53.5567C45.123 53.5601 45.1543 53.5671 45.1889 53.5671H61.1073C61.6225 53.5671 62.0405 53.1109 62.0405 52.5506V44.3997C62.0405 43.8377 61.6225 43.3833 61.1073 43.3833L61.109 43.3815ZM32.6305 47.3867C32.2732 47.3867 31.9835 47.097 31.9835 46.7397C31.9835 46.3824 32.2732 46.0927 32.6305 46.0927C32.9878 46.0927 33.2775 46.3824 33.2775 46.7397C33.2775 47.097 32.9878 47.3867 32.6305 47.3867ZM39.3382 30.5299V44.797H15.4129V25.5829H49.4404V29.6141H40.2558C39.751 29.6141 39.3399 30.0269 39.3399 30.5299H39.3382ZM48.9374 30.6045C48.9374 30.9011 48.698 31.1405 48.4014 31.1405C48.1048 31.1405 47.8654 30.9011 47.8654 30.6045C47.8654 30.3079 48.1048 30.0685 48.4014 30.0685C48.698 30.0685 48.9374 30.3079 48.9374 30.6045ZM40.2436 50.62V31.6505H56.5575V43.3815H45.1872C44.672 43.3815 44.254 43.8377 44.254 44.398V50.62H40.2419H40.2436ZM45.1144 52.5298C44.8767 52.5298 44.6824 52.3372 44.6824 52.0979C44.6824 51.8585 44.875 51.666 45.1144 51.666C45.3537 51.666 45.5463 51.8585 45.5463 52.0979C45.5463 52.3372 45.3537 52.5298 45.1144 52.5298ZM60.2487 52.8992H46.0146V43.9435H60.2487V52.8992Z" fill="white"/>
<path d="M28.7641 47.6731H36.058C35.8048 48.9272 36.0042 50.3773 36.8594 51.5395H27.9609C28.8161 50.3773 29.0173 48.9272 28.7641 47.6731Z" fill="white"/>
<path d="M41.3536 51.1526H23.4683C22.8022 51.1526 22.261 51.692 22.261 52.3599C22.261 53.0259 22.8004 53.5671 23.4665 53.5671H41.3519C42.018 53.5671 42.5592 53.0277 42.5592 52.3599C42.5592 51.692 42.0197 51.1526 41.3519 51.1526H41.3536Z" fill="white"/>
<path d="M58.2918 47.175C58.1877 47.0675 58.0177 47.0657 57.9102 47.1698L54.8347 50.1672L53.1088 48.7431C53.0169 48.6667 52.8833 48.6598 52.7845 48.7292L48.8296 51.4334V52.0874L52.9215 49.2895L54.6769 50.7379C54.7827 50.8263 54.9388 50.8194 55.0377 50.7222L58.2866 47.5566C58.3941 47.4525 58.3959 47.2808 58.2918 47.175Z" fill="white"/>
<path d="M49.5287 51.9902C49.4281 52.4152 49.0031 52.6771 48.5781 52.5782C48.1532 52.4776 47.8912 52.0526 47.9901 51.6294C48.0907 51.2044 48.5157 50.9425 48.9389 51.0414C49.3639 51.142 49.6258 51.5669 49.5269 51.9902H49.5287Z" fill="white"/>
<path d="M53.7035 49.1335C53.6029 49.5585 53.1779 49.8204 52.7546 49.7215C52.3297 49.6209 52.0677 49.1959 52.1666 48.7727C52.2672 48.3477 52.6922 48.0858 53.1154 48.1847C53.5404 48.2853 53.8023 48.7103 53.7035 49.1335Z" fill="white"/>
<path d="M55.6292 50.6616C55.5286 51.0866 55.1037 51.3485 54.6804 51.2496C54.2554 51.149 53.9935 50.724 54.0924 50.3008C54.193 49.8758 54.618 49.6139 55.0412 49.7128C55.4662 49.8134 55.7281 50.2383 55.6292 50.6616Z" fill="white"/>
<path d="M58.9056 47.5551C58.805 47.9801 58.38 48.242 57.9568 48.1432C57.5318 48.0426 57.2699 47.6176 57.3688 47.1943C57.4694 46.7694 57.8943 46.5074 58.3193 46.6063C58.7443 46.7069 59.0062 47.1319 58.9073 47.5569L58.9056 47.5551Z" fill="white"/>
<path d="M21.1332 34.469H18.2954V43.5357H21.1332V34.469Z" fill="white"/>
<path d="M37.6867 33.1838H34.8489V43.5359H37.6867V33.1838Z" fill="white"/>
<path d="M25.2721 28.032H22.4343V43.5358H25.2721V28.032Z" fill="white"/>
<path d="M29.411 31.4873H26.5732V43.5375H29.411V31.4873Z" fill="white"/>
<path d="M33.5497 29.5271H30.7119V43.5357H33.5497V29.5271Z" fill="white"/>
<path d="M50.9669 44.6497H47.9695V45.3903H50.9669V44.6497Z" fill="white"/>
<path d="M50.9669 46.2715H47.9695V47.0122H50.9669V46.2715Z" fill="white"/>
<path d="M50.9669 47.8933H47.9695V48.634H50.9669V47.8933Z" fill="white"/>
<path d="M51.8531 42.3752C51.5981 40.1497 50.1532 38.4429 48.403 38.4429C46.6528 38.4429 45.2079 40.1497 44.9529 42.3752H51.8531Z" fill="white"/>
<path d="M50.3474 37.078C50.3474 38.1517 49.4767 39.0225 48.403 39.0225C47.3293 39.0225 46.4585 38.1517 46.4585 37.078C46.4585 36.0043 47.3293 35.1335 48.403 35.1335C49.4767 35.1335 50.3474 36.0043 50.3474 37.078Z" fill="white"/>
</g>
<defs>
<clipPath id="clip0_399_941">
<rect width="76" height="76" fill="white"/>
</clipPath>
</defs>
</svg>
