<svg width="20" height="20" viewBox="0 0 20 20" fill="none" xmlns="http://www.w3.org/2000/svg">
<path d="M17.239 2.76909C16.8853 2.40885 16.6601 1.88047 16.5738 1.14165V0.833252H15.9264V1.14132C15.8371 1.89251 15.6119 2.40911 15.2606 2.76041C14.9093 3.11171 14.3927 3.33693 13.6415 3.4262H13.3334V4.07363H13.6418C14.3806 4.15994 14.909 4.38513 15.2693 4.73886C15.6282 5.09128 15.8578 5.60837 15.9264 6.35423V6.66658H16.5738V6.35386C16.6396 5.62029 16.8691 5.0915 17.2304 4.7302C17.5917 4.3689 18.1205 4.13939 18.854 4.07363H19.1668V3.4262H18.8544C18.1085 3.35767 17.5914 3.128 17.239 2.76909Z" fill="#2959FF"/>
<path d="M1.66675 11.6666C4.16919 11.6666 5.78081 12.2196 6.78062 13.2194C7.78042 14.2192 8.33342 15.8308 8.33342 18.3333H10.0001C10.0001 15.8308 10.5531 14.2192 11.5529 13.2194C12.5527 12.2196 14.1643 11.6666 16.6667 11.6666V9.99992C14.1643 9.99992 12.5527 9.44693 11.5529 8.44712C10.5531 7.44731 10.0001 5.83569 10.0001 3.33325H8.33342C8.33342 5.83569 7.78042 7.44731 6.78062 8.44712C5.78081 9.44693 4.16919 9.99992 1.66675 9.99992V11.6666Z" fill="#2959FF"/>
</svg>
