<svg width="24" height="24" viewBox="0 0 24 24" fill="none" xmlns="http://www.w3.org/2000/svg">
<path d="M17.6699 3C16.5654 3 15.6699 3.89543 15.6699 5V19C15.6699 20.1046 16.5654 21 17.6699 21H18.9999C20.1045 21 20.9999 20.1046 20.9999 19V5C20.9999 3.89543 20.1045 3 18.9999 3H17.6699Z" fill="#404241"/>
<path d="M11.3301 8.33398C10.2255 8.33398 9.33008 9.22942 9.33008 10.334V19.0007C9.33008 20.1052 10.2255 21.0007 11.3301 21.0007H12.6601C13.7646 21.0007 14.6601 20.1052 14.6601 19.0006V10.334C14.6601 9.22942 13.7646 8.33398 12.6601 8.33398H11.3301Z" fill="#404241"/>
<path d="M5 12.7773C3.89543 12.7773 3 13.6728 3 14.7773V18.9996C3 20.1041 3.89543 20.9996 5 20.9996H6.33C7.43457 20.9996 8.33 20.1041 8.33 18.9996V14.7773C8.33 13.6728 7.43457 12.7773 6.33 12.7773H5Z" fill="#404241"/>
</svg>
