<svg width="258" height="48" viewBox="0 0 258 48" fill="none" xmlns="http://www.w3.org/2000/svg">
<circle cx="3" cy="17" r="3" fill="#D9D9D9"/>
<circle cx="3" cy="31" r="3" fill="#2959FF"/>
<circle cx="3" cy="45" r="3" fill="#2959FF"/>
<circle cx="17" cy="31" r="3" fill="#D9D9D9"/>
<circle cx="17" cy="45" r="3" fill="#2959FF"/>
<circle cx="31" cy="3" r="3" fill="#D9D9D9"/>
<circle cx="31" cy="17" r="3" fill="#121413"/>
<circle cx="31" cy="31" r="3" fill="#D9D9D9"/>
<circle cx="31" cy="45" r="3" fill="#D9D9D9"/>
<circle cx="45" cy="31" r="3" fill="#2959FF"/>
<circle cx="45" cy="45" r="3" fill="#D9D9D9"/>
<circle cx="59" cy="17" r="3" fill="#D9D9D9"/>
<circle cx="59" cy="31" r="3" fill="#D9D9D9"/>
<circle cx="59" cy="45" r="3" fill="#D9D9D9"/>
<circle cx="73" cy="3" r="3" fill="#D9D9D9"/>
<circle cx="73" cy="17" r="3" fill="#2959FF"/>
<circle cx="73" cy="31" r="3" fill="#D9D9D9"/>
<circle cx="73" cy="45" r="3" fill="#2959FF"/>
<circle cx="87" cy="45" r="3" fill="#D9D9D9"/>
<circle cx="101" cy="3" r="3" fill="#D9D9D9"/>
<circle cx="101" cy="17" r="3" fill="#121413"/>
<circle cx="101" cy="31" r="3" fill="#D9D9D9"/>
<circle cx="101" cy="45" r="3" fill="#121413"/>
<circle cx="115" cy="3" r="3" fill="#D9D9D9"/>
<circle cx="115" cy="17" r="3" fill="#D9D9D9"/>
<circle cx="115" cy="31" r="3" fill="#D9D9D9"/>
<circle cx="115" cy="45" r="3" fill="#D9D9D9"/>
<circle cx="129" cy="31" r="3" fill="#D9D9D9"/>
<circle cx="129" cy="45" r="3" fill="#D9D9D9"/>
<circle cx="143" cy="3" r="3" fill="#D9D9D9"/>
<circle cx="143" cy="17" r="3" fill="#D9D9D9"/>
<circle cx="143" cy="31" r="3" fill="#D9D9D9"/>
<circle cx="143" cy="45" r="3" fill="#D9D9D9"/>
<circle cx="157" cy="45" r="3" fill="#D9D9D9"/>
<circle cx="171" cy="3" r="3" fill="#2959FF"/>
<circle cx="171" cy="17" r="3" fill="#D9D9D9"/>
<circle cx="171" cy="31" r="3" fill="#121413"/>
<circle cx="171" cy="45" r="3" fill="#2959FF"/>
<circle cx="185" cy="31" r="3" fill="#D9D9D9"/>
<circle cx="185" cy="45" r="3" fill="#D9D9D9"/>
<circle cx="199" cy="17" r="3" fill="#D9D9D9"/>
<circle cx="199" cy="31" r="3" fill="#2959FF"/>
<circle cx="199" cy="45" r="3" fill="#D9D9D9"/>
<circle cx="213" cy="3" r="3" fill="#D9D9D9"/>
<circle cx="213" cy="17" r="3" fill="#2959FF"/>
<circle cx="213" cy="31" r="3" fill="#D9D9D9"/>
<circle cx="213" cy="45" r="3" fill="#2959FF"/>
<circle cx="227" cy="45" r="3" fill="#D9D9D9"/>
<circle cx="241" cy="3" r="3" fill="#D9D9D9"/>
<circle cx="241" cy="17" r="3" fill="#D9D9D9"/>
<circle cx="241" cy="31" r="3" fill="#D9D9D9"/>
<circle cx="241" cy="45" r="3" fill="#D9D9D9"/>
<circle cx="255" cy="3" r="3" fill="#D9D9D9"/>
<circle cx="255" cy="17" r="3" fill="#2959FF"/>
<circle cx="255" cy="31" r="3" fill="#2959FF"/>
<circle cx="255" cy="45" r="3" fill="#2959FF"/>
</svg>
