<svg width="196" height="196" viewBox="0 0 196 196" fill="none" xmlns="http://www.w3.org/2000/svg">
<path d="M2 103C0.895431 103 0 102.105 0 101C0 99.8954 0.895431 99 2 99H8V103H2Z" fill="#2959FF"/>
<path d="M2 94C0.895431 94 0 93.1046 0 92C0 90.8954 0.895431 90 2 90H8V94H2Z" fill="#2959FF"/>
<path d="M2 85C0.895431 85 0 84.1046 0 83C0 81.8954 0.895431 81 2 81H8V85H2Z" fill="#2959FF"/>
<path d="M2 76C0.895431 76 0 75.1046 0 74C0 72.8954 0.895431 72 2 72H8V76H2Z" fill="#2959FF"/>
<path d="M2 121C0.895431 121 0 120.105 0 119C0 117.895 0.895431 117 2 117H8V121H2Z" fill="#2959FF"/>
<path d="M2 112C0.895431 112 0 111.105 0 110C0 108.895 0.895431 108 2 108H8V112H2Z" fill="#2959FF"/>
<path d="M194 90C195.105 90 196 90.8954 196 92C196 93.1046 195.105 94 194 94L188 94L188 90L194 90Z" fill="#2959FF"/>
<path d="M194 99C195.105 99 196 99.8954 196 101C196 102.105 195.105 103 194 103L188 103L188 99L194 99Z" fill="#2959FF"/>
<path d="M194 108C195.105 108 196 108.895 196 110C196 111.105 195.105 112 194 112L188 112L188 108L194 108Z" fill="#2959FF"/>
<path d="M194 117C195.105 117 196 117.895 196 119C196 120.105 195.105 121 194 121L188 121L188 117L194 117Z" fill="#2959FF"/>
<path d="M194 72C195.105 72 196 72.8954 196 74C196 75.1046 195.105 76 194 76L188 76L188 72L194 72Z" fill="#2959FF"/>
<path d="M194 81C195.105 81 196 81.8954 196 83C196 84.1046 195.105 85 194 85L188 85L188 81L194 81Z" fill="#2959FF"/>
<path d="M91 2C91 0.895431 91.8954 -1.06779e-08 93 -2.38498e-08C94.1046 -3.70216e-08 95 0.89543 95 2L95 8L91 8L91 2Z" fill="#2959FF"/>
<path d="M100 2C100 0.895431 100.895 -1.06779e-08 102 -2.38498e-08C103.105 -3.70216e-08 104 0.89543 104 2L104 8L100 8L100 2Z" fill="#2959FF"/>
<path d="M109 2C109 0.895431 109.895 -1.06779e-08 111 -2.38498e-08C112.105 -3.70216e-08 113 0.89543 113 2L113 8L109 8L109 2Z" fill="#2959FF"/>
<path d="M118 2C118 0.895431 118.895 -1.06779e-08 120 -2.38498e-08C121.105 -3.70216e-08 122 0.89543 122 2L122 8L118 8L118 2Z" fill="#2959FF"/>
<path d="M73 2C73 0.895431 73.8954 -1.06779e-08 75 -2.38498e-08C76.1046 -3.70216e-08 77 0.89543 77 2L77 8L73 8L73 2Z" fill="#2959FF"/>
<path d="M82 2C82 0.895431 82.8954 -1.06779e-08 84 -2.38498e-08C85.1046 -3.70216e-08 86 0.89543 86 2L86 8L82 8L82 2Z" fill="#2959FF"/>
<path d="M104 194C104 195.105 103.105 196 102 196C100.895 196 100 195.105 100 194L100 188L104 188L104 194Z" fill="#2959FF"/>
<path d="M95 194C95 195.105 94.1046 196 93 196C91.8954 196 91 195.105 91 194L91 188L95 188L95 194Z" fill="#2959FF"/>
<path d="M86 194C86 195.105 85.1046 196 84 196C82.8954 196 82 195.105 82 194L82 188L86 188L86 194Z" fill="#2959FF"/>
<path d="M77 194C77 195.105 76.1046 196 75 196C73.8954 196 73 195.105 73 194L73 188L77 188L77 194Z" fill="#2959FF"/>
<path d="M122 194C122 195.105 121.105 196 120 196C118.895 196 118 195.105 118 194L118 188L122 188L122 194Z" fill="#2959FF"/>
<path d="M113 194C113 195.105 112.105 196 111 196C109.895 196 109 195.105 109 194L109 188L113 188L113 194Z" fill="#2959FF"/>
</svg>
