<svg width="38" height="31" viewBox="0 0 38 31" fill="none" xmlns="http://www.w3.org/2000/svg">
<path d="M24.1128 8.42226C24.8548 8.42226 25.5664 8.12767 26.0905 7.60347L28.1752 5.51848C28.4341 5.25956 28.5978 4.921 28.6399 4.55762C28.7009 4.03034 28.5036 3.5017 28.0857 3.17333C26.3296 1.79318 24.2816 0.824731 22.0928 0.344678C19.6275 -0.196039 17.0651 -0.0992692 14.6475 0.625847C12.23 1.35096 10.0372 2.68049 8.27628 4.48883C6.76345 6.04239 5.61229 7.9053 4.89891 9.94412C4.7551 10.3551 5.20218 10.7754 5.62927 10.8639C5.704 10.8794 5.78161 10.8848 5.85692 10.8724L12.0156 9.85662C12.2271 9.82173 12.3784 9.74045 12.507 9.56918C12.6613 9.36353 12.9631 9.16182 13.1456 8.98059C14.5328 7.60286 16.3687 6.75985 18.3271 6.61089C20.4158 6.45202 22.4864 7.09468 24.1179 8.40769C24.124 8.41254 24.1206 8.42226 24.1128 8.42226Z" fill="#EA4335"/>
<path d="M35.127 12.5423C34.0569 11.3913 33.1066 10.1025 32.4537 8.67389C32.0133 7.71019 31.4714 6.79671 30.8376 5.94894C29.8218 4.59011 27.8575 4.66533 26.6576 5.86537C25.3193 7.20391 25.5051 9.41181 26.3398 11.1094C26.3684 11.1676 26.3963 11.2261 26.4236 11.285C26.9476 12.4175 27.2076 13.6542 27.1841 14.9018C27.1841 15.3563 27.5569 15.7165 28.0032 15.8069C28.2627 15.8595 28.5172 15.9371 28.763 16.0389C29.2636 16.2463 29.7185 16.5503 30.1016 16.9334C30.4848 17.3166 30.7887 17.7715 30.996 18.2722C31.2034 18.7728 31.3101 19.3095 31.3101 19.8514C31.3101 20.3933 31.2034 20.9299 30.996 21.4305C30.7887 21.9312 30.4848 22.3861 30.1016 22.7693C29.7185 23.1525 29.2636 23.4564 28.763 23.6638C28.2624 23.8712 27.7259 23.9779 27.1841 23.9779H19.5252C19.1457 23.9779 18.782 24.13 18.5158 24.3999C18.2552 24.6643 18.1091 25.0204 18.1091 25.3913V29.1816C18.1091 29.5533 18.2568 29.9098 18.5199 30.1729C18.7837 30.4368 19.1418 30.585 19.5153 30.585H27.1841C29.4884 30.603 31.7374 29.8786 33.5982 28.5192C35.4591 27.1597 36.833 25.2373 37.5167 23.0364C38.2004 20.8354 38.1577 18.4728 37.3948 16.2981C36.9026 14.8952 36.1276 13.6185 35.127 12.5423Z" fill="#4285F4"/>
<path d="M10.6683 30.5396H15.6104C17.4385 30.5396 18.9204 29.0606 18.9204 27.2361C18.9204 25.4116 17.4385 23.9325 15.6104 23.9325H10.6683C10.3275 23.9324 9.989 23.8899 9.66049 23.8066C9.19932 23.6896 8.71329 23.6395 8.25889 23.7804C7.96109 23.8727 7.69011 24.0356 7.46907 24.2551L4.7309 26.9745C4.56625 27.138 4.4495 27.3434 4.39327 27.5683C4.26967 28.0628 4.45002 28.5892 4.88021 28.8637C6.60357 29.9635 8.61222 30.5485 10.6683 30.5396Z" fill="#34A853"/>
<path d="M10.6683 9.10591C8.43234 9.11927 6.25641 9.83072 4.44441 11.1409C2.6324 12.4511 1.2748 14.2946 0.561214 16.4139C-0.152367 18.5332 -0.18629 20.8225 0.464183 22.962C0.86436 24.2782 1.51127 25.4974 2.36257 26.5581C3.27972 27.701 4.96557 27.5715 6.00188 26.535L7.56739 24.9693C8.24887 24.2878 8.01761 23.1005 7.42421 22.3413C7.01313 21.8154 6.73576 21.1975 6.61592 20.5408C6.49607 19.8841 6.53732 19.2081 6.73613 18.5708C6.93494 17.9335 7.28537 17.354 7.75736 16.882C8.22935 16.4099 8.80879 16.0595 9.44599 15.8606C10.0832 15.6618 10.7591 15.6205 11.4157 15.7404C12.0724 15.8602 12.6901 16.1376 13.216 16.5488C13.9746 17.1418 15.1638 17.3721 15.8444 16.6913L17.4212 15.1143C18.4524 14.083 18.5841 12.4105 17.4502 11.4928C16.8316 10.9922 16.1571 10.5603 15.4383 10.2067C13.9544 9.47677 12.3219 9.10002 10.6683 9.10591Z" fill="#FBBC05"/>
</svg>
