<svg width="1440" height="582" viewBox="0 0 1440 582" fill="none" xmlns="http://www.w3.org/2000/svg">
<g opacity="0.3" clip-path="url(#clip0_399_535)">
<line x1="20.5" y1="-400" x2="20.5" y2="512" stroke="#E5E5E5"/>
<line x1="76.5" y1="-400" x2="76.5" y2="512" stroke="#E5E5E5"/>
<line x1="132.5" y1="-400" x2="132.5" y2="512" stroke="#E5E5E5"/>
<line x1="188.5" y1="-400" x2="188.5" y2="512" stroke="#E5E5E5"/>
<line x1="244.5" y1="-400" x2="244.5" y2="512" stroke="#E5E5E5"/>
<line x1="300.5" y1="-400" x2="300.5" y2="512" stroke="#E5E5E5"/>
<line x1="356.5" y1="-400" x2="356.5" y2="512" stroke="#E5E5E5"/>
<line x1="412.5" y1="-400" x2="412.5" y2="512" stroke="#E5E5E5"/>
<line x1="468.5" y1="-400" x2="468.5" y2="512" stroke="#E5E5E5"/>
<line x1="524.5" y1="-400" x2="524.5" y2="512" stroke="#E5E5E5"/>
<line x1="580.5" y1="-400" x2="580.501" y2="512" stroke="#E5E5E5"/>
<line x1="636.5" y1="-400" x2="636.501" y2="512" stroke="#E5E5E5"/>
<line x1="692.5" y1="-400" x2="692.501" y2="512" stroke="#E5E5E5"/>
<line x1="748.5" y1="-400" x2="748.501" y2="512" stroke="#E5E5E5"/>
<line x1="804.501" y1="-400" x2="804.501" y2="512" stroke="#E5E5E5"/>
<line x1="860.501" y1="-400" x2="860.501" y2="512" stroke="#E5E5E5"/>
<line x1="916.501" y1="-400" x2="916.501" y2="512" stroke="#E5E5E5"/>
<line x1="972.501" y1="-400" x2="972.501" y2="512" stroke="#E5E5E5"/>
<line x1="1028.5" y1="-400" x2="1028.5" y2="512" stroke="#E5E5E5"/>
<line x1="1084.5" y1="-400" x2="1084.5" y2="512" stroke="#E5E5E5"/>
<line x1="1140.5" y1="-400" x2="1140.5" y2="512" stroke="#E5E5E5"/>
<line x1="1196.5" y1="-400" x2="1196.5" y2="512" stroke="#E5E5E5"/>
<line x1="1252.5" y1="-400" x2="1252.5" y2="512" stroke="#E5E5E5"/>
<line x1="1308.5" y1="-400" x2="1308.5" y2="512" stroke="#E5E5E5"/>
<line x1="1364.5" y1="-400" x2="1364.5" y2="512" stroke="#E5E5E5"/>
<line x1="1420.5" y1="-400" x2="1420.5" y2="512" stroke="#E5E5E5"/>
<line x1="-396" y1="55.5" x2="1044" y2="55.5" stroke="#E5E5E5"/>
<line x1="-396" y1="111.5" x2="1044" y2="111.5" stroke="#E5E5E5"/>
<line x1="-396" y1="167.5" x2="1044" y2="167.5" stroke="#E5E5E5"/>
<line x1="-396" y1="357.5" x2="1044" y2="357.5" stroke="#E5E5E5"/>
<line x1="-396" y1="413.5" x2="1044" y2="413.5" stroke="#E5E5E5"/>
<line x1="-396" y1="469.5" x2="1044" y2="469.5" stroke="#E5E5E5"/>
<line x1="-396" y1="525.5" x2="1044" y2="525.5" stroke="#E5E5E5"/>
<line x1="-396" y1="581.5" x2="1044" y2="581.5" stroke="#E5E5E5"/>
</g>
<defs>
<clipPath id="clip0_399_535">
<rect width="1440" height="582" fill="white"/>
</clipPath>
</defs>
</svg>
