<svg width="46" height="44" viewBox="0 0 46 44" fill="none" xmlns="http://www.w3.org/2000/svg">
<path d="M12.689 25.656C12.9477 26.4836 13.3083 27.2682 13.7566 27.996H10.466C4.68587 27.996 0 23.4065 0 17.7422C0 12.7136 3.69665 8.53562 8.57378 7.6604C9.16167 3.33655 12.943 0 17.5191 0C19.543 0 21.4117 0.651034 22.9167 1.75349C24.4217 0.651034 26.2904 0 28.3143 0C32.8905 0 36.6702 3.33655 37.2597 7.6604C42.1368 8.53562 45.8334 12.7136 45.8334 17.7422C45.8334 23.4065 41.1476 27.996 35.3643 27.996H32.0753C32.5236 27.2697 32.8842 26.4851 33.1429 25.656H35.3643C39.8197 25.656 43.4443 22.106 43.4443 17.7422C43.4443 13.922 40.6632 10.6499 36.8301 9.96206L35.1229 9.6565L34.8924 7.97057C34.4535 4.75992 31.6269 2.3385 28.3143 2.3385C26.8689 2.3385 25.4987 2.78532 24.3465 3.62829L22.9167 4.67394L21.487 3.62829C20.3347 2.78532 18.9645 2.3385 17.5191 2.3385C14.2066 2.3385 11.38 4.75992 10.941 7.97057L10.7106 9.6565L9.00333 9.96206C5.17029 10.6499 2.38918 13.922 2.38918 17.7422C2.38918 22.106 6.01372 25.656 10.4676 25.656H12.6906H12.689ZM15.8009 30.4036C15.478 32.1663 14.9543 33.8906 14.2238 35.5597L14.0137 36.0418C14.4323 36.4456 14.6957 37.0076 14.6957 37.6326C14.6957 38.8747 13.6704 39.8789 12.4053 39.8789C11.1401 39.8789 10.1148 38.8747 10.1148 37.6326C10.1148 36.8986 10.4754 36.2491 11.0288 35.8422C11.4113 35.5566 11.8895 35.3893 12.4068 35.3893C12.4288 35.3893 12.4492 35.3908 12.4695 35.3908L12.6796 34.9087C13.5356 32.9555 14.0827 30.9195 14.3335 28.8328C14.7678 29.404 15.2616 29.9292 15.8025 30.4036H15.8009ZM13.5058 37.631C13.5058 37.0399 13.0088 36.5547 12.4053 36.5547C11.8017 36.5547 11.3063 37.0383 11.3063 37.631C11.3063 38.2237 11.7986 38.7074 12.4053 38.7074C13.012 38.7074 13.5058 38.2252 13.5058 37.631ZM25.2636 32.8035C25.8483 32.6746 26.4143 32.5011 26.9583 32.283L27.3251 39.6701C27.5179 39.7438 27.6982 39.8421 27.8597 39.9634C28.4178 40.3703 28.7752 41.0198 28.7752 41.7537C28.7752 42.9959 27.7515 44.0001 26.4801 44.0001C25.2087 44.0001 24.1913 42.9959 24.1913 41.7537C24.1913 41.0198 24.5518 40.3687 25.1084 39.9619C25.2714 39.8421 25.4501 39.7423 25.643 39.6686L25.262 32.8035H25.2636ZM25.3827 41.7522C25.3827 42.3464 25.8797 42.8285 26.4817 42.8285C27.0837 42.8285 27.5822 42.3464 27.5822 41.7522C27.5822 41.158 27.0915 40.6758 26.4817 40.6758C25.8718 40.6758 25.3827 41.158 25.3827 41.7522ZM31.5015 28.8313C31.7507 30.9211 32.2979 32.9571 33.1554 34.9087L33.3655 35.3908C33.3859 35.3908 33.4062 35.3893 33.4282 35.3893C33.9455 35.3893 34.4237 35.5566 34.8062 35.8422C35.3596 36.2491 35.7202 36.8986 35.7202 37.6326C35.7202 38.8747 34.6949 39.8789 33.4298 39.8789C32.1646 39.8789 31.1393 38.8747 31.1393 37.6326C31.1393 37.0092 31.4011 36.4472 31.8213 36.0418L31.6112 35.5597C30.8807 33.8906 30.3571 32.1663 30.0341 30.4036C30.5765 29.9307 31.0704 29.404 31.5046 28.8328L31.5015 28.8313ZM32.3261 37.631C32.3261 38.2252 32.8231 38.7074 33.4266 38.7074C34.0302 38.7074 34.5256 38.2252 34.5256 37.631C34.5256 37.0368 34.0333 36.5547 33.4266 36.5547C32.8199 36.5547 32.3261 37.0383 32.3261 37.631ZM18.8736 32.283C19.4176 32.5011 19.9835 32.6746 20.5683 32.8035L20.1873 39.6701C20.3802 39.7438 20.562 39.8421 20.7219 39.9634C21.28 40.3703 21.639 41.0198 21.639 41.7537C21.639 42.9959 20.6138 44.0001 19.3439 44.0001C18.0741 44.0001 17.0551 42.9959 17.0551 41.7537C17.0551 41.0198 17.4125 40.3687 17.9706 39.9619C18.1337 39.8421 18.3139 39.7423 18.5052 39.6686L18.872 32.2846L18.8736 32.283ZM19.3439 40.6758C18.7404 40.6758 18.245 41.158 18.245 41.7522C18.245 42.3464 18.7388 42.8285 19.3439 42.8285C19.9491 42.8285 20.4429 42.3464 20.4429 41.7522C20.4429 41.158 19.9522 40.6758 19.3439 40.6758ZM30.1313 24.4614C29.9949 24.4798 29.8852 24.5766 29.8444 24.7055C29.7143 25.114 29.5481 25.5055 29.3459 25.8786C29.2816 25.9984 29.2894 26.1427 29.3725 26.2517L30.2849 27.4402C30.379 27.563 30.3837 27.7335 30.2912 27.8578C29.7347 28.6056 29.0621 29.2628 28.3018 29.8063C28.1748 29.8969 28.0008 29.8923 27.8754 29.8002L26.6635 28.9081C26.5522 28.8267 26.4033 28.8175 26.281 28.8804C25.9032 29.0754 25.5019 29.2397 25.0864 29.3657C24.9532 29.4056 24.8544 29.5146 24.8356 29.6497L24.624 31.1222C24.602 31.2742 24.4829 31.3971 24.3292 31.4201C23.8699 31.4923 23.3964 31.5291 22.9167 31.5291C22.437 31.5291 21.9667 31.4923 21.5074 31.4201C21.3537 31.3955 21.2346 31.2727 21.2126 31.1222L21.001 29.6497C20.9822 29.5146 20.8818 29.4056 20.7502 29.3657C20.3347 29.2397 19.9349 29.0754 19.5556 28.8804C19.4317 28.8175 19.2843 28.8252 19.173 28.9081L17.9565 29.8017C17.8311 29.8938 17.6571 29.8985 17.5301 29.8079C16.7697 29.2628 16.0988 28.6071 15.5438 27.8624C15.4513 27.7381 15.456 27.5676 15.5485 27.4448L16.4625 26.2487C16.5456 26.1396 16.5534 25.9953 16.4891 25.8756C16.2885 25.504 16.1223 25.114 15.9906 24.7055C15.9498 24.5766 15.8401 24.4814 15.7037 24.4614L14.2003 24.2495C14.0466 24.228 13.9212 24.1113 13.8961 23.9608C13.8225 23.5125 13.7848 23.0534 13.7848 22.5835C13.7848 22.1137 13.8225 21.6515 13.8961 21.2001C13.9212 21.0496 14.0466 20.9329 14.2003 20.9114L15.7021 20.7026C15.8385 20.6842 15.9498 20.5874 15.9906 20.4585C16.1207 20.0485 16.2869 19.6569 16.486 19.2854C16.5503 19.1656 16.5424 19.0228 16.4593 18.9138L15.5485 17.7207C15.4544 17.5979 15.4513 17.4275 15.5438 17.3031C16.1003 16.5584 16.7713 15.9027 17.5301 15.3577C17.6571 15.2671 17.8311 15.2701 17.9565 15.3623L19.1699 16.2528C19.2812 16.3342 19.427 16.3419 19.5493 16.2789C19.9318 16.0809 20.3331 15.9181 20.7517 15.7907C20.8834 15.7507 20.9806 15.6417 21.001 15.5081L21.2142 14.0402C21.2361 13.8882 21.3553 13.7654 21.5089 13.7424C21.9683 13.6702 22.4386 13.6333 22.9183 13.6333C23.398 13.6333 23.8715 13.6702 24.3308 13.7424C24.4844 13.7669 24.6036 13.8898 24.6255 14.0402L24.8387 15.5081C24.8575 15.6417 24.9563 15.7492 25.088 15.7907C25.505 15.9181 25.9063 16.0809 26.2857 16.2789C26.408 16.3419 26.5554 16.3342 26.6667 16.2528L27.8801 15.3623C28.0055 15.2701 28.1795 15.2655 28.3065 15.3561C29.0684 15.9012 29.7409 16.5569 30.2975 17.3062C30.39 17.4305 30.3853 17.601 30.2912 17.7238L29.3819 18.9138C29.2989 19.0228 29.291 19.1656 29.3553 19.2854C29.5544 19.6569 29.7206 20.0485 29.8507 20.4585C29.8914 20.5874 30.0028 20.6842 30.1391 20.7026L31.641 20.9114C31.7962 20.9329 31.9216 21.0496 31.9451 21.2001C32.0188 21.6515 32.0564 22.1137 32.0564 22.5835C32.0564 23.0534 32.0188 23.5125 31.9451 23.9608C31.9201 24.1113 31.7946 24.228 31.641 24.2495L30.1376 24.4614H30.1313ZM28.1105 22.5805C28.1105 19.7721 25.7856 17.4904 22.9136 17.4904C20.0415 17.4904 17.7213 19.7721 17.7213 22.5805C17.7213 25.3888 20.0431 27.6705 22.9136 27.6705C25.7841 27.6705 28.1105 25.3934 28.1105 22.5805ZM22.9167 19.485C21.1703 19.485 19.7547 20.8715 19.7547 22.582C19.7547 24.2925 21.1703 25.679 22.9167 25.679C24.6631 25.679 26.0788 24.2925 26.0788 22.582C26.0788 20.8715 24.6631 19.485 22.9167 19.485Z" fill="white"/>
</svg>
