<svg width="400" height="400" viewBox="0 0 400 400" fill="none" xmlns="http://www.w3.org/2000/svg">
<rect x="0.5" y="0.5" width="399" height="399" rx="7.5" fill="#F7F8FA"/>
<rect x="0.5" y="0.5" width="399" height="399" rx="7.5" stroke="#E9E9E9"/>
<g clip-path="url(#clip0_399_1018)">
<g filter="url(#filter0_d_399_1018)">
<path d="M157 16C157 13.7909 158.791 12 161 12H238.387C240.596 12 242.387 13.7909 242.387 16V94C242.387 96.2091 240.596 98 238.387 98H161C158.791 98 157 96.2091 157 94V16Z" fill="white" shape-rendering="crispEdges"/>
<g style="mix-blend-mode:luminosity">
<path fill-rule="evenodd" clip-rule="evenodd" d="M207.086 44.9512H190.914C185.672 44.9512 181.422 49.2264 181.422 54.5C181.422 59.7736 185.672 64.0488 190.914 64.0488H207.086C212.328 64.0488 216.578 59.7736 216.578 54.5C216.578 49.2264 212.328 44.9512 207.086 44.9512ZM190.914 40C182.953 40 176.5 46.4919 176.5 54.5C176.5 62.5081 182.953 69 190.914 69H207.086C215.047 69 221.5 62.5081 221.5 54.5C221.5 46.4919 215.047 40 207.086 40H190.914Z" fill="#C74634"/>
</g>
</g>
<g filter="url(#filter1_d_399_1018)">
<path d="M157 126C157 123.791 158.791 122 161 122H238.387C240.596 122 242.387 123.791 242.387 126V204C242.387 206.209 240.596 208 238.387 208H161C158.791 208 157 206.209 157 204V126Z" fill="white" shape-rendering="crispEdges"/>
<path d="M192.24 149H202.524L191.863 179.913C191.645 180.573 191.009 181 190.315 181H182.294C181.381 181 180.666 180.282 180.666 179.409C180.666 179.234 180.686 179.059 180.745 178.904L190.692 150.087C190.91 149.446 191.545 149 192.24 149Z" fill="url(#paint0_linear_399_1018)"/>
<path d="M207.19 169.725H190.89C190.473 169.725 190.136 170.055 190.136 170.462C190.136 170.676 190.215 170.87 190.374 171.006L200.857 180.553C201.154 180.825 201.571 180.98 201.988 180.98H211.22L207.19 169.725Z" fill="#2959FF"/>
<path d="M192.241 149C191.526 149 190.891 149.446 190.692 150.106L180.766 178.846C180.468 179.68 180.905 180.593 181.758 180.884C181.937 180.942 182.116 180.981 182.314 180.981H190.513C191.129 180.864 191.645 180.437 191.863 179.855L193.849 174.15L200.916 180.631C201.214 180.864 201.591 181 201.969 181H211.161L207.13 169.725H195.377L202.564 149H192.241Z" fill="url(#paint1_linear_399_1018)"/>
<path d="M205.383 150.087C205.165 149.427 204.529 149 203.834 149H192.379C193.074 149 193.709 149.446 193.928 150.087L203.854 178.885C204.152 179.719 203.676 180.631 202.822 180.903C202.663 180.961 202.484 180.981 202.306 180.981H213.761C214.674 180.981 215.389 180.263 215.389 179.389C215.389 179.215 215.369 179.04 215.31 178.885L205.383 150.087Z" fill="url(#paint2_linear_399_1018)"/>
</g>
<g filter="url(#filter2_d_399_1018)">
<path d="M157 239C157 236.791 158.791 235 161 235H238.387C240.596 235 242.387 236.791 242.387 239V317C242.387 319.209 240.596 321 238.387 321H161C158.791 321 157 319.209 157 317V239Z" fill="white" shape-rendering="crispEdges"/>
<g style="mix-blend-mode:luminosity">
<path d="M190.62 275.381C190.62 275.821 190.679 276.173 190.738 276.437C190.827 276.701 190.945 276.965 191.122 277.288C191.181 277.376 191.211 277.464 191.211 277.552C191.211 277.67 191.152 277.787 190.974 277.905L190.235 278.403C190.117 278.462 190.028 278.521 189.94 278.521C189.822 278.521 189.703 278.462 189.585 278.345C189.408 278.169 189.289 277.993 189.171 277.787C189.053 277.582 188.935 277.376 188.817 277.083C187.9 278.169 186.747 278.697 185.329 278.697C184.324 278.697 183.555 278.403 182.964 277.846C182.373 277.288 182.077 276.525 182.077 275.586C182.077 274.588 182.432 273.766 183.141 273.179C183.851 272.592 184.826 272.27 186.038 272.27C186.452 272.27 186.866 272.299 187.279 272.358C187.723 272.416 188.166 272.504 188.639 272.622V271.771C188.639 270.89 188.462 270.245 188.078 269.892C187.693 269.54 187.073 269.364 186.156 269.364C185.742 269.364 185.329 269.423 184.885 269.511C184.442 269.628 184.028 269.746 183.614 269.922C183.437 269.98 183.289 270.039 183.2 270.069C183.112 270.069 183.053 270.098 183.023 270.098C182.846 270.098 182.787 269.98 182.787 269.746V269.159C182.787 268.983 182.816 268.836 182.875 268.748C182.934 268.66 183.053 268.572 183.2 268.513C183.614 268.308 184.117 268.132 184.678 267.985C185.269 267.838 185.861 267.75 186.511 267.75C187.93 267.75 188.935 268.073 189.615 268.689C190.265 269.335 190.59 270.274 190.59 271.595L190.62 275.381ZM185.831 277.171C186.215 277.171 186.629 277.112 187.043 276.965C187.457 276.819 187.841 276.554 188.166 276.202C188.344 275.968 188.491 275.733 188.58 275.439C188.639 275.146 188.698 274.823 188.698 274.412V273.913C188.344 273.825 187.989 273.766 187.605 273.708C187.22 273.649 186.866 273.649 186.481 273.649C185.683 273.649 185.122 273.796 184.708 274.119C184.324 274.441 184.117 274.882 184.117 275.469C184.117 276.026 184.264 276.437 184.56 276.701C184.856 277.053 185.269 277.171 185.831 277.171ZM195.319 278.462C195.113 278.462 194.965 278.433 194.876 278.345C194.787 278.286 194.699 278.11 194.64 277.875L191.861 268.777C191.802 268.542 191.743 268.396 191.743 268.308C191.743 268.132 191.832 268.014 192.038 268.014H193.191C193.428 268.014 193.575 268.043 193.664 268.132C193.753 268.19 193.842 268.366 193.901 268.601L195.881 276.378L197.714 268.601C197.773 268.366 197.832 268.22 197.95 268.132C198.039 268.073 198.216 268.014 198.423 268.014H199.369C199.605 268.014 199.753 268.043 199.842 268.132C199.931 268.19 200.019 268.366 200.078 268.601L201.941 276.466L203.98 268.601C204.039 268.366 204.128 268.22 204.217 268.132C204.305 268.073 204.453 268.014 204.69 268.014H205.783C205.961 268.014 206.079 268.102 206.079 268.308C206.079 268.366 206.079 268.425 206.049 268.484C206.049 268.542 206.02 268.66 205.961 268.777L203.093 277.875C203.034 278.11 202.946 278.257 202.857 278.345C202.768 278.403 202.62 278.462 202.414 278.462H201.409C201.172 278.462 201.024 278.433 200.936 278.345C200.847 278.257 200.758 278.11 200.699 277.875L198.867 270.303L197.034 277.875C196.975 278.11 196.916 278.257 196.797 278.345C196.709 278.433 196.531 278.462 196.324 278.462H195.319ZM210.542 278.756C209.921 278.756 209.301 278.697 208.71 278.55C208.118 278.403 207.645 278.257 207.35 278.081C207.173 277.963 207.025 277.846 206.995 277.758C206.966 277.67 206.906 277.523 206.906 277.435V276.848C206.906 276.613 206.995 276.496 207.173 276.496C207.232 276.496 207.32 276.496 207.379 276.525C207.439 276.554 207.557 276.584 207.675 276.643C208.089 276.819 208.503 276.965 208.976 277.053C209.449 277.141 209.921 277.2 210.394 277.2C211.133 277.2 211.725 277.083 212.109 276.819C212.523 276.554 212.73 276.173 212.73 275.703C212.73 275.381 212.611 275.116 212.404 274.882C212.197 274.647 211.784 274.471 211.222 274.265L209.508 273.737C208.65 273.473 208 273.062 207.616 272.534C207.232 272.006 207.025 271.448 207.025 270.832C207.025 270.333 207.143 269.892 207.35 269.54C207.557 269.188 207.852 268.836 208.207 268.572C208.562 268.308 208.976 268.102 209.449 267.955C209.921 267.809 210.424 267.75 210.926 267.75C211.192 267.75 211.459 267.75 211.725 267.809C211.991 267.838 212.257 267.897 212.493 267.926C212.73 267.985 212.966 268.043 213.173 268.102C213.38 268.161 213.557 268.249 213.675 268.308C213.853 268.396 213.971 268.484 214.03 268.601C214.089 268.689 214.148 268.836 214.148 268.983V269.54C214.148 269.775 214.06 269.922 213.882 269.922C213.794 269.922 213.646 269.863 213.439 269.775C212.759 269.482 212.02 269.305 211.163 269.305C210.483 269.305 209.951 269.423 209.596 269.628C209.242 269.834 209.035 270.186 209.035 270.685C209.035 271.008 209.153 271.301 209.389 271.507C209.626 271.741 210.069 271.947 210.69 272.152L212.375 272.681C213.232 272.945 213.853 273.326 214.207 273.796C214.562 274.265 214.74 274.823 214.74 275.439C214.74 275.938 214.621 276.408 214.444 276.789C214.237 277.2 213.941 277.552 213.587 277.816C213.232 278.11 212.789 278.315 212.286 278.462C211.695 278.697 211.133 278.756 210.542 278.756Z" fill="#252F3E"/>
<path fill-rule="evenodd" clip-rule="evenodd" d="M212.789 284.479C208.887 287.326 203.212 288.852 198.364 288.852C191.536 288.852 185.388 286.358 180.747 282.19C180.392 281.867 180.718 281.427 181.161 281.662C186.186 284.567 192.364 286.299 198.778 286.299C203.094 286.299 207.853 285.418 212.227 283.569C212.848 283.305 213.41 284.01 212.789 284.479Z" fill="#FF9900"/>
<path fill-rule="evenodd" clip-rule="evenodd" d="M214.385 282.66C213.882 282.014 211.104 282.366 209.833 282.513C209.448 282.571 209.389 282.219 209.744 281.985C211.961 280.429 215.626 280.869 216.04 281.398C216.454 281.926 215.922 285.565 213.853 287.297C213.527 287.561 213.232 287.414 213.38 287.062C213.853 285.888 214.887 283.276 214.385 282.66Z" fill="#FF9900"/>
</g>
</g>
<g filter="url(#filter3_d_399_1018)">
<path d="M157 350C157 347.791 158.791 346 161 346H238.387C240.596 346 242.387 347.791 242.387 350V428C242.387 430.209 240.596 432 238.387 432H161C158.791 432 157 430.209 157 428V350Z" fill="white" shape-rendering="crispEdges"/>
<g style="mix-blend-mode:luminosity">
<path d="M204.566 381.812H205.776L209.225 378.355L209.395 376.888C207.419 375.14 205.031 373.926 202.457 373.361C199.882 372.795 197.207 372.896 194.682 373.655C192.158 374.413 189.868 375.804 188.029 377.696C186.191 379.588 184.864 381.919 184.173 384.468C184.558 384.31 184.983 384.284 185.384 384.395L192.282 383.255C192.282 383.255 192.633 382.673 192.815 382.709C194.293 381.083 196.335 380.083 198.524 379.917C200.714 379.75 202.884 380.428 204.59 381.812H204.566Z" fill="#EA4335"/>
<path d="M214.139 384.468C213.346 381.542 211.718 378.912 209.455 376.9L204.614 381.751C205.623 382.577 206.432 383.622 206.979 384.807C207.526 385.992 207.798 387.286 207.773 388.591V389.452C208.339 389.452 208.899 389.564 209.422 389.781C209.945 389.998 210.419 390.316 210.82 390.717C211.22 391.118 211.537 391.594 211.754 392.117C211.97 392.641 212.081 393.203 212.081 393.77C212.081 394.337 211.97 394.898 211.754 395.422C211.537 395.946 211.22 396.422 210.82 396.822C210.419 397.223 209.945 397.541 209.422 397.758C208.899 397.975 208.339 398.087 207.773 398.087H199.156L198.297 398.96V404.139L199.156 405H207.773C210.179 405.018 212.528 404.261 214.471 402.838C216.414 401.416 217.848 399.405 218.562 397.102C219.276 394.799 219.232 392.327 218.435 390.052C217.638 387.777 216.132 385.819 214.139 384.468Z" fill="#4285F4"/>
<path d="M190.527 404.952H199.144V398.039H190.527C189.913 398.039 189.306 397.907 188.748 397.651L187.538 398.027L184.064 401.484L183.762 402.696C185.71 404.17 188.086 404.963 190.527 404.952Z" fill="#34A853"/>
<path d="M190.527 382.527C188.192 382.541 185.92 383.285 184.028 384.656C182.136 386.027 180.718 387.956 179.973 390.173C179.228 392.39 179.193 394.786 179.872 397.024C180.551 399.263 181.911 401.233 183.762 402.659L188.76 397.65C188.125 397.363 187.569 396.925 187.14 396.375C186.71 395.824 186.421 395.178 186.296 394.491C186.17 393.804 186.214 393.097 186.421 392.43C186.629 391.763 186.995 391.157 187.487 390.663C187.98 390.169 188.585 389.802 189.251 389.594C189.916 389.386 190.622 389.343 191.308 389.468C191.993 389.594 192.638 389.884 193.187 390.314C193.737 390.744 194.173 391.302 194.46 391.938L199.459 386.929C198.41 385.555 197.057 384.443 195.508 383.679C193.959 382.915 192.254 382.521 190.527 382.527Z" fill="#FBBC05"/>
</g>
</g>
</g>
<g clip-path="url(#clip1_399_1018)">
<line x1="31.5" y1="-2.18557e-08" x2="31.5" y2="400" stroke="#E9E9E9"/>
<line x1="143.5" y1="-2.18557e-08" x2="143.5" y2="400" stroke="#E9E9E9"/>
<line x1="255.5" y1="-2.18557e-08" x2="255.5" y2="400" stroke="#E9E9E9"/>
<line x1="367.5" y1="-2.18557e-08" x2="367.5" y2="400" stroke="#E9E9E9"/>
<line x1="-486" y1="108.5" x2="954" y2="108.5" stroke="#E9E9E9"/>
<line x1="-29" y1="222.5" x2="1411" y2="222.5" stroke="#E9E9E9"/>
<line x1="-29" y1="333" x2="1411" y2="333" stroke="#E9E9E9"/>
<path d="M255 187L255 139" stroke="url(#paint3_linear_399_1018)" stroke-linecap="round"/>
<path d="M143 220L143 268" stroke="url(#paint4_linear_399_1018)" stroke-linecap="round"/>
<path d="M31 1L31 399L8 399C4.134 399 1 395.866 1 392L1.00002 8.00001C1.00002 4.13401 4.13402 0.999999 8.00002 0.999999L31 1Z" fill="url(#paint5_linear_399_1018)"/>
<path d="M369 399L369 1L392 1C395.866 1 399 4.134 399 8L399 392C399 395.866 395.866 399 392 399L369 399Z" fill="url(#paint6_linear_399_1018)"/>
<path d="M2 334H400V391C400 395.418 396.418 399 392 399H9.99999C5.58171 399 2 395.418 2 391V334Z" fill="url(#paint7_linear_399_1018)"/>
</g>
<defs>
<filter id="filter0_d_399_1018" x="154" y="9" width="91.3872" height="92" filterUnits="userSpaceOnUse" color-interpolation-filters="sRGB">
<feFlood flood-opacity="0" result="BackgroundImageFix"/>
<feColorMatrix in="SourceAlpha" type="matrix" values="0 0 0 0 0 0 0 0 0 0 0 0 0 0 0 0 0 0 127 0" result="hardAlpha"/>
<feOffset/>
<feGaussianBlur stdDeviation="1.5"/>
<feComposite in2="hardAlpha" operator="out"/>
<feColorMatrix type="matrix" values="0 0 0 0 0 0 0 0 0 0 0 0 0 0 0 0 0 0 0.15 0"/>
<feBlend mode="normal" in2="BackgroundImageFix" result="effect1_dropShadow_399_1018"/>
<feBlend mode="normal" in="SourceGraphic" in2="effect1_dropShadow_399_1018" result="shape"/>
</filter>
<filter id="filter1_d_399_1018" x="154" y="119" width="91.3872" height="92" filterUnits="userSpaceOnUse" color-interpolation-filters="sRGB">
<feFlood flood-opacity="0" result="BackgroundImageFix"/>
<feColorMatrix in="SourceAlpha" type="matrix" values="0 0 0 0 0 0 0 0 0 0 0 0 0 0 0 0 0 0 127 0" result="hardAlpha"/>
<feOffset/>
<feGaussianBlur stdDeviation="1.5"/>
<feComposite in2="hardAlpha" operator="out"/>
<feColorMatrix type="matrix" values="0 0 0 0 0 0 0 0 0 0 0 0 0 0 0 0 0 0 0.15 0"/>
<feBlend mode="normal" in2="BackgroundImageFix" result="effect1_dropShadow_399_1018"/>
<feBlend mode="normal" in="SourceGraphic" in2="effect1_dropShadow_399_1018" result="shape"/>
</filter>
<filter id="filter2_d_399_1018" x="154" y="232" width="91.3872" height="92" filterUnits="userSpaceOnUse" color-interpolation-filters="sRGB">
<feFlood flood-opacity="0" result="BackgroundImageFix"/>
<feColorMatrix in="SourceAlpha" type="matrix" values="0 0 0 0 0 0 0 0 0 0 0 0 0 0 0 0 0 0 127 0" result="hardAlpha"/>
<feOffset/>
<feGaussianBlur stdDeviation="1.5"/>
<feComposite in2="hardAlpha" operator="out"/>
<feColorMatrix type="matrix" values="0 0 0 0 0 0 0 0 0 0 0 0 0 0 0 0 0 0 0.15 0"/>
<feBlend mode="normal" in2="BackgroundImageFix" result="effect1_dropShadow_399_1018"/>
<feBlend mode="normal" in="SourceGraphic" in2="effect1_dropShadow_399_1018" result="shape"/>
</filter>
<filter id="filter3_d_399_1018" x="154" y="343" width="91.3872" height="92" filterUnits="userSpaceOnUse" color-interpolation-filters="sRGB">
<feFlood flood-opacity="0" result="BackgroundImageFix"/>
<feColorMatrix in="SourceAlpha" type="matrix" values="0 0 0 0 0 0 0 0 0 0 0 0 0 0 0 0 0 0 127 0" result="hardAlpha"/>
<feOffset/>
<feGaussianBlur stdDeviation="1.5"/>
<feComposite in2="hardAlpha" operator="out"/>
<feColorMatrix type="matrix" values="0 0 0 0 0 0 0 0 0 0 0 0 0 0 0 0 0 0 0.15 0"/>
<feBlend mode="normal" in2="BackgroundImageFix" result="effect1_dropShadow_399_1018"/>
<feBlend mode="normal" in="SourceGraphic" in2="effect1_dropShadow_399_1018" result="shape"/>
</filter>
<linearGradient id="paint0_linear_399_1018" x1="195.994" y1="151.371" x2="185.747" y2="182.342" gradientUnits="userSpaceOnUse">
<stop stop-color="#114A8B"/>
<stop offset="1" stop-color="#0765B6"/>
</linearGradient>
<linearGradient id="paint1_linear_399_1018" x1="199.329" y1="165.738" x2="196.872" y2="166.588" gradientUnits="userSpaceOnUse">
<stop stop-opacity="0.3"/>
<stop offset="0.071" stop-opacity="0.2"/>
<stop offset="0.321" stop-opacity="0.1"/>
<stop offset="0.623" stop-opacity="0.05"/>
<stop offset="1" stop-opacity="0"/>
</linearGradient>
<linearGradient id="paint2_linear_399_1018" x1="198.048" y1="150.444" x2="209.307" y2="181.131" gradientUnits="userSpaceOnUse">
<stop stop-color="#3BC9F3"/>
<stop offset="1" stop-color="#2892DF"/>
</linearGradient>
<linearGradient id="paint3_linear_399_1018" x1="256.5" y1="151.59" x2="256.5" y2="181.885" gradientUnits="userSpaceOnUse">
<stop stop-color="#2959FF"/>
<stop offset="1" stop-color="#E9E9E9" stop-opacity="0"/>
</linearGradient>
<linearGradient id="paint4_linear_399_1018" x1="141.5" y1="255.41" x2="141.5" y2="225.115" gradientUnits="userSpaceOnUse">
<stop stop-color="#2959FF"/>
<stop offset="1" stop-color="#E9E9E9" stop-opacity="0"/>
</linearGradient>
<linearGradient id="paint5_linear_399_1018" x1="31" y1="200" x2="1.00001" y2="200" gradientUnits="userSpaceOnUse">
<stop stop-color="#F7F8FA" stop-opacity="0"/>
<stop offset="0.92766" stop-color="#F7F8FA" stop-opacity="0.9"/>
<stop offset="1" stop-color="#F7F8FA"/>
</linearGradient>
<linearGradient id="paint6_linear_399_1018" x1="369" y1="200" x2="399" y2="200" gradientUnits="userSpaceOnUse">
<stop stop-color="#F7F8FA" stop-opacity="0"/>
<stop offset="0.92766" stop-color="#F7F8FA" stop-opacity="0.9"/>
<stop offset="1" stop-color="#F7F8FA"/>
</linearGradient>
<linearGradient id="paint7_linear_399_1018" x1="201" y1="334" x2="201" y2="399" gradientUnits="userSpaceOnUse">
<stop stop-color="#F7F8FA" stop-opacity="0"/>
<stop offset="0.56307" stop-color="#F7F8FA" stop-opacity="0.9"/>
<stop offset="1" stop-color="#F7F8FA"/>
</linearGradient>
<clipPath id="clip0_399_1018">
<rect width="85" height="387" fill="white" transform="translate(157 12)"/>
</clipPath>
<clipPath id="clip1_399_1018">
<path d="M0 7.99999C0 3.58171 3.58172 0 8 0H392C396.418 0 400 3.58172 400 8V392C400 396.418 396.418 400 392 400H7.99999C3.58171 400 0 396.418 0 392V7.99999Z" fill="white"/>
</clipPath>
</defs>
</svg>
