<svg width="132" height="44" viewBox="0 0 132 44" fill="none" xmlns="http://www.w3.org/2000/svg">
<g clip-path="url(#clip0_399_1512)">
<path d="M11.6769 37.6C11.6769 40.7 9.13853 43.2 5.99084 43.2C2.84315 43.2 0.304688 40.7 0.304688 37.6C0.304688 34.5 2.84315 32 5.99084 32C9.13853 32 11.6769 34.5 11.6769 37.6Z" fill="black"/>
<path d="M30.6646 37.7002C30.6646 39.9002 28.8369 41.7002 26.603 41.7002C24.3692 41.7002 22.5415 39.9002 22.5415 37.7002C22.5415 35.5002 24.3692 33.7002 26.603 33.7002C28.8369 33.7002 30.6646 35.5002 30.6646 37.7002Z" fill="black"/>
<path d="M45.3878 37.6999C45.3878 38.6999 44.5755 39.4999 43.5601 39.4999C42.5447 39.4999 41.7324 38.6999 41.7324 37.6999C41.7324 36.6999 42.5447 35.8999 43.5601 35.8999C44.5755 35.8999 45.3878 36.6999 45.3878 37.6999Z" fill="black"/>
<path d="M25.4862 25.8001C24.4708 25.8001 23.76 25.0001 23.76 24.1001V16.7001C23.76 14.2001 22.5416 12.2001 19.8 12.2001C17.0585 12.2001 15.3323 14.3001 15.3323 16.7001V24.0001C15.3323 25.0001 14.6216 25.7001 13.6062 25.7001C12.5908 25.7001 11.88 24.9001 11.88 24.0001V16.6001C11.88 14.1001 10.56 12.1001 7.81849 12.1001C4.97541 12.1001 3.55387 14.2001 3.55387 16.6001V23.9001C3.55387 24.9001 2.8431 25.6001 1.82772 25.6001C0.812332 25.6001 0.101562 24.8001 0.101562 23.9001V11.0001C0.101562 10.0001 0.812332 9.2001 1.82772 9.2001C3.04618 9.2001 3.55387 10.0001 3.55387 11.0001V12.2001C4.56926 10.3001 6.60003 9.1001 8.83387 9.1001C11.4739 9.1001 13.5046 10.4001 14.52 12.4001C15.9416 10.2001 18.0739 9.1001 20.7139 9.1001C25.1816 9.1001 27.4154 12.2001 27.4154 16.5001V24.1001C27.3139 25.0001 26.6031 25.8001 25.4862 25.8001Z" fill="black"/>
<path d="M32.1878 25.8002C31.1724 25.8002 30.4616 25.0002 30.4616 24.1002V11.0002C30.4616 10.0002 31.1724 9.3002 32.1878 9.3002C33.2031 9.3002 33.9139 10.1002 33.9139 11.0002V24.1002C33.9139 25.0002 33.2031 25.8002 32.1878 25.8002ZM32.1878 2.7002C33.3047 2.7002 34.2185 3.6002 34.2185 4.7002C34.2185 5.8002 33.3047 6.7002 32.1878 6.7002C31.0708 6.7002 30.157 5.8002 30.157 4.7002C30.157 3.6002 31.0708 2.7002 32.1878 2.7002Z" fill="black"/>
<path d="M43.7632 15.1998L48.2309 9.7998C48.5355 9.4998 48.9417 9.2998 49.3478 9.2998C50.3632 9.2998 50.9724 9.8998 50.9724 10.7998C50.9724 11.0998 50.8709 11.4998 50.5663 11.7998L45.6924 17.4998L50.6678 23.2998C50.9724 23.5998 51.074 23.8998 51.074 24.2998C51.074 25.0998 50.3632 25.7998 49.5509 25.7998C49.0432 25.7998 48.6371 25.5998 48.3324 25.1998L43.8647 19.6998L39.3971 25.1998C39.0924 25.5998 38.6863 25.7998 38.1786 25.7998C37.3663 25.7998 36.6555 25.0998 36.6555 24.2998C36.6555 23.8998 36.7571 23.5998 37.0617 23.2998L42.0371 17.4998L37.1632 11.7998C36.8586 11.4998 36.7571 11.0998 36.7571 10.7998C36.7571 9.8998 37.3663 9.2998 38.3817 9.2998C38.8894 9.2998 39.194 9.4998 39.4986 9.7998L43.7632 15.1998Z" fill="black"/>
<path d="M62.1413 12.0002C59.0952 12.0002 57.1659 14.6002 57.1659 17.6002C57.1659 20.5002 59.1967 23.2002 62.1413 23.2002C65.1875 23.2002 67.1167 21.0002 67.1167 17.6002C67.1167 14.2002 65.1875 12.0002 62.1413 12.0002ZM62.8521 26.0002C60.3136 26.0002 58.2829 24.7002 57.1659 22.8002V31.0002C57.1659 32.0002 56.4552 32.7002 55.4398 32.7002C54.4244 32.7002 53.7136 31.9002 53.7136 31.0002V11.0002C53.7136 10.0002 54.3229 9.3002 55.3382 9.3002C56.3536 9.3002 57.0644 10.1002 57.0644 11.1002V12.4002C58.1813 10.5002 60.4152 9.2002 62.8521 9.2002C67.1167 9.2002 70.569 12.7002 70.569 17.6002C70.569 22.6002 67.1167 26.0002 62.8521 26.0002Z" fill="black"/>
<path d="M80.5199 12.1002C77.5753 12.1002 75.443 14.6002 75.443 17.6002C75.443 20.8002 77.1692 23.1002 80.5199 23.1002C83.5661 23.1002 85.5969 20.5002 85.5969 17.6002C85.4953 14.1002 83.4646 12.1002 80.5199 12.1002ZM89.0492 24.1002C89.0492 25.1002 88.3384 25.8002 87.323 25.8002C86.3076 25.8002 85.5969 25.0002 85.5969 24.1002V23.3002C84.5815 24.8002 82.5507 26.0002 80.2153 26.0002C75.0369 26.0002 71.9907 22.2002 71.9907 17.6002C71.9907 13.0002 75.3415 9.2002 80.6215 9.2002C86.003 9.2002 89.1507 12.7002 89.1507 17.6002V24.1002H89.0492Z" fill="black"/>
<path d="M99.5078 9.1001C103.975 9.1001 107.326 12.5001 107.326 16.8001V24.1001C107.326 25.1001 106.514 25.8001 105.6 25.8001C104.585 25.8001 103.874 25.0001 103.874 24.1001V16.4001C103.874 14.1001 102.046 12.3001 99.6094 12.3001C97.1725 12.3001 95.3448 14.1001 95.3448 16.4001V24.1001C95.3448 25.1001 94.5325 25.8001 93.6186 25.8001C92.6032 25.8001 91.8925 25.0001 91.8925 24.1001V16.8001C91.7909 12.5001 95.0401 9.1001 99.5078 9.1001Z" fill="black"/>
<path d="M117.785 11.9001C115.246 11.9001 113.52 13.7001 113.114 16.0001H122.252C121.948 13.7001 120.323 11.9001 117.785 11.9001ZM125.502 17.6001C125.502 18.2001 125.197 18.8001 124.182 18.8001H113.114C113.317 21.3001 115.043 23.2001 118.089 23.2001C120.018 23.2001 121.135 22.5001 122.354 21.4001C122.658 21.1001 123.065 20.8001 123.471 20.8001C124.283 20.8001 124.892 21.4001 124.892 22.2001C124.892 22.6001 124.689 22.9001 124.486 23.2001C123.065 24.8001 120.526 25.9001 117.886 25.9001C112.302 25.9001 109.458 22.1001 109.458 17.5001C109.458 12.7001 113.012 9.1001 117.785 9.1001C122.455 9.1001 125.502 12.9001 125.502 17.6001Z" fill="black"/>
<path d="M129.665 25.7998C128.649 25.7998 127.938 24.9998 127.938 24.0998V2.4998C127.938 1.4998 128.649 0.799805 129.665 0.799805C130.68 0.799805 131.391 1.5998 131.391 2.4998V24.0998C131.391 24.9998 130.68 25.7998 129.665 25.7998Z" fill="black"/>
</g>
<defs>
<clipPath id="clip0_399_1512">
<rect width="132" height="44" fill="white"/>
</clipPath>
</defs>
</svg>
