<svg width="37" height="44" viewBox="0 0 37 44" fill="none" xmlns="http://www.w3.org/2000/svg">
<path d="M28.1344 0H4.77744C2.14236 0 0 2.14433 0 4.77744V35.1666C0 37.7997 2.14236 39.944 4.77744 39.944H28.1344C30.7676 39.944 32.9119 37.7997 32.9119 35.1666V4.77744C32.9119 2.14236 30.7695 0 28.1344 0ZM30.8188 35.1666C30.8188 36.6467 29.6126 37.8529 28.1344 37.8529H4.77744C3.29533 37.8529 2.09112 36.6487 2.09112 35.1666V4.77744C2.09112 3.2973 3.2973 2.09111 4.77744 2.09111H18.3273V1.30473H29.0647V2.27638C30.0837 2.65676 30.8208 3.62447 30.8208 4.77547V35.1646L30.8188 35.1666Z" fill="white"/>
<path d="M32.1925 4.0561H31.4357V6.14919H32.1925C33.6727 6.14919 34.8769 7.3534 34.8769 8.83354V39.2227C34.8769 40.7048 33.6727 41.909 32.1925 41.909H8.83551C7.3534 41.909 6.14919 40.7048 6.14919 39.2227V38.3693H4.0561V39.2227C4.0561 41.8578 6.19846 44.0001 8.83551 44.0001H32.1925C34.8256 44.0001 36.97 41.8578 36.97 39.2227V8.83354C36.97 6.19846 34.8276 4.0561 32.1925 4.0561Z" fill="white"/>
<path d="M28.237 0.65425H4.64742C2.83617 0.65425 1.36589 2.12256 1.36589 3.93578V6.63196H31.5166V3.93578C31.5166 2.12454 30.0482 0.65425 28.237 0.65425ZM19.977 4.57041C19.2832 4.57041 18.7215 4.0087 18.7215 3.31495C18.7215 2.6212 19.2832 2.0595 19.977 2.0595C20.6707 2.0595 21.2325 2.6212 21.2325 3.31495C21.2325 4.0087 20.6707 4.57041 19.977 4.57041ZM23.8478 4.57041C23.1541 4.57041 22.5924 4.0087 22.5924 3.31495C22.5924 2.6212 23.1541 2.0595 23.8478 2.0595C24.5416 2.0595 25.1033 2.6212 25.1033 3.31495C25.1033 4.0087 24.5416 4.57041 23.8478 4.57041ZM27.7186 4.57041C27.0249 4.57041 26.4632 4.0087 26.4632 3.31495C26.4632 2.6212 27.0249 2.0595 27.7186 2.0595C28.4124 2.0595 28.9741 2.6212 28.9741 3.31495C28.9741 4.0087 28.4124 4.57041 27.7186 4.57041Z" fill="white"/>
<path d="M19.9767 22.6812C19.9767 24.6245 18.4 26.2012 16.4528 26.2012C14.5055 26.2012 12.9328 24.6245 12.9328 22.6812C12.9328 20.7379 14.5055 19.1573 16.4528 19.1573C18.4 19.1573 19.9767 20.734 19.9767 22.6812Z" fill="white"/>
<path d="M16.453 12.1762C10.6507 12.1762 5.95009 16.8768 5.95009 22.6791C5.95009 28.4814 10.6507 33.182 16.453 33.182C22.2553 33.182 26.9598 28.4814 26.9598 22.6791C26.9598 16.8768 22.2553 12.1762 16.453 12.1762ZM22.3223 24.3149C22.1902 24.7919 21.999 25.2452 21.7566 25.6709L22.7716 27.019C22.2395 27.7975 21.5654 28.4637 20.7909 28.9958L19.4428 27.9847C19.021 28.2232 18.5677 28.4144 18.0868 28.5464L17.8523 30.2177C17.397 30.3025 16.9299 30.3498 16.449 30.3498C15.9681 30.3498 15.501 30.3025 15.0497 30.2177L14.8112 28.5464C14.3343 28.4144 13.881 28.2232 13.4592 27.9847L12.1071 28.9958C11.3326 28.4637 10.6625 27.7975 10.1303 27.0229L11.1414 25.667C10.899 25.2452 10.7118 24.7919 10.5797 24.3149L8.91431 24.0765C8.82562 23.6212 8.78226 23.158 8.78226 22.6791C8.78226 22.2002 8.82562 21.735 8.91431 21.2758L10.5797 21.0413C10.7118 20.5604 10.899 20.1071 11.1414 19.6853L10.1303 18.3333C10.6625 17.5607 11.3326 16.8926 12.1071 16.3604L13.4552 17.3675C13.8809 17.1251 14.3343 16.9379 14.8112 16.8019L15.0497 15.1404C15.501 15.0557 15.9721 15.0084 16.449 15.0084C16.926 15.0084 17.397 15.0557 17.8523 15.1404L18.0868 16.8019C18.5677 16.9379 19.023 17.1251 19.4428 17.3675L20.7909 16.3604C21.5654 16.8926 22.2395 17.5587 22.7716 18.3372L21.7606 19.6853C21.999 20.1051 22.1902 20.5604 22.3223 21.0413L23.9877 21.2758C24.0764 21.735 24.1197 22.2021 24.1197 22.6791C24.1197 23.1561 24.0764 23.6232 23.9877 24.0765L22.3223 24.3149Z" fill="white"/>
</svg>
