<svg width="125" height="44" viewBox="0 0 125 44" fill="none" xmlns="http://www.w3.org/2000/svg">
<path d="M44.4491 10.4746C43.8047 10.4746 43.2822 10.9906 43.2822 11.627V27.8179C43.2822 28.4537 43.8047 28.9698 44.4491 28.9698H48.1565C50.26 28.9698 52.1681 28.7538 53.3934 28.3768C54.2754 28.107 55.1635 27.5365 56.188 26.5798C57.0555 25.7709 57.7377 24.757 58.2146 23.5662C58.7076 22.3336 58.948 21.0335 58.948 19.592C58.948 17.5807 58.5191 15.8503 57.6355 14.3044C56.8336 12.8987 55.7745 11.8991 54.2998 11.1561C52.9454 10.4747 50.9315 10.4746 48.3828 10.4746H44.4491ZM114.373 10.4746C114.114 10.4746 113.903 10.6822 113.903 10.9388V28.5053C113.903 28.762 114.114 28.9702 114.373 28.9702H123.267C123.526 28.9702 123.739 28.762 123.739 28.5053V26.4395C123.739 26.1818 123.526 25.9741 123.267 25.9741H117.46V10.9388C117.46 10.6822 117.249 10.4746 116.99 10.4746H114.373ZM46.8399 13.4708H48.6321C51.0138 13.4708 52.646 13.9329 53.6243 14.8841C54.7873 16.0156 55.3517 17.5295 55.3517 19.5122C55.3517 20.8448 55.094 22.0603 54.6283 22.9335C54.0668 23.9804 53.4191 24.7108 52.7552 25.0455C51.842 25.5043 50.6923 25.9741 49.0902 25.9741H46.8399V13.4708ZM68.755 14.381C66.6415 14.381 64.9315 15.0705 63.5297 16.4889C62.1269 17.9089 61.4457 19.6439 61.4457 21.7925C61.4457 23.8896 62.1286 25.5864 63.5364 26.9795C64.9421 28.3726 66.7133 29.0491 68.9509 29.0491C70.3888 29.0491 71.6354 28.7996 72.6549 28.3083C73.5141 27.8951 74.2769 27.2956 74.9246 26.5257C75.0181 26.4147 75.0531 26.2668 75.0203 26.1255C74.9891 25.9848 74.8917 25.8667 74.7593 25.8057L72.6549 24.8501C72.4891 24.7743 72.2904 24.8013 72.1502 24.9205C71.2108 25.7223 70.1252 26.1295 68.9243 26.1295C67.7246 26.1295 66.8136 25.8607 66.1391 25.3084C65.4213 24.7198 65.0228 24.1054 64.8397 23.2872H75.8001C76.0589 23.2872 76.2697 23.0812 76.2714 22.8251L76.2735 22.3664C76.2735 19.9715 75.5116 17.8303 74.1828 16.4889C72.7771 15.0705 71.0026 14.381 68.755 14.381ZM86.0807 14.381C83.9655 14.381 82.2572 15.0705 80.8555 16.4889C79.4532 17.9089 78.7714 19.6439 78.7714 21.7925C78.7714 23.889 79.4549 25.5853 80.8622 26.9795C82.2678 28.3726 84.039 29.0491 86.2766 29.0491C87.7145 29.0491 88.9609 28.7996 89.9804 28.3083C90.839 27.8951 91.6026 27.2955 92.2503 26.5262C92.3433 26.4146 92.38 26.2669 92.346 26.1262C92.3148 25.985 92.218 25.8667 92.085 25.8057L89.9804 24.8501C89.8134 24.7743 89.6153 24.8013 89.4756 24.9205C88.5346 25.7223 87.4496 26.1295 86.2498 26.1295C85.0501 26.1295 84.1391 25.8608 83.4629 25.3091C82.7451 24.72 82.3485 24.1049 82.1654 23.2872H93.1256C93.3849 23.2872 93.5943 23.0812 93.5954 22.8251L93.5993 22.3664C93.5993 19.9709 92.8374 17.8292 91.5085 16.4889C90.1012 15.0705 88.3266 14.381 86.0807 14.381H86.0807ZM104.618 14.381C103.764 14.381 102.898 14.5485 102.178 14.8546C101.339 15.2096 100.568 15.708 100.006 16.2581L99.6718 16.5219L98.1647 15.1244H96.5828C96.324 15.1244 96.1141 15.3316 96.1141 15.5872V33.6727C96.1141 33.9293 96.3246 34.1371 96.5844 34.1371H99.2005C99.4604 34.1371 99.6718 33.9289 99.6718 33.6718V26.9861L100.005 27.2361C100.721 27.8977 101.646 28.3538 102.3 28.6209C102.995 28.9044 103.758 29.0496 104.568 29.0496C106.408 29.0496 107.954 28.3637 109.298 26.9547C110.638 25.5495 111.29 23.8439 111.29 21.7408C111.29 19.6053 110.636 17.8226 109.34 16.4433C108.059 15.0744 106.47 14.381 104.618 14.381ZM68.9325 17.2606C69.7905 17.2606 70.6143 17.5353 71.3789 18.0766C72.0511 18.5519 72.5408 19.247 72.7884 20.0631L72.8434 20.2901H64.8715L64.9538 20.078C65.429 19.0498 65.8637 18.4019 66.2822 18.0969C67.039 17.5424 67.9308 17.2606 68.9325 17.2606ZM86.257 17.2606C87.1156 17.2606 87.94 17.5348 88.7035 18.0766C89.3762 18.5519 89.8664 19.2472 90.1129 20.0638L90.1691 20.2901H82.1977L82.2805 20.0775C82.7518 19.0521 83.1859 18.4041 83.6055 18.0969C84.3645 17.5424 85.2553 17.2606 86.257 17.2606ZM103.929 17.5318C105.057 17.5318 106.002 17.9254 106.739 18.7036C107.477 19.4795 107.853 20.4889 107.853 21.7028C107.853 22.9255 107.472 23.945 106.721 24.7341C105.97 25.5238 105.03 25.925 103.929 25.925C102.795 25.925 101.842 25.5304 101.093 24.7544C100.348 23.9768 99.9684 22.9459 99.9684 21.6903C99.9684 20.4582 100.348 19.4476 101.095 18.6837C101.842 17.9193 102.795 17.5318 103.929 17.5318Z" fill="#042B48"/>
<path d="M24.0553 22.472C22.4989 22.472 21.2379 21.2268 21.2379 19.6897C21.2379 19.5276 21.2518 19.3688 21.2796 19.2144L14.5419 15.3831C14.0516 15.7919 13.4178 16.0386 12.7261 16.0386C11.1696 16.0386 9.9081 14.7929 9.9081 13.2564C9.9081 11.7199 11.1696 10.4741 12.7261 10.4741C14.2825 10.4741 15.5441 11.7199 15.5441 13.2564C15.5441 13.4333 15.5257 13.6064 15.4934 13.7746L22.2067 17.5916C22.7014 17.1657 23.3481 16.9075 24.0553 16.9075C25.6107 16.9075 26.8722 18.1532 26.8722 19.6897C26.8722 21.2268 25.6107 22.472 24.0553 22.472ZM15.5096 26.1671C15.5096 27.7036 14.2486 28.9494 12.6921 28.9494C11.1368 28.9494 9.87527 27.7036 9.87527 26.1671C9.87527 24.6301 11.1368 23.3843 12.6921 23.3843C13.3916 23.3843 14.0305 23.6365 14.5229 24.053L19.4349 21.2653C19.6447 21.8637 19.9708 22.4088 20.3854 22.8748L15.4645 25.6681C15.4934 25.8302 15.5096 25.9967 15.5096 26.1671ZM32.4509 9.18706L19.0721 1.63756C18.1612 1.12374 17.0427 1.12374 16.1317 1.63756L2.75407 9.18706C1.83033 9.70801 1.2605 10.6785 1.2605 11.7281V27.0854C1.2605 28.1306 1.82532 29.0972 2.74239 29.6198L25.7732 42.7476L25.7771 33.4231L32.4603 29.6198C33.3785 29.0972 33.9439 28.1306 33.9439 27.0843V11.7281C33.9439 10.6785 33.374 9.70801 32.4509 9.18706" fill="#042B48"/>
</svg>
