<svg width="44" height="44" viewBox="0 0 44 44" fill="none" xmlns="http://www.w3.org/2000/svg">
<path d="M22.0009 31.8211C19.3497 31.8211 16.8552 30.7917 14.9772 28.9204C13.0992 27.0475 12.0661 24.5636 12.0661 21.9203C12.0661 16.4577 16.5219 12.0128 22.0009 12.0128C27.4798 12.0128 31.9356 16.4577 31.9356 21.9203C31.9356 24.562 30.9008 27.0475 29.0245 28.9188C27.1465 30.79 24.652 31.8195 22.0009 31.8195V31.8211ZM22.0009 14.0086C17.625 14.0086 14.0657 17.5585 14.0657 21.922C14.0657 24.0306 14.8922 26.0165 16.3902 27.5108C17.89 29.0051 19.8813 29.827 21.9992 29.827C24.1171 29.827 26.1084 29.0035 27.6081 27.5108C29.1078 26.0165 29.9327 24.0306 29.9327 21.922C29.9327 17.5585 26.3734 14.0086 21.9975 14.0086H22.0009Z" fill="white"/>
<path d="M12.2877 22.5645H5.18068C4.82408 22.5645 4.53581 22.2773 4.53581 21.922C4.53581 21.5666 4.82408 21.2794 5.18068 21.2794H12.2877C12.6426 21.2794 12.9325 21.5666 12.9325 21.922C12.9325 22.2773 12.6443 22.5645 12.2877 22.5645Z" fill="white"/>
<path d="M38.8293 22.5645H31.714C31.359 22.5645 31.0691 22.2773 31.0691 21.922C31.0691 21.5666 31.3574 21.2794 31.714 21.2794H38.8293C39.1842 21.2794 39.4742 21.5666 39.4742 21.922C39.4742 22.2773 39.1859 22.5645 38.8293 22.5645Z" fill="white"/>
<path d="M41.1705 24.7396C39.6108 24.7396 38.3427 23.4744 38.3427 21.9203C38.3427 20.3662 39.6108 19.101 41.1705 19.101C42.7302 19.101 44 20.3662 44 21.9203C44 23.4744 42.7302 24.7396 41.1705 24.7396Z" fill="white"/>
<path d="M2.82946 24.7396C1.26976 24.7396 0 23.4744 0 21.9203C0 20.3662 1.26976 19.101 2.82946 19.101C4.38917 19.101 5.65893 20.3662 5.65893 21.9203C5.65893 23.4744 4.38917 24.7396 2.82946 24.7396Z" fill="white"/>
<path d="M10.278 34.237C10.1131 34.237 9.94811 34.1739 9.82146 34.0477C9.56984 33.797 9.56984 33.3902 9.82146 33.1394L14.6772 28.3078C14.9288 28.057 15.3371 28.057 15.5887 28.3078C15.8403 28.5585 15.8403 28.9653 15.5887 29.216L10.733 34.0477C10.6063 34.1722 10.4413 34.2353 10.278 34.2353V34.237Z" fill="white"/>
<path d="M28.9128 15.674C28.7479 15.674 28.5829 15.6109 28.4579 15.4863C28.2063 15.2356 28.2063 14.8288 28.4579 14.5781L31.6823 11.3653C31.9339 11.1146 32.3422 11.1146 32.5938 11.3653C32.8454 11.616 32.8454 12.0228 32.5938 12.2735L29.3694 15.4863C29.2428 15.6125 29.0795 15.674 28.9145 15.674H28.9128Z" fill="white"/>
<path d="M8.44506 38.2468C7.6902 38.2468 6.97867 37.9545 6.44544 37.4216C5.91054 36.8886 5.61726 36.1813 5.61726 35.4291C5.61726 34.677 5.9122 33.968 6.44544 33.435C7.51357 32.3707 9.37821 32.3707 10.4463 33.435C10.9812 33.968 11.2745 34.6753 11.2745 35.4291C11.2745 36.1829 10.9796 36.8902 10.4463 37.4216C9.91145 37.9545 9.20158 38.2468 8.44672 38.2468H8.44506Z" fill="white"/>
<path d="M34.7951 13.2365C33.7053 13.2365 32.6805 12.8131 31.9106 12.046C31.1391 11.2773 30.7158 10.2578 30.7158 9.17192C30.7158 8.08603 31.1407 7.0649 31.9106 6.29781C32.6805 5.53071 33.7053 5.10732 34.7951 5.10732C35.8848 5.10732 36.908 5.53071 37.6795 6.29781C39.2692 7.88347 39.2692 10.462 37.6795 12.046C36.9097 12.8148 35.8848 13.2365 34.7951 13.2365ZM34.7951 6.90385C34.1885 6.90385 33.6169 7.13962 33.187 7.568C32.7571 7.99471 32.5205 8.56422 32.5205 9.1686C32.5205 9.77298 32.7571 10.3425 33.187 10.7692C34.0452 11.6243 35.5432 11.626 36.4014 10.7692C37.2879 9.88588 37.2879 8.44966 36.4014 7.56634C35.9715 7.13796 35.4016 6.90385 34.7951 6.90385Z" fill="white"/>
<path d="M22.0009 12.8779C21.6443 12.8779 21.356 12.5906 21.356 12.2353V5.16044C21.356 4.80512 21.6443 4.51788 22.0009 4.51788C22.3574 4.51788 22.6457 4.80512 22.6457 5.16044V12.2353C22.6457 12.5906 22.3574 12.8779 22.0009 12.8779Z" fill="white"/>
<path d="M21.9958 36.7159C21.6409 36.7159 21.3509 36.4286 21.3509 36.0733V31.5488C21.3509 31.1935 21.6392 30.9062 21.9958 30.9062C22.3524 30.9062 22.6407 31.1935 22.6407 31.5488V36.0733C22.6407 36.4286 22.3524 36.7159 21.9958 36.7159Z" fill="white"/>
<path d="M21.9992 5.63698C20.4395 5.63698 19.1697 4.37177 19.1697 2.81766C19.1697 1.26355 20.4395 0 21.9992 0C23.5589 0 24.8286 1.26521 24.8286 2.81932C24.8286 4.37343 23.5589 5.63864 21.9992 5.63864V5.63698Z" fill="white"/>
<path d="M33.8002 34.3366C33.6353 34.3366 33.4686 34.2735 33.3437 34.1473L28.4129 29.2176C28.1613 28.9669 28.1613 28.5601 28.4129 28.3094C28.6646 28.0587 29.0728 28.0587 29.3244 28.3094L34.2585 33.2407C34.5101 33.4931 34.5084 33.8999 34.2568 34.1489C34.1302 34.2735 33.9669 34.3366 33.8019 34.3366H33.8002Z" fill="white"/>
<path d="M15.1405 15.7437C14.9755 15.7437 14.8106 15.6806 14.6856 15.5561L11.4629 12.3432C11.2112 12.0925 11.2112 11.6857 11.4629 11.435C11.7145 11.1843 12.1227 11.1843 12.3744 11.435L15.5987 14.6478C15.8504 14.8986 15.8504 15.3054 15.5987 15.5561C15.4721 15.6806 15.3088 15.7437 15.1438 15.7437H15.1405Z" fill="white"/>
<path d="M35.5566 38.2468C34.8001 38.2468 34.0902 37.9546 33.557 37.4216C32.4538 36.3224 32.4538 34.5342 33.557 33.435C34.6251 32.3707 36.4881 32.369 37.5562 33.435C38.0911 33.968 38.3844 34.6753 38.3844 35.4291C38.3844 36.1829 38.0894 36.8903 37.5562 37.4216C37.0213 37.9546 36.3114 38.2468 35.5566 38.2468Z" fill="white"/>
<path d="M9.20659 13.2365C8.1168 13.2365 7.09199 12.8131 6.32214 12.046C5.55062 11.2773 5.12736 10.2578 5.12736 9.17192C5.12736 8.08603 5.55228 7.0649 6.32214 6.29781C7.09199 5.53071 8.1168 5.10732 9.20659 5.10732C10.2964 5.10732 11.3195 5.53071 12.091 6.29781C13.6807 7.88347 13.6807 10.462 12.091 12.046C11.3212 12.8148 10.2964 13.2365 9.20659 13.2365ZM9.20659 6.90385C8.60004 6.90385 8.02848 7.13962 7.59856 7.568C7.16864 7.99471 6.93202 8.56422 6.93202 9.1686C6.93202 9.77298 7.16864 10.3425 7.59856 10.7692C8.45673 11.6243 9.95478 11.626 10.8129 10.7692C11.6994 9.88588 11.6994 8.44966 10.8129 7.56634C10.383 7.13796 9.81314 6.90385 9.20659 6.90385Z" fill="white"/>
<path d="M18.7847 26.5345C17.8333 26.0646 17.265 25.1713 17.3017 24.205L17.5533 17.6531L22.0008 16.3198L26.4466 17.6531L26.6982 24.205C26.7349 25.173 26.1667 26.0646 25.2152 26.5345L21.9991 28.1218L18.7831 26.5345H18.7847Z" fill="white"/>
<path d="M22.0008 44C20.911 44 19.8862 43.5766 19.1163 42.8095C18.3448 42.0407 17.9216 41.0213 17.9216 39.9354C17.9216 38.8495 18.3465 37.8284 19.1163 37.0613C19.8862 36.2942 20.911 35.8708 22.0008 35.8708C23.0906 35.8708 24.1137 36.2942 24.8852 37.0613C26.4749 38.6469 26.4749 41.2255 24.8852 42.8095C24.1154 43.5782 23.0906 44 22.0008 44ZM22.0008 37.6673C21.3942 37.6673 20.8227 37.9031 20.3928 38.3298C19.9628 38.7582 19.7262 39.326 19.7262 39.9304C19.7262 40.5348 19.9628 41.1043 20.3928 41.531C21.2509 42.3861 22.749 42.3878 23.6072 41.531C24.4937 40.6477 24.4937 39.2115 23.6072 38.3281C23.1772 37.8998 22.6073 37.6656 22.0008 37.6656V37.6673Z" fill="white"/>
</svg>
