<svg width="30" height="23" viewBox="0 0 30 23" fill="none" xmlns="http://www.w3.org/2000/svg">
<path d="M0 22.9506V16.3841C0 14.4957 0.354077 12.5322 1.06223 10.4936C1.79185 8.43348 2.77897 6.49142 4.02361 4.66738C5.2897 2.82189 6.70601 1.2661 8.27253 0L13.6803 3.50858C12.4142 5.41845 11.3519 7.41416 10.4936 9.49571C9.65665 11.5558 9.24893 13.8305 9.27039 16.3197V22.9506H0ZM16.3197 22.9506V16.3841C16.3197 14.4957 16.6738 12.5322 17.382 10.4936C18.1116 8.43348 19.0987 6.49142 20.3433 4.66738C21.6094 2.82189 23.0258 1.2661 24.5923 0L30 3.50858C28.7339 5.41845 27.6717 7.41416 26.8133 9.49571C25.9764 11.5558 25.5687 13.8305 25.5901 16.3197V22.9506H16.3197Z" fill="black"/>
</svg>
