<svg width="76" height="76" viewBox="0 0 76 76" fill="none" xmlns="http://www.w3.org/2000/svg">
<g clip-path="url(#clip0_399_1522)">
<path d="M64.8723 64.8717C79.7126 50.0314 79.7126 25.9706 64.8723 11.1303C50.0321 -3.70999 25.9712 -3.70999 11.1309 11.1303C-3.70933 25.9706 -3.70933 50.0314 11.1309 64.8717C25.9712 79.7119 50.0321 79.7119 64.8723 64.8717Z" fill="#2959FF"/>
<path d="M23.6937 28.9965C23.6937 32.5026 26.5355 35.3461 30.0416 35.3461H45.9373C49.586 35.3461 52.5442 32.3879 52.5442 28.7409C52.5442 25.607 50.3599 22.9896 47.4329 22.3113C46.9894 19.3078 44.4085 17 41.2816 17C39.9494 17 38.7181 17.4209 37.7059 18.1339C36.7024 17.5252 35.5285 17.1687 34.2659 17.1687C30.8277 17.1687 27.9998 19.7757 27.6468 23.1218C25.3302 24.0678 23.6955 26.3409 23.6955 28.9983L23.6937 28.9965Z" fill="white"/>
<path d="M24.3536 55.3392H29.0928C28.9275 56.1549 29.058 57.0958 29.6145 57.8505H23.8336C24.3901 57.0958 24.5188 56.1531 24.3554 55.3392H24.3536Z" fill="white"/>
<path d="M32.8091 57.4313H20.9239C20.4908 57.4313 20.1395 57.7826 20.1395 58.2156C20.1395 58.6487 20.4908 59 20.9239 59H32.8091C33.2422 59 33.5935 58.6487 33.5935 58.2156C33.5935 57.7826 33.2422 57.4313 32.8091 57.4313Z" fill="white"/>
<path d="M36.4296 41.9338H17.3026C17.1357 41.9338 17 42.0695 17 42.2364V55.3165C17 55.4834 17.1357 55.6191 17.3026 55.6191H36.4296C36.5966 55.6191 36.7322 55.4834 36.7322 55.3165V42.2364C36.7322 42.0695 36.5966 41.9338 36.4296 41.9338ZM35.4922 53.8852H18.24V43.0434H35.4922V53.8852Z" fill="white"/>
<path d="M25.6193 42.8452V40.4956C25.6193 38.8487 26.9584 37.5095 28.6071 37.5095H33.7688C34.6001 37.5095 35.2767 36.833 35.2767 36.0017V32.0452H36.7567V36.0017C36.7567 37.6487 35.4175 38.9878 33.7706 38.9878H28.6088C27.7775 38.9878 27.101 39.6643 27.101 40.4956V42.8452H25.621H25.6193Z" fill="white"/>
<path d="M25.9046 42.5582H26.8107V40.4956C26.8107 39.506 27.6159 38.7025 28.6037 38.7025H33.7655C35.2542 38.7025 36.4663 37.4903 36.4663 36.0016V32.3303H35.5585V36.0016C35.5585 36.9912 34.7533 37.7947 33.7655 37.7947H28.6037C27.115 37.7947 25.9028 39.0069 25.9028 40.4956V42.5582H25.9046Z" fill="white"/>
<path d="M47.7132 46.2105V44.6957C47.7132 43.8644 47.0367 43.1879 46.2054 43.1879H42.141C40.494 43.1879 39.1549 41.8487 39.1549 40.2018V33.1113H40.6349V40.2018C40.6349 41.0331 41.3114 41.7096 42.1427 41.7096H46.2071C47.8541 41.7096 49.1932 43.0487 49.1932 44.6957V46.2105H47.7132Z" fill="white"/>
<path d="M40.3477 33.3982V40.2017C40.3477 41.1913 41.153 41.9947 42.1408 41.9947H46.2051C47.6938 41.9947 48.906 43.2069 48.906 44.6956V45.9252H47.9999V44.6956C47.9999 43.706 47.1947 42.9026 46.2069 42.9026H42.1425C40.6538 42.9026 39.4417 41.6904 39.4417 40.2017V33.3982H40.3477Z" fill="white"/>
<path d="M57.3532 55.8331C56.9566 55.7479 56.4853 55.647 56.4853 55.647C56.574 55.5653 56.6262 55.4505 56.6262 55.2922V46.1392C56.6262 45.7426 56.2245 45.4609 55.8297 45.4609H51.1166C51.1549 45.6765 51.174 45.8974 51.174 46.1235C51.174 46.2609 51.1671 46.3931 51.1532 46.527H55.5045V55.08H41.7044V46.527H51.8036C51.7879 46.3931 51.7827 46.2609 51.7827 46.1235C51.7827 45.8957 51.8019 45.6765 51.8401 45.4609H41.2975C40.9027 45.4209 40.581 45.7426 40.581 46.1392V55.2922C40.581 55.4557 40.6349 55.5705 40.7288 55.654C40.7288 55.654 40.2314 55.76 39.854 55.8331C39.4749 55.9079 39.1357 56.0748 39.1357 56.4696V56.5948C39.1357 56.9913 39.7357 57.4313 40.1323 57.4313H57.0714C57.468 57.4313 58.068 56.9913 58.068 56.5948V56.4696C58.068 56.0748 57.7479 55.9183 57.3514 55.8331H57.3532Z" fill="white"/>
<path d="M57.3532 55.8332C56.9566 55.748 56.4853 55.6471 56.4853 55.6471C56.4888 55.6454 56.4906 55.6419 56.4923 55.6384H40.7149C40.7149 55.6384 40.7236 55.6489 40.7288 55.6541C40.7288 55.6541 40.2314 55.7602 39.854 55.8332C39.4749 55.908 39.1357 56.075 39.1357 56.4697V56.595C39.1357 56.9915 39.7357 57.4315 40.1323 57.4315H57.0714C57.468 57.4315 58.068 56.9915 58.068 56.595V56.4697C58.068 56.075 57.7479 55.9184 57.3514 55.8332H57.3532Z" fill="white"/>
<path d="M45.6328 49.4314V53.3827L46.6937 54.1166L47.7546 53.3827V49.4314H45.6328Z" fill="white"/>
<path d="M51.5741 52.9724V49.0193L50.515 48.2854L49.4541 49.0193V52.9724H51.5741Z" fill="white"/>
<path d="M23.8962 46.9792V50.9323L24.9571 51.6645L26.018 50.9323V46.9792H23.8962Z" fill="white"/>
<path d="M29.837 50.5202V46.5671L28.7779 45.835L27.717 46.5671V50.5202H29.837Z" fill="white"/>
</g>
<defs>
<clipPath id="clip0_399_1522">
<rect width="76" height="76" fill="white"/>
</clipPath>
</defs>
</svg>
