<svg width="60" height="80" viewBox="0 0 60 80" fill="none" xmlns="http://www.w3.org/2000/svg">
<path fill-rule="evenodd" clip-rule="evenodd" d="M30.9731 5.45633C39.4225 1.37503 48.7709 -0.465404 58.1216 0.0998942C58.9014 0.147038 59.4779 0.834442 59.4107 1.61278L58.1321 16.4105C58.0649 17.1888 57.3793 17.7625 56.599 17.7249C50.417 17.4274 44.2503 18.6797 38.6637 21.3782C32.652 24.282 27.5344 28.7529 23.8496 34.3203C20.1649 39.8876 18.0493 46.3454 17.7256 53.0139C17.4248 59.2107 18.6818 65.3765 21.3715 70.9507C21.711 71.6543 21.4509 72.5095 20.7607 72.8755L7.63926 79.835C6.94909 80.201 6.09105 79.939 5.74293 79.2396C1.56854 70.8533 -0.390457 61.5291 0.0644681 52.1566C0.542275 42.3127 3.66527 32.7798 9.10467 24.5613C14.5441 16.3428 22.0986 9.7429 30.9731 5.45633Z" fill="#2959FF" fill-opacity="0.4"/>
</svg>
